<svg width="89" height="129" viewBox="0 0 89 129" fill="none" xmlns="http://www.w3.org/2000/svg">
<path d="M0.741992 128.38V110.966C3.975 103.765 8.60409 96.7846 14.6292 90.0246C20.6544 83.1177 28.2961 75.9169 37.5542 68.4222C46.3715 61.2214 52.5436 55.3432 56.0706 50.7876C59.5975 46.0851 61.3609 41.5295 61.3609 37.1208C61.3609 26.0992 55.8501 20.5884 44.8285 20.5884C39.5381 20.5884 35.4234 22.0579 32.4843 24.997C29.6921 27.9361 27.8552 32.2713 26.9735 38.0025L1.84416 36.4595C3.31371 24.8501 7.64888 15.9593 14.8497 9.78718C22.1974 3.61507 32.1169 0.529012 44.6081 0.529012C58.1279 0.529012 68.4883 3.68854 75.6891 10.0076C83.0368 16.1797 86.7107 24.8501 86.7107 36.0187C86.7107 41.8969 85.535 47.2607 83.1838 52.1102C80.9794 56.8128 78.0403 61.2214 74.3665 65.3362C70.6926 69.304 66.6513 73.0513 62.2427 76.5782C57.834 79.9582 53.4988 83.3382 49.2372 86.7181C45.1224 90.0981 41.3751 93.4781 37.9951 96.858C34.6151 100.238 32.0434 103.838 30.28 107.659H88.6946V128.38H0.741992Z" fill="#EAA543" fill-opacity="0.78"/>
</svg>
