<svg width="92" height="131" viewBox="0 0 92 131" fill="none" xmlns="http://www.w3.org/2000/svg">
<path d="M91.4624 93.5545C91.4624 105.311 87.5681 114.422 79.7794 120.888C71.9908 127.207 60.9692 130.367 46.7146 130.367C33.1947 130.367 22.3935 127.281 14.311 121.109C6.37541 114.936 1.74633 105.972 0.42373 94.2158L25.9939 92.0114C27.6104 104.062 34.5173 110.087 46.7146 110.087C52.7397 110.087 57.3688 108.617 60.6018 105.678C63.9818 102.592 65.6718 98.0366 65.6718 92.0114C65.6718 86.4272 63.6144 82.1655 59.4996 79.2264C55.5319 76.1403 49.5067 74.5973 41.4242 74.5973H32.8273V54.3175H40.9833C48.1841 54.3175 53.6214 52.8479 57.2953 49.9088C60.9692 46.9697 62.8061 42.7815 62.8061 37.3442C62.8061 32.2008 61.3366 28.1595 58.3975 25.2204C55.4584 22.1343 51.2702 20.5913 45.8328 20.5913C40.6894 20.5913 36.5012 22.0609 33.2682 25C30.0352 27.7921 28.1982 31.8334 27.7574 37.1237L2.62806 35.3603C3.95065 24.4856 8.43278 15.9622 16.0744 9.79011C23.7161 3.618 33.7825 0.531942 46.2737 0.531942C59.4996 0.531942 69.7865 3.54452 77.1343 9.56968C84.482 15.4479 88.1559 23.6039 88.1559 34.0377C88.1559 41.8263 85.8046 48.2923 81.102 53.4358C76.5464 58.5792 69.9335 61.9591 61.2631 63.5756V64.0165C70.9621 65.1922 78.3834 68.4252 83.5268 73.7155C88.8172 78.859 91.4624 85.4719 91.4624 93.5545Z" fill="#EAA543" fill-opacity="0.78"/>
</svg>
