<?xml version="1.0" encoding="iso-8859-1"?>
<!-- Uploaded to: SVG Repo, www.svgrepo.com, Generator: SVG Repo Mixer Tools -->
<!DOCTYPE svg PUBLIC "-//W3C//DTD SVG 1.1//EN" "http://www.w3.org/Graphics/SVG/1.1/DTD/svg11.dtd">
<svg fill="#000000" height="800px" width="800px" version="1.1" id="Capa_1" xmlns="http://www.w3.org/2000/svg" xmlns:xlink="http://www.w3.org/1999/xlink" 
	 viewBox="0 0 465 465" xml:space="preserve">
<g>
	<path d="M316.015,0c-18.964,0-21.012,8.245-21.012,11.79v33.242c0,4.142,3.357,7.5,7.5,7.5s7.5-3.358,7.5-7.5V15.463
		c3.28-0.607,8.742-0.608,12.024,0V67.87c-5.024-4.683-11.011-8.246-17.505-10.062c-1.133-0.316-28.245-7.755-72.022-7.755
		s-70.89,7.438-72.022,7.755c-18.227,5.096-32.505,23.913-32.505,42.838v338.814c0,14.082,11.457,25.539,25.539,25.539h157.977
		c14.082,0,25.539-11.457,25.539-25.539V105.325v-4.678V11.79C337.027,8.245,334.979,0,316.015,0z M164.509,72.257
		c0.26-0.072,26.448-7.203,67.991-7.203s67.731,7.131,67.983,7.201c11.678,3.265,21.544,16.267,21.544,28.392v4.678v42.049
		c-14.842-3.12-46.287-8.382-89.527-8.382s-74.685,5.262-89.527,8.382v-46.727C142.973,88.521,152.839,75.52,164.509,72.257z
		 M173.183,228.767v-71.139c15.552-1.974,35.665-3.636,59.317-3.636s43.766,1.662,59.317,3.636v71.139H173.183z M142.973,228.767
		v-66.023c3.503-0.778,8.631-1.823,15.21-2.921v68.944H142.973z M306.817,159.823c6.579,1.098,11.707,2.143,15.21,2.921v66.023
		h-15.21V159.823z M311.488,450H153.512c-5.812,0-10.539-4.728-10.539-10.539V243.767h179.055v195.694
		C322.027,445.272,317.3,450,311.488,450z"/>
	<path d="M192.058,298.691h-16.375c-4.143,0-7.5,3.358-7.5,7.5s3.357,7.5,7.5,7.5h16.375c4.143,0,7.5-3.358,7.5-7.5
		S196.2,298.691,192.058,298.691z"/>
	<path d="M289.317,298.691h-16.375c-4.143,0-7.5,3.358-7.5,7.5s3.357,7.5,7.5,7.5h16.375c4.143,0,7.5-3.358,7.5-7.5
		S293.46,298.691,289.317,298.691z"/>
	<path d="M192.058,331.283h-16.375c-4.143,0-7.5,3.358-7.5,7.5s3.357,7.5,7.5,7.5h16.375c4.143,0,7.5-3.358,7.5-7.5
		S196.2,331.283,192.058,331.283z"/>
	<path d="M289.317,331.283h-16.375c-4.143,0-7.5,3.358-7.5,7.5s3.357,7.5,7.5,7.5h16.375c4.143,0,7.5-3.358,7.5-7.5
		S293.46,331.283,289.317,331.283z"/>
	<path d="M192.058,363.874h-16.375c-4.143,0-7.5,3.358-7.5,7.5s3.357,7.5,7.5,7.5h16.375c4.143,0,7.5-3.358,7.5-7.5
		S196.2,363.874,192.058,363.874z"/>
	<path d="M240.688,298.691h-16.375c-4.143,0-7.5,3.358-7.5,7.5s3.357,7.5,7.5,7.5h16.375c4.143,0,7.5-3.358,7.5-7.5
		S244.83,298.691,240.688,298.691z"/>
	<path d="M240.688,331.283h-16.375c-4.143,0-7.5,3.358-7.5,7.5s3.357,7.5,7.5,7.5h16.375c4.143,0,7.5-3.358,7.5-7.5
		S244.83,331.283,240.688,331.283z"/>
	<path d="M240.688,363.874h-16.375c-4.143,0-7.5,3.358-7.5,7.5s3.357,7.5,7.5,7.5h16.375c4.143,0,7.5-3.358,7.5-7.5
		S244.83,363.874,240.688,363.874z"/>
	<path d="M289.317,363.874h-16.375c-4.143,0-7.5,3.358-7.5,7.5s3.357,7.5,7.5,7.5h16.375c4.143,0,7.5-3.358,7.5-7.5
		S293.46,363.874,289.317,363.874z"/>
	<path d="M262.93,248.767c-4.143,0-7.5,3.358-7.5,7.5c0,5.422-4.411,9.833-9.833,9.833h-26c-5.422,0-9.833-4.411-9.833-9.833
		c0-4.142-3.357-7.5-7.5-7.5s-7.5,3.358-7.5,7.5c0,13.693,11.14,24.833,24.833,24.833h26c13.693,0,24.833-11.14,24.833-24.833
		C270.43,252.125,267.072,248.767,262.93,248.767z"/>
</g>
</svg>