<svg width="117" height="159" viewBox="0 0 117 159" fill="none" xmlns="http://www.w3.org/2000/svg">
<g clip-path="url(#clip0_149_1299)">
<path d="M30.2855 139.199L28.9791 140.446C28.0395 139.515 27.0083 138.81 25.8854 138.333C24.7701 137.848 23.6815 137.606 22.6198 137.606C21.2982 137.606 20.0376 137.933 18.8384 138.587C17.6467 139.241 16.7224 140.13 16.0655 141.254C15.4085 142.37 15.08 143.552 15.08 144.799C15.08 146.077 15.42 147.293 16.0998 148.448C16.7797 149.594 17.7193 150.499 18.9186 151.161C20.118 151.815 21.4318 152.142 22.8603 152.142C24.5943 152.142 26.061 151.65 27.2604 150.664C28.4597 149.679 29.1702 148.401 29.3916 146.831H24.0176V145.191H31.2822C31.267 147.816 30.4918 149.902 28.9563 151.449C27.4284 152.989 25.3813 153.759 22.8146 153.759C19.6978 153.759 17.2304 152.689 15.4123 150.549C14.0144 148.902 13.3154 146.997 13.3154 144.834C13.3154 143.225 13.7165 141.728 14.5186 140.342C15.3207 138.957 16.4207 137.875 17.8186 137.098C19.2165 136.312 20.7978 135.92 22.5625 135.92C23.9909 135.92 25.3353 136.182 26.5959 136.705C27.8563 137.221 29.0861 138.052 30.2855 139.199ZM46.0707 136.347L53.9312 153.332H52.1207L49.4738 147.743H42.209L39.5737 153.332H37.6946L45.6581 136.347H46.0707ZM45.8644 139.95L42.9655 146.104H48.729L45.8644 139.95ZM61.3403 136.347H64.6976C66.5691 136.347 67.8371 136.424 68.5018 136.578C69.5025 136.809 70.316 137.305 70.9424 138.067C71.5688 138.822 71.8821 139.753 71.8821 140.862C71.8821 141.785 71.6644 142.597 71.2289 143.298C70.801 143.998 70.1862 144.529 69.384 144.891C68.582 145.245 67.4744 145.426 66.0611 145.434L72.1226 153.332H70.0372L63.9872 145.434H63.0246V153.332H61.3403V136.347ZM63.0246 138.01V143.783L65.9236 143.806C67.0465 143.806 67.8755 143.698 68.4101 143.483C68.9524 143.267 69.3727 142.925 69.6705 142.455C69.9762 141.978 70.1289 141.447 70.1289 140.862C70.1289 140.292 69.9762 139.776 69.6705 139.314C69.365 138.845 68.9639 138.51 68.4674 138.31C67.9709 138.11 67.1458 138.01 65.9924 138.01H63.0246ZM87.0828 136.347L94.9434 153.332H93.133L90.4861 147.743H83.2213L80.586 153.332H78.7066L86.6704 136.347H87.0828ZM86.8767 139.95L83.9775 146.104H89.7412L86.8767 139.95ZM107.772 136.347H109.468V147.812C109.468 149.575 109.331 150.803 109.056 151.496C108.788 152.181 108.338 152.731 107.704 153.147C107.069 153.555 106.302 153.759 105.4 153.759C104.721 153.759 104.048 153.624 103.384 153.355C102.727 153.093 101.997 152.627 101.195 151.958L102.089 150.607C102.967 151.23 103.697 151.669 104.277 151.923C104.659 152.092 105.034 152.177 105.4 152.177C105.882 152.177 106.317 152.031 106.707 151.738C107.104 151.446 107.379 151.057 107.532 150.572C107.692 150.087 107.772 149.148 107.772 147.755V136.347Z" fill="white"/>
<path d="M95.3634 56.8449C95.4 57.5133 95.4217 58.1863 95.4217 58.8635C95.4217 78.4117 79.7037 94.2603 60.3165 94.2603C40.9292 94.2603 25.2112 78.4117 25.2112 58.8635C25.2112 39.3152 40.9292 23.4668 60.3165 23.4668C62.3401 23.4668 64.3248 23.641 66.2556 23.974L45.2204 0.21875C19.3477 6.96929 0.241211 30.6658 0.241211 58.8635C0.241211 92.3177 27.1377 119.438 60.3165 119.438C85.8955 119.438 107.736 103.317 116.403 80.6045L95.3656 56.8471L95.3634 56.8449Z" fill="white"/>
<path d="M55.9766 80.8154L56.1576 56.9717H95.8096L116.404 80.6056L55.9766 80.8154Z" fill="#EFA63E"/>
</g>
<defs>
<clipPath id="clip0_149_1299">
<rect width="116.162" height="158.236" fill="white" transform="translate(0.241211 0.21875)"/>
</clipPath>
</defs>
</svg>
