<svg width="190" height="156" viewBox="0 0 190 156" fill="none" xmlns="http://www.w3.org/2000/svg">
<g filter="url(#filter0_d_149_1187)">
<g clip-path="url(#clip0_149_1187)">
<path d="M64.7257 121.249L63.781 122.14C63.1015 121.475 62.3558 120.972 61.5438 120.631C60.7374 120.284 59.9501 120.111 59.1824 120.111C58.2267 120.111 57.3151 120.345 56.4479 120.812C55.5862 121.279 54.9178 121.914 54.4427 122.717C53.9677 123.514 53.7301 124.358 53.7301 125.248C53.7301 126.161 53.976 127.029 54.4676 127.854C54.9592 128.673 55.6387 129.319 56.5059 129.791C57.3733 130.259 58.3233 130.492 59.3563 130.492C60.6102 130.492 61.6708 130.14 62.5381 129.437C63.4054 128.733 63.9192 127.821 64.0793 126.699H60.1932V125.528H65.4465C65.4354 127.403 64.8749 128.893 63.7645 129.998C62.6596 131.097 61.1793 131.647 59.3232 131.647C57.0694 131.647 55.2851 130.883 53.9704 129.354C52.9595 128.178 52.4541 126.818 52.4541 125.273C52.4541 124.124 52.7441 123.055 53.3241 122.065C53.9041 121.076 54.6996 120.304 55.7105 119.748C56.7214 119.188 57.8648 118.907 59.1409 118.907C60.1738 118.907 61.1461 119.094 62.0576 119.468C62.969 119.836 63.8584 120.43 64.7257 121.249ZM76.1405 119.213L81.8246 131.342H80.5154L78.6014 127.351H73.348L71.4423 131.342H70.0834L75.8421 119.213H76.1405ZM75.9913 121.785L73.895 126.18H78.0627L75.9913 121.785ZM87.1824 119.213H89.6102C90.9635 119.213 91.8804 119.267 92.3611 119.377C93.0847 119.542 93.673 119.897 94.1259 120.441C94.5789 120.98 94.8054 121.645 94.8054 122.437C94.8054 123.096 94.648 123.676 94.3331 124.176C94.0237 124.677 93.5791 125.056 92.999 125.314C92.4191 125.567 91.6181 125.696 90.5961 125.702L94.9794 131.342H93.4713L89.0964 125.702H88.4004V131.342H87.1824V119.213ZM88.4004 120.4V124.523L90.4967 124.539C91.3087 124.539 91.9081 124.462 92.2948 124.308C92.6869 124.154 92.9908 123.91 93.2062 123.574C93.4272 123.234 93.5377 122.854 93.5377 122.437C93.5377 122.03 93.4272 121.661 93.2062 121.332C92.9853 120.996 92.6953 120.757 92.3362 120.614C91.9772 120.471 91.3805 120.4 90.5465 120.4H88.4004ZM105.798 119.213L111.482 131.342H110.173L108.259 127.351H103.005L101.1 131.342H99.7405L105.499 119.213H105.798ZM105.649 121.785L103.552 126.18H107.72L105.649 121.785ZM120.759 119.213H121.985V127.4C121.985 128.659 121.886 129.536 121.687 130.031C121.493 130.52 121.168 130.913 120.709 131.21C120.251 131.501 119.695 131.647 119.044 131.647C118.552 131.647 118.066 131.55 117.585 131.358C117.11 131.171 116.583 130.839 116.003 130.36L116.649 129.396C117.284 129.841 117.812 130.154 118.232 130.336C118.508 130.457 118.778 130.517 119.044 130.517C119.392 130.517 119.706 130.413 119.988 130.204C120.275 129.995 120.474 129.717 120.585 129.371C120.701 129.025 120.759 128.354 120.759 127.359V119.213Z" fill="black"/>
<path d="M111.786 62.4381C111.812 62.9154 111.828 63.396 111.828 63.8797C111.828 77.8395 100.462 89.1573 86.4423 89.1573C72.4228 89.1573 61.0566 77.8395 61.0566 63.8797C61.0566 49.9197 72.4228 38.602 86.4423 38.602C87.9056 38.602 89.3408 38.7264 90.737 38.9642L75.5258 22C56.8165 26.8207 43 43.743 43 63.8797C43 87.7701 62.4497 107.137 86.4423 107.137C104.939 107.137 120.733 95.6248 127 79.4054L111.787 62.4397L111.786 62.4381Z" fill="black"/>
<path d="M83.3047 79.556L83.4356 62.5286H112.109L127.002 79.4061L83.3047 79.556Z" fill="#EFA63E"/>
</g>
</g>
<defs>
<filter id="filter0_d_149_1187" x="-4" y="0.5" width="198" height="163" filterUnits="userSpaceOnUse" color-interpolation-filters="sRGB">
<feFlood flood-opacity="0" result="BackgroundImageFix"/>
<feColorMatrix in="SourceAlpha" type="matrix" values="0 0 0 0 0 0 0 0 0 0 0 0 0 0 0 0 0 0 127 0" result="hardAlpha"/>
<feOffset dy="4"/>
<feGaussianBlur stdDeviation="2"/>
<feComposite in2="hardAlpha" operator="out"/>
<feColorMatrix type="matrix" values="0 0 0 0 0 0 0 0 0 0 0 0 0 0 0 0 0 0 0.25 0"/>
<feBlend mode="normal" in2="BackgroundImageFix" result="effect1_dropShadow_149_1187"/>
<feBlend mode="normal" in="SourceGraphic" in2="effect1_dropShadow_149_1187" result="shape"/>
</filter>
<clipPath id="clip0_149_1187">
<rect width="84" height="113" fill="white" transform="translate(43 22)"/>
</clipPath>
</defs>
</svg>
