<svg width="163" height="30" viewBox="0 0 163 30" fill="none" xmlns="http://www.w3.org/2000/svg">
<g clip-path="url(#clip0_149_1395)">
<path d="M30.4953 1.11775C29.1901 0.415831 27.5877 0.949896 26.9158 2.30795L17.328 22.7016C17.104 23.1403 16.911 23.4417 16.4013 23.4417C15.8916 23.4417 15.6946 23.1403 15.4745 22.7016L5.89062 2.30413C5.21874 0.946082 3.61627 0.415831 2.31113 1.11393C1.00599 1.81585 0.496285 3.48289 1.16816 4.83713L10.532 23.7125L11.5977 25.8564C12.5283 27.7371 14.3702 28.9044 16.4051 28.9044C18.4362 28.9044 20.2781 27.7371 21.2125 25.8564L22.2783 23.7125L31.6421 4.83713C32.3101 3.48671 31.7966 1.81966 30.4953 1.11775ZM157.708 0.80875C155.905 0.801121 154.326 1.91503 153.569 3.44474C151.132 8.35433 143.969 22.961 143.939 23.0106C143.884 23.1022 143.734 23.4417 143.425 23.4417C143.135 23.4417 142.965 23.1212 142.911 23.0068C140.537 18.1582 135.853 8.58322 133.393 3.62785C132.447 1.71666 130.86 0.804936 129.146 0.804936H129.142C126.504 0.804936 124.369 3.00605 124.369 6.00063V26.0777C124.369 27.2984 125.076 28.4276 126.161 28.7823C127.929 29.3545 129.447 27.8286 129.447 26.0243L129.076 6.45459C129.076 6.2524 129.323 6.17992 129.416 6.3554L139.197 25.9136C140.104 27.7867 141.68 28.9044 143.425 28.9044C145.166 28.9044 146.742 27.7867 147.653 25.9136L157.438 6.35922C157.534 6.17611 157.789 6.24859 157.789 6.46221L157.415 26.1425C157.415 27.6989 158.592 28.954 160.033 28.9044C161.423 28.8586 162.492 27.5387 162.492 26.0243V6.00826C162.496 2.98316 160.353 0.820195 157.708 0.80875ZM121.122 24.8264L110.345 3.82241C109.41 1.95318 107.572 0.793491 105.549 0.793491C104.278 0.793491 103.085 1.24745 102.139 2.04855C101.556 2.54073 101.082 3.14575 100.745 3.82622L90.0222 24.7311C90.0106 24.754 90.0029 24.7768 89.9913 24.7959L89.9758 24.8264C89.7395 25.2914 89.6345 25.8107 89.6719 26.3297C89.7093 26.8486 89.8876 27.348 90.1882 27.7752C90.2037 27.7981 90.2191 27.8172 90.2346 27.8401C90.25 27.863 90.2693 27.8859 90.2886 27.9088C90.4817 28.1567 90.7134 28.3703 90.9952 28.5382C91.9027 29.0799 92.9761 28.9998 93.787 28.4428C93.7986 28.4352 93.8102 28.4276 93.8179 28.4199C93.8758 28.378 93.9338 28.336 93.9878 28.2902C94.0341 28.2521 94.0766 28.2101 94.1191 28.1682C94.1384 28.1491 94.1577 28.1338 94.177 28.1148C94.3701 27.9202 94.5361 27.6951 94.6674 27.4357L95.0651 26.6041L97.3086 21.9577C97.3665 21.8395 97.4824 21.7632 97.6098 21.7632H107.518C108.843 21.7632 109.92 20.6417 109.92 19.2645C109.92 17.8836 108.843 16.7659 107.518 16.7659H100.12C99.9613 16.7659 99.861 16.598 99.9189 16.4492L100.471 15.2934L104.522 7.22898L104.537 7.19465L104.56 7.14887C104.626 7.01535 104.842 6.43933 105.236 6.32107C105.452 6.25622 105.68 6.26385 105.834 6.30962C106.244 6.4317 106.429 6.93143 106.607 7.29765L116.43 27.4472C116.909 28.378 117.828 28.912 118.778 28.912C119.079 28.912 119.384 28.8548 119.681 28.7442C119.701 28.7366 119.72 28.7327 119.735 28.7251C119.809 28.6946 119.878 28.6603 119.948 28.6221C119.975 28.6107 120.002 28.5992 120.025 28.584C120.04 28.5763 120.052 28.5649 120.068 28.5573C120.087 28.5458 120.11 28.5382 120.129 28.5229C120.16 28.5039 120.187 28.481 120.218 28.4619C120.245 28.4428 120.268 28.4276 120.291 28.4085C120.33 28.378 120.369 28.3513 120.407 28.3208C120.45 28.2864 120.492 28.2483 120.535 28.2101C120.546 28.1987 120.558 28.1911 120.566 28.1796C121.446 27.3327 121.705 25.9632 121.122 24.8264ZM37.7276 17.8988H55.8645C56.2082 17.895 59.0154 17.67 59.0154 14.5342C59.0192 6.81317 52.9762 0.530273 45.5508 0.530273C38.1292 0.530273 32.09 6.81317 32.09 14.538C32.09 14.7135 32.1016 15.2018 32.1016 15.2743C32.09 24.094 37.828 28.8396 45.4195 29.2783C45.7825 29.2973 46.1377 29.3088 46.4852 29.3088C49.4044 29.3088 51.868 28.5611 54.5439 26.8902C54.8181 26.7224 55.8877 26.0166 56.9804 24.6243C57.8492 23.518 57.9265 21.8586 56.9804 20.9964C55.6174 19.7528 54.2157 20.4242 52.9646 21.4771C50.9992 23.1289 49.4778 24.4183 45.5585 24.4221C41.8632 24.4221 38.3686 22.3392 37.5384 18.1773C37.5075 18.0324 37.5925 17.8988 37.7276 17.8988ZM37.5268 12.7299C38.0327 8.68622 40.8476 5.10035 45.543 5.10035C50.2385 5.10035 53.2117 8.61374 53.6828 12.7299C53.6983 12.8786 53.6017 13.0198 53.455 13.0198H37.7547C37.6079 13.0198 37.5075 12.8824 37.5268 12.7299ZM67.5644 17.8988H85.7013C86.045 17.895 88.8522 17.67 88.8522 14.5342C88.8522 6.81317 82.8091 0.530273 75.3876 0.530273C67.9622 0.530273 61.923 6.81317 61.923 14.538C61.923 14.7135 61.9346 15.2018 61.9346 15.2743C61.923 24.094 67.661 28.8396 75.2524 29.2783C75.6154 29.2973 75.9707 29.3088 76.3182 29.3088C79.2374 29.3088 81.7009 28.5611 84.3769 26.8902C84.651 26.7224 85.7206 26.0166 86.8134 24.6243C87.6822 23.518 87.7594 21.8586 86.8134 20.9964C85.4503 19.7528 84.0486 20.4242 82.7976 21.4771C80.8321 23.1289 79.3107 24.4183 75.3914 24.4221C71.6961 24.4221 68.2016 22.3392 67.3714 18.1773C67.3405 18.0324 67.4254 17.8988 67.5644 17.8988ZM67.3598 12.7299C67.8656 8.68622 70.6806 5.10035 75.376 5.10035C80.0714 5.10035 83.0447 8.61374 83.5158 12.7299C83.5312 12.8786 83.4347 13.0198 83.288 13.0198H67.5838C67.4409 13.0198 67.3405 12.8824 67.3598 12.7299Z" fill="#00B336"/>
</g>
<defs>
<clipPath id="clip0_149_1395">
<rect width="162" height="29" fill="white" transform="translate(0.496094 0.384766)"/>
</clipPath>
</defs>
</svg>
