<svg width="50" height="50" viewBox="0 0 50 50" fill="none" xmlns="http://www.w3.org/2000/svg">
<path d="M13.3058 15.5903C13.452 9.25637 18.6322 4.16675 25.0013 4.16675C31.3703 4.16675 36.5507 9.2565 36.6965 15.5905C39.9513 15.8473 42.7644 17.6735 44.3794 20.3126H40.3213C39.1328 19.2973 37.5903 18.6843 35.9046 18.6843H35.1373C34.2744 18.6843 33.5748 17.9848 33.5748 17.1218V15.8653C33.5748 11.1302 29.7363 7.29175 25.0013 7.29175C20.2662 7.29175 16.4277 11.1302 16.4277 15.8653V17.1218C16.4277 17.9848 15.7281 18.6843 14.8652 18.6843H14.0952C10.3376 18.6843 7.2915 21.7305 7.2915 25.488C7.2915 29.2457 10.3376 32.2917 14.0952 32.2917H20.3123V35.4167H14.0952C8.61173 35.4167 4.1665 30.9715 4.1665 25.488C4.1665 20.2703 8.1914 15.9925 13.3058 15.5903Z" fill="#F17A00"/>
<path d="M35.734 39.1346C35.124 39.7442 34.1352 39.744 33.5252 39.1344L28.9042 34.5163C28.294 33.9063 28.2936 32.9171 28.9036 32.3067C29.5136 31.6962 30.5029 31.6958 31.1133 32.3058L33.0673 34.2588V25C33.0673 24.1371 33.7669 23.4375 34.6298 23.4375C35.4927 23.4375 36.1923 24.1371 36.1923 25V34.259L38.1465 32.3058C38.7569 31.6958 39.7463 31.6962 40.3563 32.3067C40.9663 32.9171 40.9658 33.9063 40.3554 34.5163L35.734 39.1346Z" fill="#F17A00"/>
<path d="M26.2388 44.2708C26.2388 43.4078 26.9384 42.7083 27.8013 42.7083H41.4698C42.3327 42.7083 43.0323 43.4078 43.0323 44.2708C43.0323 45.1337 42.3327 45.8333 41.4698 45.8333H27.8013C26.9384 45.8333 26.2388 45.1337 26.2388 44.2708Z" fill="#F17A00"/>
</svg>
