<svg width="44" height="44" viewBox="0 0 44 44" fill="none" xmlns="http://www.w3.org/2000/svg">
<g clip-path="url(#clip0_410_6546)">
<path d="M32.1777 17.5584C32.0832 17.2811 31.9751 17.0145 31.8212 16.7403L31.5927 16.3411C32.1137 15.6144 32.4016 14.8298 32.4016 14.0086V9.34674C32.4016 8.71297 32.2264 8.07006 31.8776 7.43324L31.7648 7.23366C31.9111 6.89697 32.0086 6.55266 32.0086 6.18854C32.0086 2.41333 23.864 0.384033 16.1993 0.384033C8.53765 0.384033 0.390014 2.41333 0.390014 6.19006C0.390014 6.55266 0.487518 6.89849 0.63682 7.23518L0.524082 7.43324C0.175202 8.07006 0 8.71297 0 9.34674V14.0102C0 14.8252 0.290987 15.6174 0.808975 16.3426L0.577404 16.7418C0.193484 17.4075 0 18.0733 0 18.7406V23.404C0 24.2038 0.271182 24.9717 0.76784 25.6923L0.577404 26.0198C0.193484 26.6795 0 27.3514 0 28.0095V32.6806C0 36.8199 7.11471 40.0695 16.1993 40.0695C18.0595 40.0695 19.8298 39.9232 21.4752 39.6734C21.3685 39.5363 21.2939 39.3763 21.1948 39.227C23.5867 41.9144 27.0542 43.6162 30.9223 43.6162C38.1346 43.6162 44 37.7538 44 30.5477C44 23.7605 38.7957 18.1921 32.1777 17.5584ZM16.1993 2.1132C24.9213 2.1132 30.2733 4.48528 30.2733 6.19006C30.2733 7.88876 24.9198 10.2578 16.1993 10.2578C7.48035 10.2578 2.12527 7.88876 2.12527 6.19006C2.12527 4.48375 7.48035 2.1132 16.1993 2.1132ZM1.73526 10.1268C4.33281 12.3313 10.3613 13.4708 16.1993 13.4708C22.0373 13.4708 28.0658 12.3313 30.6664 10.1268V14.0102C30.6664 16.6854 24.7217 19.6699 16.1993 19.6699C7.67688 19.6699 1.73526 16.6854 1.73526 14.0102V10.1268ZM1.73526 19.0164C4.39832 21.4539 9.86766 23.0064 16.1993 23.0064C17.7045 23.0064 19.1305 22.8906 20.5108 22.72C19.4459 24.1307 18.6415 25.7395 18.2195 27.5113C18.1037 27.9928 18.0138 28.4849 17.9483 28.9876C17.3709 29.012 16.8087 29.0623 16.1993 29.0623C7.67688 29.0623 1.73526 26.0777 1.73526 23.4025V19.0164ZM16.1993 38.3373C7.67688 38.3373 1.73526 35.3589 1.73526 32.6806V28.2914C4.39832 30.7259 9.86766 32.2814 16.1993 32.2814C16.8026 32.2814 17.3861 32.2403 17.9726 32.2068C18.1722 33.7927 18.6536 35.2979 19.3743 36.6523C19.6424 37.1551 19.9547 37.6258 20.2853 38.0859C19.0025 38.2398 17.642 38.3373 16.1993 38.3373ZM30.9223 41.0156C27.9058 41.0156 25.1849 39.7237 23.2729 37.6685C22.8417 37.213 22.4548 36.7132 22.1089 36.1755C21.0638 34.5514 20.4544 32.6196 20.4544 30.5492C20.4544 30.5218 20.4605 30.4928 20.4605 30.4624C20.4636 29.853 20.523 29.2573 20.6296 28.6799C20.7241 28.1497 20.8612 27.6317 21.041 27.1259C22.3146 23.436 25.5962 20.6831 29.5832 20.1635C30.0235 20.1102 30.4729 20.0737 30.9223 20.0737C31.0564 20.0737 31.1874 20.0919 31.3154 20.0919C36.9066 20.3037 41.3964 24.9031 41.3964 30.5477C41.3964 36.3202 36.6979 41.0156 30.9223 41.0156Z" fill="#F17A00"/>
<path d="M33.1438 26.0549H32.6045V35.1502H33.1438V26.0549Z" fill="#F17A00"/>
<path d="M32.3973 24.8955H31.0322V33.9953H32.3973V24.8955Z" fill="#F17A00"/>
<path d="M30.8448 23.6875H30.1699V32.7904H30.8448V23.6875Z" fill="#F17A00"/>
<path d="M25.4971 34.303L26.7585 35.5675L29.4825 34.3762L26.6793 31.5806L25.4971 34.303Z" fill="#F17A00"/>
<path d="M24.5161 36.5487L26.4022 35.7275L25.3373 34.6626L24.5161 36.5487Z" fill="#F17A00"/>
<path d="M37.8846 24.2373H33.9312V26.0807H37.8846V24.2373Z" fill="#F17A00"/>
</g>
<defs>
<clipPath id="clip0_410_6546">
<rect width="44" height="44" fill="white"/>
</clipPath>
</defs>
</svg>
