<svg width="43" height="43" viewBox="0 0 43 43" fill="none" xmlns="http://www.w3.org/2000/svg">
<path d="M6.83205 42.4198C5.36232 42.0192 4.21426 41.0575 3.55582 39.6802C3.03428 38.5876 3.02672 38.4817 3.02588 32.628C3.02588 29.718 3.04939 27.248 3.07879 27.1397C3.10734 27.0305 4.27725 25.7077 5.67727 24.2002L8.22367 21.4581L8.22871 15.6212C8.23291 9.23419 8.23375 9.23251 8.73346 8.19614C9.23736 7.15054 10.0537 6.34177 11.1564 5.79503C11.5839 5.58339 12.5489 5.30036 12.8705 5.2928C12.905 5.29196 12.9335 5.00977 12.9335 4.66544C12.9335 4.3211 12.9755 3.83903 13.0267 3.59464C13.3492 2.04597 14.5754 0.817275 16.1157 0.497294C17.1991 0.272216 17.4166 0.319247 26.371 2.72036C30.9675 3.95241 34.9727 5.03833 35.2734 5.13323C37.3688 5.79503 39.0451 7.52595 39.738 9.74229L39.9345 10.3722V24.8175V39.2628L39.7388 39.8045C39.2122 41.265 38.1028 42.1594 36.5138 42.4063C36.1972 42.455 30.2897 42.5071 21.7099 42.5357C7.72732 42.5835 7.41994 42.581 6.83205 42.4198ZM21.9551 40.4806C24.9996 40.4806 27.4729 40.4629 27.4519 40.4419C27.4309 40.4201 25.1474 39.7953 22.3776 39.0528C16.7859 37.5537 16.4785 37.4429 15.3749 36.5132C14.6334 35.8883 14.0043 35.0879 13.5794 34.2279C12.926 32.9069 12.9789 34.1095 12.9537 19.9993L12.931 7.37058L12.6614 7.42433C11.8165 7.59313 10.8305 8.43718 10.4904 9.28122L10.288 9.78429L10.246 16.0571L10.204 22.329L9.98398 22.5659C9.86389 22.6952 8.71918 23.9315 7.44178 25.3122L5.11961 27.8225L5.14229 33.0404L5.16496 38.2584L5.44127 38.8194C5.86959 39.6903 6.68088 40.3101 7.61982 40.4839C7.83986 40.5251 9.91008 40.541 12.2196 40.5192C14.5292 40.4982 18.9098 40.4806 21.9551 40.4806ZM36.8749 40.1656C37.2168 39.9918 37.3931 39.8314 37.5829 39.5215L37.8349 39.1083L37.8576 24.9922C37.8727 15.507 37.8517 10.7417 37.7937 10.4679C37.5577 9.35849 36.471 7.97274 35.3993 7.41509C35.0348 7.22528 33.115 6.67602 28.4706 5.43138C24.9366 4.48487 21.0254 3.43423 19.7782 3.09745C17.2318 2.40962 16.6952 2.34747 16.0754 2.66829C15.6336 2.89589 15.2347 3.35192 15.1221 3.75589C15.0625 3.97173 15.0348 8.59087 15.0356 18.1827L15.0365 32.2921L15.233 32.8472C15.6227 33.9525 16.5768 35.035 17.5921 35.5263C18.0498 35.7472 20.8801 36.5241 32.4599 39.6088C33.938 40.0027 35.1852 40.3378 35.2314 40.3538C35.2776 40.3697 35.5639 40.3865 35.8671 40.3899C36.3114 40.3949 36.5079 40.3512 36.8749 40.1656ZM5.12297 21.5211C4.51828 21.2188 4.53508 21.3909 4.53508 15.6817C4.53508 10.085 4.53088 10.1311 5.02807 9.87415C5.35309 9.70618 5.81668 9.70618 6.1417 9.87415C6.63889 10.1311 6.63469 10.0808 6.63469 15.7237C6.63385 20.7375 6.62965 20.8778 6.4642 21.1482C6.29959 21.4186 5.86875 21.6681 5.56641 21.6681C5.4841 21.6681 5.28422 21.6017 5.12297 21.5211ZM6.37266 37.4672C6.10643 37.2001 6.0468 37.0817 6.04764 36.8163C6.04764 36.6375 6.11398 36.3897 6.19461 36.2646C6.27439 36.1403 7.00254 35.5154 7.81047 34.8763C10.456 32.7842 10.377 32.838 10.8054 32.838C11.1253 32.838 11.2312 32.8825 11.4655 33.1168C11.8308 33.4822 11.9173 33.9113 11.6998 34.2825C11.5553 34.5303 8.62932 36.9348 7.7332 37.5411C7.18647 37.9115 6.79594 37.8905 6.37266 37.4672ZM6.37266 33.6879C6.10643 33.4208 6.0468 33.3024 6.04764 33.037C6.04764 32.8582 6.11398 32.6096 6.19461 32.4844C6.31387 32.2988 9.48428 29.7297 10.2435 29.2023C10.3628 29.12 10.6088 29.0587 10.8188 29.0587C11.536 29.0587 12.05 29.9027 11.6998 30.5058C11.5537 30.7552 8.6394 33.1479 7.7332 33.7618C7.18647 34.1322 6.79594 34.1112 6.37266 33.6879ZM6.37266 29.9086C6.10643 29.6416 6.0468 29.5231 6.04764 29.2577C6.04764 29.0789 6.11398 28.8303 6.19461 28.7051C6.31303 28.5204 9.4574 25.9731 10.2435 25.4247C10.3636 25.3407 10.6071 25.2794 10.8188 25.2794C11.536 25.2794 12.05 26.1234 11.6998 26.7265C11.5545 26.9759 8.63772 29.3711 7.7332 29.9834C7.18647 30.3529 6.79594 30.3319 6.37266 29.9086Z" fill="#F17A00"/>
</svg>
