<svg width="45" height="45" viewBox="0 0 45 45" fill="none" xmlns="http://www.w3.org/2000/svg">
<path d="M8.29697 40.7724C8.13525 40.5923 8.1291 40.2767 8.10537 30.4673C8.09219 24.9012 8.10185 20.2614 8.12646 20.1586C8.15459 20.0452 9.14072 19.1944 10.5988 18.0272L13.0255 16.084H22.5045H31.9844L34.4031 18.0158C35.9518 19.2524 36.8395 20.0197 36.8702 20.1472C36.8975 20.257 36.908 24.9012 36.8948 30.4673C36.8711 40.2767 36.8649 40.5923 36.7032 40.7724L36.5354 40.957H22.5001H8.46484L8.29697 40.7724ZM35.6837 37.0459V34.2773H22.5001H9.3165V37.0459V39.8144H22.5001H35.6837V37.0459ZM35.6837 30.3662V27.5976H22.5001H9.3165V30.3662V33.1348H22.5001H35.6837V30.3662ZM35.6837 23.5986V20.8301H22.5001H9.3165V23.5986V26.3672H22.5001H35.6837V23.5986ZM33.1129 18.457L31.5739 17.2265H22.5001H13.4263L11.8873 18.457L10.3492 19.6875H22.5001H34.651L33.1129 18.457ZM6.03203 23.988C4.94218 22.9702 4.28652 21.8443 3.94111 20.3994C3.69853 19.3869 3.74687 17.673 4.04306 16.7431C4.80859 14.3402 6.65605 12.5842 9.14072 11.8995C9.89219 11.693 11.7792 11.6806 12.4858 11.8784L12.9745 12.0155L13.174 11.25C13.4157 10.3227 14.06 8.96395 14.6559 8.12635C16.1676 6.00028 18.5723 4.52459 21.1817 4.12293C22.2074 3.96473 24.0303 4.06756 25.0911 4.34266C27.3051 4.91747 29.4681 6.45116 30.7205 8.33553L31.116 8.92967L31.9281 8.72401C33.3572 8.3619 35.1651 8.46649 36.451 8.98592C38.8284 9.94569 40.4913 11.8643 41.0529 14.2972C41.2138 14.9941 41.2366 15.3017 41.2015 16.2844C41.1654 17.2925 41.1224 17.557 40.878 18.2812C40.4271 19.6189 39.5781 20.8969 38.6553 21.6264C38.1675 22.0122 37.8792 22.0588 37.6173 21.7969C37.3105 21.4901 37.3993 21.2915 38.2281 20.4249C39.5113 19.0828 40.0729 17.7205 40.0765 15.9442C40.0817 13.5228 38.7159 11.3484 36.5187 10.2806C35.4895 9.78045 34.8004 9.64334 33.5304 9.68817C32.6269 9.71981 32.3588 9.76639 31.6601 10.009C31.1942 10.1716 30.7697 10.27 30.6713 10.2384C30.5764 10.2085 30.3399 9.91141 30.1448 9.57743C28.9688 7.56297 27.1662 6.14969 24.9171 5.47733C24.1929 5.26112 24.0004 5.2409 22.6319 5.24178C20.8609 5.24266 20.2483 5.37538 18.8526 6.05829C17.0852 6.92225 15.751 8.23622 14.8756 9.97557C14.5565 10.611 14.1892 11.7457 14.1083 12.3486C13.9729 13.3602 13.769 13.4965 12.8427 13.1941C11.1534 12.6431 9.7542 12.7362 8.17744 13.5061C6.79668 14.1811 5.7332 15.394 5.21201 16.8899C4.88593 17.8251 4.8332 19.2085 5.08457 20.2043C5.40361 21.4655 5.89931 22.2829 6.9584 23.2928C7.60439 23.908 7.68613 24.1304 7.38291 24.4336C7.05332 24.7632 6.75888 24.6665 6.03203 23.988ZM24.1261 38.6552C24.0294 38.5998 23.9213 38.5119 23.8861 38.46C23.8501 38.4073 23.8202 37.7675 23.8202 37.0371C23.8185 35.3021 23.7358 35.3865 25.4752 35.347C26.253 35.3294 26.892 35.3566 27.0897 35.4155C27.5406 35.55 27.625 35.8734 27.5854 37.3025C27.5433 38.8151 27.6118 38.7606 25.7204 38.7571C24.8301 38.7554 24.2368 38.7176 24.1261 38.6552ZM26.3673 37.0898V36.5625H25.6642H24.961V37.0898V37.6172H25.6642H26.3673V37.0898ZM30.2345 38.7017C29.9233 38.584 29.8829 38.3924 29.8829 37.0353C29.8829 35.5526 29.9102 35.4726 30.4419 35.3724C30.601 35.3426 31.2874 35.3311 31.9677 35.347C33.6499 35.3865 33.5743 35.3074 33.5743 37.0424C33.5743 38.0531 33.5444 38.4161 33.4495 38.5453C33.3361 38.7009 33.1973 38.7176 31.8455 38.7334C31.0316 38.7439 30.3074 38.729 30.2345 38.7017ZM32.4317 37.0898V36.5625H31.7286H31.0255V37.0898V37.6172H31.7286H32.4317V37.0898ZM12.129 38.4961C11.8935 38.2605 11.9075 38.0065 12.1686 37.7446L12.3848 37.5293H16.7274C20.9875 37.5293 21.0745 37.5328 21.3021 37.7112C21.5641 37.9178 21.5975 38.1893 21.3962 38.4767L21.26 38.6719H16.7819C12.4217 38.6719 12.3004 38.6675 12.129 38.4961ZM12.1686 36.3472C12.0499 36.2285 11.9532 36.087 11.9532 36.0334C11.9532 35.898 12.1352 35.5649 12.252 35.4876C12.3048 35.4515 14.3359 35.4217 16.7652 35.4217C21.0657 35.4199 21.1861 35.4243 21.3575 35.5957C21.5904 35.8286 21.5799 36.1362 21.3303 36.3718C21.1264 36.5625 21.122 36.5625 16.7556 36.5625H12.3848L12.1686 36.3472ZM12.1352 31.761C12.035 31.6336 11.9532 31.4806 11.9532 31.4209C11.9532 31.3611 12.035 31.2082 12.1352 31.0807L12.318 30.8496H16.7494C21.0648 30.8496 21.1861 30.854 21.3575 31.0254C21.4542 31.1221 21.5333 31.2996 21.5333 31.4209C21.5333 31.5422 21.4542 31.7197 21.3575 31.8164C21.1861 31.9878 21.0648 31.9922 16.7494 31.9922H12.318L12.1352 31.761ZM23.9635 31.8313C23.8422 31.6969 23.8185 31.4543 23.8185 30.3372C23.8185 28.5486 23.706 28.6523 25.6545 28.6523C27.6584 28.6523 27.5538 28.5609 27.5538 30.3047C27.5538 32.1003 27.6751 31.9922 25.6642 31.9922C24.2693 31.9922 24.0944 31.9755 23.9635 31.8313ZM26.3673 30.3223V29.7949H25.6642H24.961V30.3223V30.8496H25.6642H26.3673V30.3223ZM30.0279 31.8313C29.9058 31.696 29.8829 31.4516 29.8829 30.2985C29.8829 28.5398 29.7555 28.6523 31.7479 28.6523C33.6868 28.6523 33.5743 28.5477 33.5743 30.353C33.5743 31.5474 33.5559 31.718 33.4135 31.8472C33.2772 31.9702 33.0224 31.9922 31.7137 31.9922C30.3338 31.9922 30.1589 31.9755 30.0279 31.8313ZM32.4317 30.3223V29.7949H31.7286H31.0255V30.3223V30.8496H31.7286H32.4317V30.3223ZM12.3944 29.8055C12.274 29.7712 12.1176 29.6402 12.0464 29.5137C11.8811 29.2183 12.0235 28.8641 12.3593 28.7358C12.5078 28.6796 14.1584 28.6567 16.8953 28.6717L21.1976 28.6963L21.3654 28.9037C21.4577 29.018 21.5333 29.1814 21.5333 29.2676C21.5333 29.3537 21.4577 29.5172 21.3654 29.6314L21.1976 29.8389L16.905 29.8529C14.5442 29.8608 12.514 29.8397 12.3944 29.8055ZM12.3065 25.1991C11.9901 25.04 11.8864 24.6814 12.0728 24.3967L12.2213 24.1699H16.7406H21.26L21.3962 24.365C21.5975 24.6524 21.5641 24.924 21.3021 25.1306C21.0745 25.309 20.9875 25.3125 16.7978 25.3116C13.544 25.3098 12.4727 25.2835 12.3065 25.1991ZM23.9942 25.1367C23.8334 24.9759 23.8185 24.844 23.8185 23.6118C23.8185 22.4174 23.8369 22.2469 23.9793 22.1177C24.1155 21.9946 24.3704 21.9726 25.6791 21.9726C27.6725 21.9726 27.5538 21.8654 27.5538 23.6601C27.5538 25.4039 27.6584 25.3125 25.6545 25.3125C24.2869 25.3125 24.156 25.2984 23.9942 25.1367ZM26.3673 23.6426V23.1152H25.6642H24.961V23.6426V24.1699H25.6642H26.3673V23.6426ZM30.078 25.1754C29.8908 25.0444 29.8829 24.9855 29.8829 23.6514C29.8829 22.4182 29.9005 22.2477 30.0437 22.1177C30.18 21.9946 30.4349 21.9726 31.7436 21.9726C33.1234 21.9726 33.2983 21.9893 33.4293 22.1335C33.5506 22.268 33.5743 22.5105 33.5743 23.6276C33.5743 25.4153 33.6859 25.3125 31.7479 25.3125C30.5562 25.3125 30.2362 25.2861 30.078 25.1754ZM32.4317 23.6426V23.1152H31.7286H31.0255V23.6426V24.1699H31.7286H32.4317V23.6426ZM12.1352 22.8841C12.035 22.7566 11.9532 22.6037 11.9532 22.5439C11.9532 22.4842 12.035 22.3312 12.1352 22.2038L12.318 21.9726H16.7494C21.0648 21.9726 21.1861 21.977 21.3575 22.1484C21.4542 22.2451 21.5333 22.4226 21.5333 22.5439C21.5333 22.6652 21.4542 22.8428 21.3575 22.9394C21.1861 23.1108 21.0648 23.1152 16.7494 23.1152H12.318L12.1352 22.8841Z" fill="#F17A00"/>
</svg>
