<svg width="44" height="44" viewBox="0 0 44 44" fill="none" xmlns="http://www.w3.org/2000/svg">
<g clip-path="url(#clip0_412_1074)">
<path d="M37.5563 6.44368C33.4012 2.28834 27.8764 0 22 0C16.1236 0 10.5988 2.28834 6.44368 6.44368C2.28834 10.5988 0 16.1236 0 22C0 27.8764 2.28834 33.4012 6.44368 37.5563C10.5988 41.7117 16.1236 44 22 44C27.8764 44 33.4012 41.7117 37.5563 37.5563C41.7117 33.4012 44 27.8764 44 22C44 16.1236 41.7117 10.5988 37.5563 6.44368ZM42.5825 21.2979H38.367C38.1979 17.3094 36.5966 13.6855 34.0645 10.9285L37.0436 7.9493C40.3362 11.4723 42.409 16.1482 42.5825 21.2979ZM22 1.40422C27.4263 1.40422 32.3681 3.5145 36.0507 6.95638L33.0715 9.93558C30.1536 7.25562 26.2647 5.61705 22 5.61705C17.7353 5.61705 13.8464 7.25562 10.9285 9.93558L7.9493 6.95638C11.6319 3.51459 16.5737 1.40422 22 1.40422ZM6.95638 7.9493L9.93558 10.9285C7.40352 13.6855 5.80207 17.3094 5.63303 21.2979H1.41754C1.59105 16.1482 3.66369 11.4723 6.95638 7.9493ZM12.4054 33.4924C12.108 33.2438 11.6652 33.2832 11.4164 33.5806C11.1677 33.878 11.2071 34.3209 11.5045 34.5696C14.2648 36.8779 17.7186 38.2128 21.2979 38.3676V42.5824C10.4985 42.2188 1.78123 33.5015 1.41754 22.7021H5.63234C5.7872 26.2815 7.12198 29.7352 9.43035 32.4955C9.67897 32.793 10.1218 32.8324 10.4193 32.5836C10.7168 32.3348 10.7563 31.892 10.5075 31.5946C8.25945 28.9065 7.02127 25.499 7.02127 22C7.02127 13.7407 13.7407 7.02127 22 7.02127C30.2593 7.02127 36.9787 13.7407 36.9787 22C36.9787 30.2593 30.2593 36.9787 22 36.9787C18.501 36.9787 15.0935 35.7405 12.4054 33.4924ZM22.7021 42.5825V38.367C28.9679 38.1013 34.3335 34.3002 36.8514 28.9116L40.7468 30.5252C37.5906 37.4383 30.7201 42.3124 22.7021 42.5825ZM41.2853 29.2283L37.3914 27.6153C37.9562 26.0721 38.2941 24.4209 38.3669 22.7021H42.5824C42.5054 24.991 42.0533 27.1861 41.2853 29.2283Z" fill="#F17A00"/>
<path d="M22.0001 9.36157C15.0314 9.36157 9.36182 15.0311 9.36182 21.9999C9.36182 28.9686 15.0314 34.6382 22.0001 34.6382C28.9689 34.6382 34.6384 28.9686 34.6384 21.9999C34.6384 15.0311 28.9689 9.36157 22.0001 9.36157ZM33.2116 21.2978H26.6737C26.6382 19.4298 26.4611 17.6375 26.1586 16.0285C27.4907 15.5633 28.7436 14.8747 29.8621 13.9839C31.7853 15.8704 33.0345 18.4411 33.2116 21.2978ZM28.7785 13.0476C27.8839 13.7263 26.8984 14.2629 25.8561 14.6449C25.7412 14.1895 25.6154 13.7534 25.4782 13.3417C25.1686 12.4129 24.8163 11.6405 24.4274 11.0308C26.0332 11.3858 27.5107 12.0852 28.7785 13.0476ZM18.7312 21.2978C18.7652 19.5652 18.9247 17.907 19.1964 16.4182C20.1098 16.6265 21.0497 16.7339 22.0001 16.7339C22.9506 16.7339 23.8906 16.6264 24.8039 16.4182C25.0757 17.9071 25.2352 19.5652 25.2691 21.2978H18.7312ZM25.269 22.702C25.2351 24.4346 25.0756 26.0927 24.8038 27.5815C23.8904 27.3733 22.9505 27.2659 22 27.2659C21.0496 27.2659 20.1097 27.3734 19.1963 27.5815C18.9246 26.0927 18.7651 24.4346 18.7312 22.702H25.269ZM22.0001 10.7659C22.5509 10.7659 23.4039 11.5592 24.1461 13.7858C24.2782 14.1825 24.3994 14.6038 24.5096 15.0452C23.6922 15.2329 22.8509 15.3298 22.0001 15.3298C21.1493 15.3298 20.3079 15.2331 19.4907 15.0452C19.6008 14.6038 19.722 14.1824 19.8542 13.7858C20.5963 11.5592 21.4494 10.7659 22.0001 10.7659ZM19.5738 11.0305C19.1845 11.6404 18.8318 12.4121 18.5219 13.3416C18.3847 13.7533 18.259 14.1895 18.144 14.6448C17.1017 14.2628 16.1162 13.7263 15.2216 13.0475C16.4897 12.085 17.9678 11.3855 19.5738 11.0305ZM14.1381 13.9838C15.2566 14.8745 16.5096 15.5632 17.8416 16.0284C17.539 17.6374 17.3619 19.4298 17.3265 21.2978H10.7886C10.9658 18.4411 12.2149 15.8704 14.1381 13.9838ZM10.7886 22.702H17.3266C17.3621 24.57 17.5391 26.3622 17.8417 27.9713C16.5097 28.4366 15.2566 29.1251 14.1381 30.016C12.2149 28.1294 10.9657 25.5586 10.7886 22.702ZM15.2216 30.9522C16.1162 30.2734 17.1018 29.7368 18.1441 29.3548C18.2591 29.8102 18.3848 30.2464 18.5221 30.6581C18.8319 31.5874 19.1846 32.3593 19.5738 32.9692C17.9677 32.6143 16.4897 31.9148 15.2216 30.9522ZM22.0001 33.2339C21.4494 33.2339 20.5963 32.4406 19.8542 30.214C19.722 29.8173 19.6008 29.3959 19.4907 28.9545C20.308 28.7668 21.1493 28.67 22.0001 28.67C22.8509 28.67 23.6923 28.7667 24.5096 28.9545C24.3994 29.396 24.2782 29.8174 24.1461 30.214C23.4039 32.4406 22.5509 33.2339 22.0001 33.2339ZM24.4265 32.9693C24.8158 32.3594 25.1685 31.5877 25.4784 30.6582C25.6155 30.2464 25.7412 29.8103 25.8562 29.3549C26.8986 29.7369 27.8841 30.2735 28.7787 30.9523C27.5105 31.9148 26.0326 32.6143 24.4265 32.9693ZM29.8622 30.016C28.7436 29.1252 27.4907 28.4366 26.1586 27.9713C26.4612 26.3623 26.6383 24.57 26.6738 22.7021H33.2117C33.0345 25.5586 31.7853 28.1294 29.8622 30.016Z" fill="#F17A00"/>
</g>
<defs>
<clipPath id="clip0_412_1074">
<rect width="44" height="44" fill="white"/>
</clipPath>
</defs>
</svg>
