<svg width="48" height="48" viewBox="0 0 48 48" fill="none" xmlns="http://www.w3.org/2000/svg">
<path fill-rule="evenodd" clip-rule="evenodd" d="M11.1598 6.67871C8.77398 6.67871 6.83984 8.61282 6.83984 10.9987V35.9587C6.83984 38.3447 8.77398 40.2787 11.1598 40.2787H36.1197C38.5054 40.2787 40.4397 38.3447 40.4397 35.9587V16.9779C40.4397 15.831 39.9837 14.7312 39.1721 13.9209L33.1836 7.94165C32.3735 7.13293 31.2757 6.67871 30.1312 6.67871H11.1598ZM11.1598 9.55871C10.3646 9.55871 9.71984 10.2034 9.71984 10.9987V35.9587C9.71984 36.7539 10.3646 37.3987 11.1598 37.3987H14.5199L14.5198 30.1987C14.5198 27.8129 16.454 25.8787 18.8398 25.8787H28.4398C30.8256 25.8787 32.7598 27.8129 32.7598 30.1987V37.3987H36.1197C36.9149 37.3987 37.5597 36.7539 37.5597 35.9587V16.9779C37.5597 16.5956 37.4076 16.229 37.1371 15.9589L31.1486 9.97969C30.8786 9.7101 30.5127 9.55871 30.1312 9.55871H26.9998V10.9987C26.9998 13.3846 25.0656 15.3187 22.6798 15.3187H16.9198C14.534 15.3187 12.5998 13.3846 12.5998 10.9987V9.55871H11.1598ZM15.4798 9.55871V10.9987C15.4798 11.794 16.1246 12.4387 16.9198 12.4387H22.6798C23.4751 12.4387 24.1198 11.794 24.1198 10.9987V9.55871H15.4798ZM29.8798 37.3987H17.3999L17.3998 30.1987C17.3998 29.4034 18.0446 28.7587 18.8398 28.7587H28.4398C29.2351 28.7587 29.8798 29.4034 29.8798 30.1987V37.3987Z" fill="#F17A00"/>
</svg>
