<svg width="49" height="49" viewBox="0 0 49 49" fill="none" xmlns="http://www.w3.org/2000/svg">
<g clip-path="url(#clip0_407_6498)">
<mask id="mask0_407_6498" style="mask-type:luminance" maskUnits="userSpaceOnUse" x="0" y="0" width="49" height="49">
<path d="M49 0H0V49H49V0Z" fill="white"/>
</mask>
<g mask="url(#mask0_407_6498)">
<path d="M21.7664 28.0812V5.07748C21.7664 1.981 16.2914 0.36084 10.8832 0.36084C5.47508 0.36084 0 1.981 0 5.07748V28.0812C0 31.1776 5.47497 32.7977 10.8832 32.7977C16.2913 32.7977 21.7664 31.1776 21.7664 28.0812ZM4.31937 3.50632C6.05571 2.86127 8.38666 2.50612 10.8831 2.50612C13.379 2.50612 15.7101 2.86127 17.4465 3.50632C19.1665 4.14524 19.6209 4.81333 19.6209 5.07748C19.6209 5.34161 19.1664 6.00971 17.4465 6.64863C15.7101 7.29367 13.3791 7.64882 10.8831 7.64882C8.38666 7.64882 6.05562 7.29367 4.31937 6.64863C2.59967 6.00981 2.14528 5.34161 2.14528 5.07748C2.14528 4.81333 2.59967 4.14513 4.31937 3.50632ZM2.14528 8.00456C4.23458 9.18668 7.57126 9.7941 10.8831 9.7941C14.1949 9.7941 17.5317 9.18668 19.6209 8.00456V10.9637C19.6209 11.2277 19.1665 11.8959 17.4466 12.5349C15.7102 13.1799 13.3792 13.535 10.8832 13.535C8.38676 13.535 6.05571 13.1799 4.31947 12.5349C2.59967 11.8961 2.14528 11.2279 2.14528 10.9637V8.00456ZM2.14528 13.8905C4.23458 15.0725 7.57117 15.6803 10.8831 15.6803C14.1951 15.6803 17.5317 15.0725 19.6209 13.8904V16.85C19.6209 17.114 19.1664 17.7823 17.4465 18.4212C15.7101 19.0662 13.3791 19.4214 10.8831 19.4214C8.38666 19.4214 6.05562 19.0662 4.31937 18.4212C2.59967 17.7825 2.14528 17.1142 2.14528 16.8501V13.8905ZM2.14528 19.7767C4.23458 20.9589 7.57117 21.5667 10.8831 21.5667C14.1951 21.5667 17.5317 20.9589 19.6209 19.7767V22.7364C19.6209 23.0006 19.1664 23.6686 17.4465 24.3074C15.7101 24.9524 13.3791 25.3076 10.8831 25.3076C8.38666 25.3076 6.05562 24.9526 4.31937 24.3074C2.59967 23.6686 2.14528 23.0006 2.14528 22.7364V19.7767ZM2.14528 28.0812V25.6631C4.23458 26.8452 7.57117 27.453 10.8831 27.453C14.1951 27.453 17.5317 26.8452 19.6209 25.6631V28.0812C19.6209 28.3452 19.1664 29.0135 17.4465 29.6523C15.7101 30.2973 13.3791 30.6525 10.8831 30.6525C8.38666 30.6525 6.05562 30.2973 4.31937 29.6523C2.59967 29.0135 2.14528 28.3452 2.14528 28.0812Z" fill="#F17A00"/>
<path d="M46.8691 36.4494C45.5484 35.1533 43.8074 34.4322 41.9599 34.4138C40.5244 31.5943 37.6489 29.8115 34.4368 29.8115C30.0756 29.8115 26.4757 33.1337 26.0355 37.3806C25.4677 37.2346 24.8789 37.1695 24.284 37.1889C20.9996 37.2969 18.3731 39.9553 18.3046 43.2414C18.303 43.3153 18.3028 43.3892 18.3039 43.4621C18.3446 46.3157 20.7327 48.6373 23.6272 48.6373H41.778C43.7202 48.6373 45.6135 47.8423 46.9724 46.456C48.3171 45.0842 49.0367 43.282 48.9988 41.3816C48.9614 39.5119 48.205 37.7603 46.8691 36.4494ZM45.4401 44.9539C44.4681 45.9456 43.1676 46.4917 41.778 46.4917H23.6272C21.8987 46.4917 20.473 45.1189 20.4489 43.4309C20.4481 43.3827 20.4483 43.3341 20.4493 43.2855C20.4934 41.1754 22.2452 39.4023 24.3542 39.3328C24.3993 39.3314 24.4443 39.3306 24.4892 39.3306C25.2168 39.3306 25.9269 39.5243 26.5506 39.8943C26.8985 40.1005 27.333 40.0938 27.6742 39.8763C28.0155 39.6591 28.2054 39.2683 28.1654 38.8657C28.1456 38.667 28.1356 38.4627 28.1356 38.2581C28.1356 34.7836 30.9625 31.9569 34.437 31.9569C37.0271 31.9569 39.3239 33.5108 40.2878 35.9155C40.4654 36.3585 40.9146 36.6309 41.3897 36.5837C44.2927 36.2957 46.7968 38.578 46.8538 41.4243C46.8801 42.7434 46.3781 43.997 45.4401 44.9539Z" fill="#F17A00"/>
<path d="M15.7475 43.4394C13.0013 41.5482 10.922 38.7697 9.89249 35.6158C9.70874 35.0527 9.1033 34.7452 8.5399 34.9289C7.97679 35.1127 7.6692 35.7182 7.85305 36.2813C9.0277 39.8802 11.3992 43.0497 14.5308 45.2063C14.7166 45.3341 14.9285 45.3955 15.1383 45.3955C15.4792 45.3955 15.8146 45.2332 16.0227 44.9311C16.3587 44.4433 16.2354 43.7755 15.7475 43.4394Z" fill="#F17A00"/>
<path d="M24.9455 15.6648C30.871 15.8832 36.1706 19.5667 38.4468 25.0488C38.6181 25.4614 39.0173 25.7103 39.4379 25.7103C39.5749 25.7103 39.7143 25.6839 39.8489 25.628C40.3958 25.4007 40.6553 24.7731 40.4279 24.2262C37.8315 17.9722 31.7853 13.77 25.0241 13.5209C24.4357 13.4969 23.9347 13.9612 23.9128 14.5533C23.8912 15.1455 24.3534 15.6431 24.9455 15.6648Z" fill="#F17A00"/>
<path d="M40.2627 27.0615C39.6787 27.1607 39.2857 27.7146 39.385 28.2987C39.3933 28.3481 39.4015 28.3975 39.4095 28.4472C39.4946 28.9743 39.9501 29.3492 40.4672 29.3492C40.5238 29.3492 40.5814 29.3447 40.6391 29.3353C41.2241 29.2412 41.6218 28.6903 41.5273 28.1056C41.5183 28.05 41.5091 27.9945 41.4997 27.9392C41.4007 27.3551 40.8464 26.9622 40.2627 27.0615Z" fill="#F17A00"/>
</g>
</g>
<defs>
<clipPath id="clip0_407_6498">
<rect width="49" height="49" fill="white"/>
</clipPath>
</defs>
</svg>
