<svg width="53" height="53" viewBox="0 0 53 53" fill="none" xmlns="http://www.w3.org/2000/svg">
<path fill-rule="evenodd" clip-rule="evenodd" d="M2.73654 7.78208C1.77954 8.6201 1 9.76282 1 11.1771V40.9896C1 42.4038 1.77954 43.5466 2.73654 44.3847C3.69682 45.2254 4.99086 45.9073 6.44694 46.4466C9.37195 47.5298 13.3022 48.1667 17.5625 48.1667C21.8228 48.1667 25.753 47.5298 28.6781 46.4466C30.1341 45.9073 31.4282 45.2254 32.3884 44.3847C33.3455 43.5466 34.125 42.4038 34.125 40.9896V11.1771C34.125 9.76282 33.3455 8.6201 32.3884 7.78208C31.4282 6.94121 30.1341 6.25941 28.6781 5.72011C25.753 4.63679 21.8228 4 17.5625 4C13.3022 4 9.37195 4.63679 6.44694 5.72011C4.99086 6.25941 3.69682 6.94121 2.73654 7.78208ZM4.91878 10.2742C4.36718 10.7572 4.3125 11.0668 4.3125 11.1771C4.3125 11.2873 4.36718 11.597 4.91878 12.08C5.4671 12.5601 6.35603 13.068 7.59742 13.5278C10.0674 14.4426 13.5904 15.0417 17.5625 15.0417C21.5346 15.0417 25.0576 14.4426 27.5276 13.5278C28.7689 13.068 29.658 12.5601 30.2063 12.08C30.7577 11.597 30.8125 11.2873 30.8125 11.1771C30.8125 11.0668 30.7577 10.7572 30.2063 10.2742C29.658 9.79403 28.7689 9.2862 27.5276 8.8264C25.0576 7.9116 21.5346 7.3125 17.5625 7.3125C13.5904 7.3125 10.0674 7.9116 7.59742 8.8264C6.35603 9.2862 5.4671 9.79403 4.91878 10.2742ZM30.8125 21.1146V15.6645C30.1621 16.0285 29.4424 16.3509 28.6781 16.6341C25.753 17.7174 21.8228 18.3542 17.5625 18.3542C13.3022 18.3542 9.37195 17.7174 6.44694 16.6341C5.68253 16.3509 4.96274 16.0285 4.3125 15.6645V21.1146C4.3125 21.2248 4.36718 21.5345 4.91878 22.0176C5.4671 22.4977 6.35603 23.0056 7.59742 23.4654C10.0674 24.38 13.5904 24.9792 17.5625 24.9792C21.5346 24.9792 25.0576 24.38 27.5276 23.4654C28.7689 23.0056 29.658 22.4977 30.2063 22.0176C30.7577 21.5345 30.8125 21.2248 30.8125 21.1146ZM4.3125 25.6019C4.96274 25.9661 5.68253 26.2885 6.44694 26.5716C9.37195 27.6548 13.3022 28.2917 17.5625 28.2917C21.8228 28.2917 25.753 27.6548 28.6781 26.5716C29.4424 26.2885 30.1621 25.9661 30.8125 25.6019V31.0521C30.8125 31.1623 30.7577 31.4721 30.2063 31.9551C29.658 32.4352 28.7689 32.9431 27.5276 33.4029C25.0576 34.3175 21.5346 34.9167 17.5625 34.9167C13.5904 34.9167 10.0674 34.3175 7.59742 33.4029C6.35603 32.9431 5.4671 32.4352 4.91878 31.9551C4.36718 31.4721 4.3125 31.1623 4.3125 31.0521V25.6019ZM4.3125 40.9896V35.5394C4.96274 35.9036 5.68253 36.226 6.44694 36.5091C9.37195 37.5923 13.3022 38.2292 17.5625 38.2292C21.8228 38.2292 25.753 37.5923 28.6781 36.5091C29.4424 36.226 30.1621 35.9036 30.8125 35.5394V40.9896C30.8125 41.0998 30.7577 41.4094 30.2063 41.8926C29.658 42.3727 28.7689 42.8806 27.5276 43.3404C25.0576 44.255 21.5346 44.8542 17.5625 44.8542C13.5904 44.8542 10.0674 44.255 7.59742 43.3404C6.35603 42.8806 5.4671 42.3727 4.91878 41.8926C4.36718 41.4094 4.3125 41.0998 4.3125 40.9896Z" fill="#F17A00"/>
</svg>
