<svg width="42" height="42" viewBox="0 0 42 42" fill="none" xmlns="http://www.w3.org/2000/svg">
<g clip-path="url(#clip0_415_1319)">
<path d="M1.4 23.8H0V41.3001C0 41.7201 0.28 42 0.7 42H18.9V40.6H1.4V23.8Z" fill="#CCCCCC"/>
<path d="M40.6001 40.6H23.1001V42H41.3001C41.7201 42 42.0001 41.7201 42.0001 41.3001V23.8H40.6001V40.6Z" fill="#CCCCCC"/>
<path d="M41.3001 0H23.1001V1.4H40.6001V5.6H25.2001V7H40.6001V19.6H42.0001V0.7C42.0001 0.28 41.7201 0 41.3001 0Z" fill="#CCCCCC"/>
<path d="M1.4 7H16.8V5.6H1.4V1.4H18.9V0H0.7C0.28 0 0 0.28 0 0.7V19.6H1.4V7Z" fill="#CCCCCC"/>
<path d="M4.1998 2.80005H2.7998V4.20005H4.1998V2.80005Z" fill="#CCCCCC"/>
<path d="M7.0001 2.80005H5.6001V4.20005H7.0001V2.80005Z" fill="#CCCCCC"/>
<path d="M9.7999 2.80005H8.3999V4.20005H9.7999V2.80005Z" fill="#CCCCCC"/>
<path d="M39.1999 2.80005H36.3999V4.20005H39.1999V2.80005Z" fill="#CCCCCC"/>
<path d="M11.2002 11.2V18.2V25.2V32.2C11.2002 32.62 11.4802 32.9 11.9002 32.9H30.1002C30.5202 32.9 30.8002 32.62 30.8002 32.2V25.2V18.2V11.2C30.8002 10.78 30.5202 10.5 30.1002 10.5H11.9002C11.4802 10.5 11.2002 10.78 11.2002 11.2ZM29.4002 24.5H12.6002V18.9H29.4002V24.5ZM29.4002 31.5H12.6002V25.9H29.4002V31.5ZM12.6002 11.9H29.4002V17.5H12.6002V11.9Z" fill="#CCCCCC"/>
<path d="M15.4 13.3H14V16.1H15.4V13.3Z" fill="#CCCCCC"/>
<path d="M18.1998 13.3H16.7998V16.1H18.1998V13.3Z" fill="#CCCCCC"/>
<path d="M21.0001 13.3H19.6001V16.1H21.0001V13.3Z" fill="#CCCCCC"/>
<path d="M15.4 20.3H14V23.1H15.4V20.3Z" fill="#CCCCCC"/>
<path d="M18.1998 20.3H16.7998V23.1H18.1998V20.3Z" fill="#CCCCCC"/>
<path d="M21.0001 20.3H19.6001V23.1H21.0001V20.3Z" fill="#CCCCCC"/>
<path d="M25.1998 14H23.7998V15.4H25.1998V14Z" fill="#CCCCCC"/>
<path d="M28.0001 14H26.6001V15.4H28.0001V14Z" fill="#CCCCCC"/>
<path d="M25.1998 21H23.7998V22.4H25.1998V21Z" fill="#CCCCCC"/>
<path d="M28.0001 21H26.6001V22.4H28.0001V21Z" fill="#CCCCCC"/>
<path d="M24.4998 28H20.2998V29.4H24.4998V28Z" fill="#CCCCCC"/>
<path d="M27.2999 28H25.8999V29.4H27.2999V28Z" fill="#CCCCCC"/>
<path d="M18.9 28H17.5V29.4H18.9V28Z" fill="#CCCCCC"/>
<path d="M16.1002 28H14.7002V29.4H16.1002V28Z" fill="#CCCCCC"/>
<path d="M36.1899 20.0901L35.2099 19.1101L33.1099 21.2101C32.8299 21.4901 32.8299 21.9101 33.1099 22.1901L35.2099 24.2901L36.1899 23.3101L35.2799 22.4001H41.9999V21.0001H35.2799L36.1899 20.0901Z" fill="#CCCCCC"/>
<path d="M5.81 23.3101L6.79 24.2901L8.89 22.1901C9.17 21.9101 9.17 21.4901 8.89 21.2101L6.79 19.1101L5.81 20.0901L6.72 21.0001H0V22.4001H6.72L5.81 23.3101Z" fill="#CCCCCC"/>
<path d="M23.5902 37.31L21.4902 35.21C21.2102 34.93 20.7902 34.93 20.5102 35.21L18.4102 37.31L19.3902 38.29L20.3002 37.38V42H21.7002V37.38L22.6102 38.29L23.5902 37.31Z" fill="#CCCCCC"/>
<path d="M18.4102 6.09L20.5102 8.19C20.6502 8.33 20.7902 8.4 21.0002 8.4C21.2102 8.4 21.3502 8.33 21.4902 8.19L23.5902 6.09L22.6102 5.11L21.7002 6.02V0H20.3002V6.02L19.3902 5.11L18.4102 6.09Z" fill="#CCCCCC"/>
</g>
<defs>
<clipPath id="clip0_415_1319">
<rect width="42" height="42" fill="white"/>
</clipPath>
</defs>
</svg>
