<svg width="47" height="47" viewBox="0 0 47 47" fill="none" xmlns="http://www.w3.org/2000/svg">
<path fill-rule="evenodd" clip-rule="evenodd" d="M16.8667 4.22536C20.5124 3.29877 24.1972 4.51819 26.5909 7.08586C28.4262 6.18385 30.616 6.0039 32.6899 6.76684C36.1959 8.0567 38.2102 11.612 37.6864 15.1674C39.9943 16.72 41.5159 19.3575 41.5159 22.3525C41.5159 27.132 37.6413 31.0066 32.8618 31.0066H32.309V35.7377C32.309 36.5488 32.9666 37.2065 33.7777 37.2065H34.7379C35.1846 36.6121 35.8955 36.2277 36.6961 36.2277H36.7156C38.0677 36.2277 39.1636 37.3238 39.1636 38.6756C39.1636 40.0276 38.0677 41.1235 36.7156 41.1235H36.6961C35.8951 41.1235 35.1838 40.7387 34.7373 40.144H33.7777C31.3443 40.144 29.3715 38.1711 29.3715 35.7377V31.0066H24.9652V38.6609C25.571 39.1064 25.964 39.8244 25.964 40.6339C25.964 41.986 24.8679 43.0818 23.5161 43.0818H23.4965C22.1445 43.0818 21.0486 41.986 21.0486 40.6339C21.0486 39.8332 21.4332 39.1221 22.0277 38.6754V31.0066H17.6215V35.7377C17.6215 38.1711 15.6487 40.144 13.2152 40.144H12.2562C11.8096 40.7387 11.0984 41.1235 10.2973 41.1235H10.2777C8.92577 41.1235 7.82981 40.0276 7.82981 38.6756C7.82981 37.3238 8.92577 36.2277 10.2777 36.2277H10.2973C11.098 36.2277 11.8089 36.6121 12.2555 37.2065H13.2152C14.0264 37.2065 14.684 36.5488 14.684 35.7377V31.0066H14.131C9.35156 31.0066 5.47705 27.132 5.47705 22.3525C5.47705 19.2958 7.06193 16.6115 9.45039 15.0727C8.84051 10.1741 11.9582 5.47289 16.8667 4.22536ZM16.2245 28.0691C16.2007 28.0679 16.1768 28.0673 16.1527 28.0673C16.1287 28.0673 16.1047 28.0679 16.081 28.0691H14.131C10.9739 28.0691 8.41455 25.5097 8.41455 22.3525C8.41455 20.065 9.75832 18.0881 11.706 17.1741C12.3377 16.8776 12.6736 16.1777 12.5097 15.4994C11.6106 11.7792 13.8705 8.01775 17.5903 7.07234C20.4905 6.33523 23.4319 7.5257 25.0538 9.8446C25.2813 10.1698 25.6307 10.3892 26.0226 10.4526C26.4142 10.5161 26.8151 10.4183 27.1337 10.1815C28.3984 9.24126 30.092 8.94108 31.6755 9.52369C34.0907 10.4122 35.3673 13.033 34.6159 15.4624C34.4023 16.1533 34.7234 16.8971 35.3728 17.2153C37.2744 18.1469 38.5784 20.0988 38.5784 22.3525C38.5784 25.5097 36.0191 28.0691 32.8618 28.0691H30.9119C30.8882 28.0679 30.8643 28.0673 30.8402 28.0673C30.8162 28.0673 30.7923 28.0679 30.7686 28.0691H23.5682C23.5445 28.0679 23.5206 28.0673 23.4965 28.0673C23.4724 28.0673 23.4485 28.0679 23.4248 28.0691H16.2245Z" fill="#CCCCCC"/>
</svg>
