<svg width="44" height="42" viewBox="0 0 44 42" fill="none" xmlns="http://www.w3.org/2000/svg">
<g clip-path="url(#clip0_415_1270)">
<path d="M18.6676 0C22.2452 0 25.5581 1.62121 27.8342 4.34442L28.0635 4.62684L28.09 4.6108C28.9488 4.09031 29.9303 3.78673 30.9578 3.73975L31.2391 3.73334C34.3815 3.73334 36.9686 6.11632 37.2995 9.17765L37.3186 9.39823L37.5125 9.42674C41.04 10.0048 43.7394 13.1964 43.8503 17.0624L43.8539 17.3101C43.8539 20.833 41.6875 23.9205 38.5537 24.9397C38.0418 25.1061 37.4921 24.8251 37.326 24.312C37.1599 23.799 37.4402 23.2481 37.9522 23.0815C40.2706 22.3275 41.9048 19.9985 41.9048 17.3101C41.9048 14.045 39.5192 11.4091 36.5877 11.2908L36.3613 11.2871C35.7801 11.2999 35.317 10.8031 35.3693 10.2228C35.3805 10.0973 35.3863 9.97077 35.3863 9.84341C35.3863 7.54779 33.5295 5.68682 31.2391 5.68682C30.2133 5.68682 29.2482 6.06017 28.4967 6.72618C28.0542 7.11835 27.3681 7.02896 27.0404 6.53646C25.142 3.68382 22.0425 1.95348 18.6676 1.95348C13.8033 1.95348 9.63274 5.55366 8.67278 10.5005C8.58998 10.9272 8.2379 11.2428 7.81545 11.2858L7.69864 11.2906L7.49304 11.2869C4.44679 11.2869 1.94905 13.969 1.94905 17.3101C1.94905 19.9524 3.52797 22.2514 5.79121 23.0442C6.29928 23.2222 6.56719 23.7793 6.38961 24.2886C6.21201 24.7978 5.65618 25.0663 5.14811 24.8884C2.09188 23.8177 0 20.7717 0 17.3101C0 13.1676 2.97183 9.74185 6.81068 9.36743L6.9328 9.35721L6.96593 9.23315C8.38329 3.94635 12.9816 0.140451 18.3676 0.00380275L18.6676 0Z" fill="#CCCCCC"/>
<path fill-rule="evenodd" clip-rule="evenodd" d="M34.2826 15.2588C36.9736 15.2588 39.1552 17.4453 39.1552 20.1425V25.0263C39.1552 27.7234 36.9736 29.91 34.2826 29.91H23.3895V36.3061C24.2202 36.6005 24.8786 37.2604 25.1722 38.0929H38.1673C38.7056 38.0929 39.1419 38.5303 39.1419 39.0696C39.1419 39.5706 38.7656 39.9835 38.281 40.0398L38.1673 40.0465H25.1722C24.7709 41.1845 23.6879 41.9999 22.415 41.9999C21.1419 41.9999 20.0589 41.1843 19.6576 40.046L19.6513 40.0465H5.84798C5.30975 40.0465 4.87344 39.6091 4.87344 39.0696C4.87344 38.5688 5.24965 38.1559 5.73432 38.0995L5.84798 38.0929H19.6513H19.6578C19.9513 37.2604 20.6097 36.6005 21.4405 36.3061V29.91H9.57284C6.88175 29.91 4.7002 27.7234 4.7002 25.0263V20.1425C4.7002 17.4453 6.88175 15.2588 9.57284 15.2588H34.2826ZM34.2826 17.2123H9.57284C8.01586 17.2123 6.74314 18.4322 6.65421 19.9703L6.64925 20.1425V25.0263C6.64925 26.5868 7.86636 27.8624 9.40106 27.9515L9.57284 27.9564H34.2826C35.8396 27.9564 37.1122 26.7367 37.2012 25.1984L37.2061 25.0263V20.1425C37.2061 18.582 35.9891 17.3064 34.4543 17.2172L34.2826 17.2123ZM22.415 38.0929C22.9531 38.0929 23.3895 38.5303 23.3895 39.0696C23.3895 39.6091 22.9531 40.0465 22.415 40.0465C21.8767 40.0465 21.4405 39.6091 21.4405 39.0696C21.4405 38.5303 21.8767 38.0929 22.415 38.0929Z" fill="#CCCCCC"/>
<path d="M32.5292 21.488C33.0673 21.488 33.5037 21.9254 33.5037 22.4649C33.5037 22.9657 33.1275 23.3786 32.6427 23.4351L32.5292 23.4416H19.4921C18.9539 23.4416 18.5176 23.0042 18.5176 22.4649C18.5176 21.9639 18.8938 21.551 19.3784 21.4947L19.4921 21.488H32.5292Z" fill="#CCCCCC"/>
<path fill-rule="evenodd" clip-rule="evenodd" d="M15.5928 22.4649C15.5928 20.8465 14.2839 19.5347 12.6692 19.5347C11.0546 19.5347 9.74561 20.8465 9.74561 22.4649C9.74561 24.0832 11.0546 25.3951 12.6692 25.3951C14.2839 25.3951 15.5928 24.0832 15.5928 22.4649ZM11.6947 22.4649C11.6947 21.9254 12.131 21.4882 12.6692 21.4882C13.2074 21.4882 13.6438 21.9254 13.6438 22.4649C13.6438 23.0043 13.2074 23.4416 12.6692 23.4416C12.131 23.4416 11.6947 23.0043 11.6947 22.4649Z" fill="#CCCCCC"/>
</g>
<defs>
<clipPath id="clip0_415_1270">
<rect width="44" height="42" fill="white"/>
</clipPath>
</defs>
</svg>
