<svg width="41" height="41" viewBox="0 0 41 41" fill="none" xmlns="http://www.w3.org/2000/svg">
<g clip-path="url(#clip0_415_1298)">
<path d="M18.3193 29.0053C18.6806 29.0053 18.9735 28.7123 18.9735 28.351C18.9735 27.9897 18.6806 27.6968 18.3193 27.6968C17.958 27.6968 17.665 27.9897 17.665 28.351C17.665 28.7123 17.958 29.0053 18.3193 29.0053Z" fill="#CCCCCC"/>
<path d="M15.7021 26.3883C16.0634 26.3883 16.3563 26.0954 16.3563 25.7341C16.3563 25.3727 16.0634 25.0798 15.7021 25.0798C15.3408 25.0798 15.0479 25.3727 15.0479 25.7341C15.0479 26.0954 15.3408 26.3883 15.7021 26.3883Z" fill="#CCCCCC"/>
<path d="M29.9059 23.4203C27.8125 21.3742 25.1865 19.1914 20.4999 19.1914C15.2654 19.1914 12.6455 21.84 10.1119 24.4015C7.65915 26.8811 5.34249 29.2233 0.654238 29.2233C0.292926 29.2233 0 29.5161 0 29.8775C0 30.2389 0.292926 30.5317 0.654238 30.5317C5.88878 30.5317 8.5087 27.8832 11.0422 25.3216C13.4949 22.842 15.8116 20.4999 20.4999 20.4999C24.6947 20.4999 26.9949 22.4049 28.9914 24.356C29.2498 24.6086 29.664 24.6037 29.9166 24.3454C30.1691 24.087 30.1644 23.6727 29.9059 23.4203Z" fill="#CCCCCC"/>
<path d="M40.3457 29.2234C36.1509 29.2234 33.8508 27.3185 31.8543 25.3673C31.5958 25.1146 31.1816 25.1195 30.929 25.3779C30.6765 25.6364 30.6812 26.0506 30.9397 26.3031C33.0331 28.3492 35.6592 30.532 40.3457 30.532C40.707 30.532 40.9999 30.2391 40.9999 29.8778C40.9999 29.5164 40.7071 29.2234 40.3457 29.2234Z" fill="#CCCCCC"/>
<path d="M29.8123 4.79788C30.1736 4.79788 30.4666 4.50503 30.4666 4.14364V0.654238C30.4666 0.292846 30.1736 0 29.8123 0H11.0571C10.6958 0 10.4028 0.292846 10.4028 0.654238V4.14356C10.4028 4.50495 10.6958 4.7978 11.0571 4.7978H11.2751V6.10628H11.0571C10.6958 6.10628 10.4028 6.39912 10.4028 6.76052V10.25C10.4028 10.6114 10.6958 10.9042 11.0571 10.9042H11.2751V12.2127H11.0571C10.6958 12.2127 10.4028 12.5056 10.4028 12.867V16.3563C10.4028 16.7177 10.6958 17.0105 11.0571 17.0105H29.8124C30.1737 17.0105 30.4666 16.7177 30.4666 16.3563V12.867C30.4666 12.5056 30.1737 12.2127 29.8124 12.2127H29.5944V10.9042H29.8124C30.1737 10.9042 30.4666 10.6114 30.4666 10.25V6.76068C30.4666 6.39928 30.1737 6.10644 29.8124 6.10644H29.5944V4.79796L29.8123 4.79788ZM29.1581 15.7021H11.7113V13.5213H29.1581V15.7021ZM29.1581 9.59576H26.323C25.9617 9.59576 25.6688 9.88861 25.6688 10.25C25.6688 10.6114 25.9617 10.9042 26.323 10.9042H28.2858V12.2127H12.5836V10.9042H23.706C24.0673 10.9042 24.3602 10.6114 24.3602 10.25C24.3602 9.88861 24.0673 9.59576 23.706 9.59576H11.7113V7.41491H29.1581V9.59576ZM12.5836 6.10636V4.79788H28.2857V6.10636H12.5836ZM29.1581 3.48932H11.7113V1.30848H29.1581V3.48932Z" fill="#CCCCCC"/>
<path d="M40.3458 31.8403H0.654238C0.292926 31.8403 0 32.1332 0 32.4946V40.3457C0 40.7071 0.292926 40.9999 0.654238 40.9999H40.3458C40.7071 40.9999 41 40.7071 41 40.3457V32.4946C41 32.1332 40.7071 31.8403 40.3458 31.8403ZM31.8404 39.6914H1.30848V33.1489H31.8404V39.6914ZM39.6915 39.6914H33.149V33.1489H39.6915V39.6914Z" fill="#CCCCCC"/>
</g>
<defs>
<clipPath id="clip0_415_1298">
<rect width="41" height="41" fill="white"/>
</clipPath>
</defs>
</svg>
