<svg width="45" height="50" viewBox="0 0 45 50" fill="none" xmlns="http://www.w3.org/2000/svg">
<g clip-path="url(#clip0_415_1227)">
<path fill-rule="evenodd" clip-rule="evenodd" d="M23.2565 14.6218V6.60596H21.396V14.6218H23.2565ZM37.8891 14.5613L38.8165 16.1667L27.9332 22.3956L27.0059 20.7902L37.8891 14.5613ZM17.6476 20.7906L6.8372 14.6034L5.90981 16.2088L16.7203 22.396L17.6476 20.7906ZM16.06 29.1912L15.1326 27.5857L5.73926 32.9619L6.66665 34.5673L16.06 29.1912ZM23.2565 43.4077V32.6363H21.396V43.4077H23.2565ZM29.5568 27.607L38.8149 32.9057L37.8875 34.5112L28.6294 29.2124L29.5568 27.607Z" fill="#CCCCCC"/>
<path fill-rule="evenodd" clip-rule="evenodd" d="M26.0465 3.70371C26.0465 1.65821 24.3806 0 22.3255 0L22.1399 0.00453269C20.1711 0.100853 18.6047 1.72019 18.6047 3.70371C18.6047 4.0471 18.6516 4.37958 18.7395 4.69514L6.67058 11.6308C5.99025 10.7517 4.92205 10.1852 3.72094 10.1852L3.53522 10.1897C1.56648 10.286 0 11.9054 0 13.8889C0 15.6417 1.22323 17.1101 2.86632 17.4945V31.5796C1.22323 31.964 0 33.4324 0 35.1852C0 37.2307 1.66592 38.8889 3.72094 38.8889L3.90664 38.8844C4.73643 38.8437 5.49475 38.5326 6.09444 38.0377L18.7396 45.3045C18.6517 45.6202 18.6047 45.9528 18.6047 46.2962C18.6047 48.3418 20.2706 50 22.3255 50L22.5113 49.9954C24.48 49.8992 26.0465 48.2798 26.0465 46.2962C26.0465 45.9528 25.9995 45.6202 25.9116 45.3046L38.5567 38.0377C39.201 38.5694 40.0281 38.8889 40.9302 38.8889L41.116 38.8844C43.0847 38.788 44.6512 37.1688 44.6512 35.1852C44.6512 33.4323 43.4278 31.9639 41.7846 31.5796V17.4945C43.4278 17.1102 44.6512 15.6418 44.6512 13.8889C44.6512 11.8434 42.9853 10.1852 40.9302 10.1852L40.7446 10.1897C39.6194 10.2448 38.6256 10.7973 37.9805 11.6309L25.9116 4.69525C25.9995 4.37966 26.0465 4.04715 26.0465 3.70371ZM24.9807 6.29854C24.3459 6.94193 23.477 7.35562 22.5113 7.40287L22.3255 7.40741C21.2858 7.40741 20.3457 6.98288 19.6704 6.29847L7.40254 13.3485C7.42844 13.5249 7.44186 13.7053 7.44186 13.8889C7.44186 15.5874 6.29313 17.019 4.72679 17.4557V31.6184C6.29313 32.0551 7.44186 33.4867 7.44186 35.1852C7.44186 35.6591 7.35246 36.1122 7.18951 36.5286L19.6707 43.7012C20.3054 43.058 21.1743 42.6444 22.1399 42.5971L22.3255 42.5926C23.3653 42.5926 24.3053 43.0171 24.9805 43.7014L37.4617 36.5287C37.2987 36.1122 37.2094 35.6591 37.2094 35.1852C37.2094 33.4867 38.3579 32.0552 39.9242 31.6184V17.4556C38.3579 17.0189 37.2094 15.5874 37.2094 13.8889C37.2094 13.7054 37.2227 13.525 37.2486 13.3486L24.9807 6.29854ZM22.3255 44.4445C21.2981 44.4445 20.4652 45.2735 20.4652 46.2962C20.4652 47.3191 21.2981 48.1481 22.3255 48.1481C23.3531 48.1481 24.186 47.3191 24.186 46.2962C24.186 45.2735 23.3531 44.4445 22.3255 44.4445ZM39.0697 35.1852C39.0697 34.1624 39.9028 33.3333 40.9302 33.3333C41.9577 33.3333 42.7907 34.1624 42.7907 35.1852C42.7907 36.2079 41.9577 37.0371 40.9302 37.0371C39.9028 37.0371 39.0697 36.2079 39.0697 35.1852ZM3.72094 33.3333C2.69343 33.3333 1.86047 34.1624 1.86047 35.1852C1.86047 36.2079 2.69343 37.0371 3.72094 37.0371C4.74843 37.0371 5.58139 36.2079 5.58139 35.1852C5.58139 34.1624 4.74843 33.3333 3.72094 33.3333ZM1.86047 13.8889C1.86047 12.8661 2.69343 12.0371 3.72094 12.0371C4.74843 12.0371 5.58139 12.8661 5.58139 13.8889C5.58139 14.9117 4.74843 15.7407 3.72094 15.7407C2.69343 15.7407 1.86047 14.9117 1.86047 13.8889ZM40.9302 12.0371C39.9028 12.0371 39.0697 12.8661 39.0697 13.8889C39.0697 14.9117 39.9028 15.7407 40.9302 15.7407C41.9577 15.7407 42.7907 14.9117 42.7907 13.8889C42.7907 12.8661 41.9577 12.0371 40.9302 12.0371ZM22.3255 1.85185C21.2981 1.85185 20.4652 2.68096 20.4652 3.70371C20.4652 4.72646 21.2981 5.55555 22.3255 5.55555C23.3531 5.55555 24.186 4.72646 24.186 3.70371C24.186 2.68096 23.3531 1.85185 22.3255 1.85185Z" fill="#CCCCCC"/>
<path fill-rule="evenodd" clip-rule="evenodd" d="M22.3261 13.8884C25.4723 13.8884 26.9066 15.7038 26.9747 18.7329L26.9772 18.9623V20.4866C28.5821 20.8977 29.768 22.3478 29.768 24.0736V29.6292C29.768 31.6747 28.102 33.3329 26.047 33.3329H18.6051C16.5501 33.3329 14.8843 31.6747 14.8843 29.6292V24.0736C14.8843 22.3478 16.0701 20.8977 17.6749 20.4866V18.9623C17.6749 15.7957 19.1013 13.8884 22.3261 13.8884ZM25.1168 18.9623V20.3699H19.5354V18.9623L19.5377 18.7493C19.5841 16.6576 20.3343 15.7403 22.3261 15.7403C24.3842 15.7403 25.1168 16.7198 25.1168 18.9623ZM27.9075 24.0736C27.9075 23.0508 27.0746 22.2218 26.047 22.2218H18.6051C17.5777 22.2218 16.7447 23.0508 16.7447 24.0736V29.6292C16.7447 30.652 17.5777 31.481 18.6051 31.481H26.047C27.0746 31.481 27.9075 30.652 27.9075 29.6292V24.0736ZM23.2501 25.8175C23.1963 25.357 22.8031 24.9996 22.3261 24.9996C21.8123 24.9996 21.3959 25.4141 21.3959 25.9255V27.7773L21.4022 27.8853C21.4558 28.3458 21.849 28.7032 22.3261 28.7032C22.8399 28.7032 23.2564 28.2887 23.2564 27.7773V25.9255L23.2501 25.8175Z" fill="#CCCCCC"/>
</g>
<defs>
<clipPath id="clip0_415_1227">
<rect width="45" height="50" fill="white"/>
</clipPath>
</defs>
</svg>
