<svg width="44" height="44" viewBox="0 0 44 44" fill="none" xmlns="http://www.w3.org/2000/svg">
<g clip-path="url(#clip0_415_1362)">
<path d="M1.91647 38.8557C1.67069 38.7706 1.31491 38.5936 1.12585 38.463C0.694443 38.1639 0.208037 37.4575 0.0868648 36.953C0.0224117 36.6815 0.0017867 32.1423 0.0189742 21.7421L0.0430367 6.91788L0.245849 6.46842C0.483896 5.94334 1.05022 5.38905 1.61741 5.12694C2.01444 4.94389 2.08663 4.94131 7.67772 4.91725C13.9537 4.88975 14.0096 4.89405 14.765 5.43717C15.04 5.63483 15.5986 6.3378 16.7063 7.88037L18.2618 10.0469L26.6407 10.0718L35.0196 10.0976L35.4579 10.2961C35.9718 10.5281 36.5132 11.0575 36.7959 11.6015C36.9944 11.9848 36.9962 12.02 37.0202 15.3183L37.0451 18.6483L38.6101 18.6509C40.5892 18.6544 41.3145 18.7455 41.9866 19.0755C42.4996 19.3273 43.1536 19.909 43.4879 20.4118C43.7268 20.7701 44.0001 21.6888 44.0001 22.134C44.0001 22.3394 43.9562 22.7106 43.903 22.9598C43.7826 23.5201 36.3774 38.3719 36.0818 38.6443C35.9701 38.7474 35.7698 38.8737 35.6366 38.9236C35.4691 38.988 30.3755 39.0147 18.8788 39.013C3.21327 39.0104 2.34015 39.0018 1.91647 38.8557ZM37.9251 29.412C39.9361 25.3738 41.4237 22.2887 41.4228 22.1572C41.4211 21.81 41.0559 21.4344 40.6116 21.3227C40.0744 21.1878 11.41 21.1861 10.8737 21.321C10.6675 21.3726 10.4217 21.498 10.328 21.6003C10.1923 21.7481 3.35163 36.2578 3.35163 36.3987C3.35163 36.4202 10.3435 36.4374 18.8891 36.4374H34.4258L37.9251 29.412ZM5.32647 26.0373C6.70405 23.0844 7.95015 20.4943 8.09452 20.2812C8.67718 19.4244 9.56577 18.9027 10.7276 18.7343C11.0731 18.6844 15.9028 18.6509 22.8809 18.6501L34.461 18.6483V15.6423V12.637L26.0606 12.613L17.6602 12.5898L17.185 12.356C16.9237 12.228 16.5946 12.0037 16.4545 11.8584C16.3144 11.7132 15.5419 10.6768 14.7383 9.55702L13.2774 7.51944L7.9278 7.49709L2.57819 7.47475L2.58163 19.6573C2.58421 30.0325 2.60226 31.808 2.7028 31.6232C2.76811 31.5037 3.94804 28.9901 5.32647 26.0373Z" fill="#CCCCCC"/>
</g>
<defs>
<clipPath id="clip0_415_1362">
<rect width="44" height="44" fill="white"/>
</clipPath>
</defs>
</svg>
