<svg width="48" height="48" viewBox="0 0 48 48" fill="none" xmlns="http://www.w3.org/2000/svg">
<path d="M15.2031 16.3506H44.1752C46.2842 16.3506 47.9999 14.6348 47.9999 12.5259C47.9999 10.4169 46.2842 8.70117 44.1752 8.70117H15.2031C13.0942 8.70117 11.3784 10.4169 11.3784 12.5259C11.3784 14.6348 13.0942 16.3506 15.2031 16.3506ZM15.2031 10.6135H44.1752C45.2297 10.6135 46.0876 11.4714 46.0876 12.5259C46.0876 13.5803 45.2297 14.4382 44.1752 14.4382H15.2031C14.1486 14.4382 13.2908 13.5803 13.2908 12.5259C13.2908 11.4714 14.1486 10.6135 15.2031 10.6135Z" fill="#CCCCCC"/>
<path d="M44.1752 20.1753H15.2031C13.0942 20.1753 11.3784 21.8911 11.3784 24C11.3784 26.1089 13.0942 27.8247 15.2031 27.8247H44.1752C46.2842 27.8247 47.9999 26.1089 47.9999 24C47.9999 21.8911 46.2842 20.1753 44.1752 20.1753ZM44.1752 25.9123H15.2031C14.1486 25.9123 13.2908 25.0545 13.2908 24C13.2908 22.9455 14.1486 22.0876 15.2031 22.0876H44.1752C45.2297 22.0876 46.0876 22.9455 46.0876 24C46.0876 25.0545 45.2297 25.9123 44.1752 25.9123Z" fill="#CCCCCC"/>
<path d="M44.1752 31.6494H15.2031C13.0942 31.6494 11.3784 33.3652 11.3784 35.4741C11.3784 37.5831 13.0942 39.2988 15.2031 39.2988H44.1752C46.2842 39.2988 47.9999 37.5831 47.9999 35.4741C47.9999 33.3652 46.2842 31.6494 44.1752 31.6494ZM44.1752 37.3865H15.2031C14.1486 37.3865 13.2908 36.5286 13.2908 35.4741C13.2908 34.4196 14.1486 33.5618 15.2031 33.5618H44.1752C45.2297 33.5618 46.0876 34.4196 46.0876 35.4741C46.0876 36.5286 45.2297 37.3865 44.1752 37.3865Z" fill="#CCCCCC"/>
<path d="M4.68526 7.84058C2.10177 7.84058 0 9.94235 0 12.5258C0 15.1093 2.10177 17.2111 4.68526 17.2111C7.26875 17.2111 9.37052 15.1093 9.37052 12.5258C9.37052 9.94235 7.26875 7.84058 4.68526 7.84058ZM4.68526 15.2987C3.15624 15.2987 1.91235 14.0549 1.91235 12.5258C1.91235 10.9968 3.15624 9.75293 4.68526 9.75293C6.21428 9.75293 7.45817 10.9968 7.45817 12.5258C7.45817 14.0549 6.21428 15.2987 4.68526 15.2987Z" fill="#CCCCCC"/>
<path d="M4.68526 19.3147C2.10177 19.3147 0 21.4165 0 24C0 26.5834 2.10177 28.6852 4.68526 28.6852C7.26875 28.6852 9.37052 26.5834 9.37052 24C9.37052 21.4165 7.26875 19.3147 4.68526 19.3147ZM4.68526 26.7729C3.15624 26.7729 1.91235 25.529 1.91235 24C1.91235 22.4709 3.15624 21.227 4.68526 21.227C6.21428 21.227 7.45817 22.4709 7.45817 24C7.45817 25.529 6.21428 26.7729 4.68526 26.7729Z" fill="#CCCCCC"/>
<path d="M4.68526 30.7888C2.10177 30.7888 0 32.8906 0 35.4741C0 38.0576 2.10177 40.1593 4.68526 40.1593C7.26875 40.1593 9.37052 38.0576 9.37052 35.4741C9.37052 32.8906 7.26875 30.7888 4.68526 30.7888ZM4.68526 38.247C3.15624 38.247 1.91235 37.0031 1.91235 35.4741C1.91235 33.9451 3.15624 32.7012 4.68526 32.7012C6.21428 32.7012 7.45817 33.9451 7.45817 35.4741C7.45817 37.0031 6.21428 38.247 4.68526 38.247Z" fill="#CCCCCC"/>
<path d="M20.6534 13.2908H37.004C37.5321 13.2908 37.9602 12.8627 37.9602 12.3346C37.9602 11.8065 37.5321 11.3784 37.004 11.3784H20.6534C20.1253 11.3784 19.6973 11.8065 19.6973 12.3346C19.6973 12.8627 20.1253 13.2908 20.6534 13.2908Z" fill="#CCCCCC"/>
<path d="M15.1075 13.2908H16.8287C17.3568 13.2908 17.7848 12.8627 17.7848 12.3346C17.7848 11.8065 17.3568 11.3784 16.8287 11.3784H15.1075C14.5794 11.3784 14.1514 11.8065 14.1514 12.3346C14.1514 12.8627 14.5794 13.2908 15.1075 13.2908Z" fill="#CCCCCC"/>
</svg>
