<svg width="43" height="43" viewBox="0 0 43 43" fill="none" xmlns="http://www.w3.org/2000/svg">
<g clip-path="url(#clip0_415_1416)">
<path d="M39.9305 25.122L17.8758 3.06748C15.8979 1.08939 13.2679 0 10.4706 0C7.67332 0 5.04338 1.08939 3.06529 3.06748C1.09012 5.04256 0.00244141 7.67242 0.00244141 10.4727C0.00244141 13.273 1.0902 15.9029 3.06529 17.878L25.1199 39.9326C27.098 41.9106 29.7279 43 32.5253 43C35.3226 43 37.9525 41.9106 39.9305 39.9325C41.9085 37.9545 42.9979 35.3247 42.9979 32.5273C42.9979 29.73 41.9086 27.1001 39.9305 25.122ZM4.27674 16.6665C2.62518 15.0151 1.71567 12.8153 1.71567 10.4726C1.71567 8.13 2.62527 5.93032 4.27674 4.27876C5.93122 2.62437 8.1309 1.71315 10.4706 1.71315C12.8104 1.71315 15.01 2.62437 16.6646 4.27884L23.2153 10.8296L23.2186 10.8313C21.6139 10.4967 19.9573 10.5412 18.3807 10.9591L18.3817 10.9573L14.1838 6.75939C13.192 5.76765 11.8733 5.22142 10.4706 5.22142C9.06799 5.22142 7.74929 5.76765 6.75747 6.75939C4.71008 8.80686 4.71008 12.1384 6.75747 14.1859L18.209 25.6374C19.9961 27.4245 22.8036 27.686 24.8847 26.2591C25.271 25.9942 25.7376 25.8957 26.1981 25.9816C26.6587 26.0675 27.0583 26.3277 27.3232 26.7142C27.5881 27.1007 27.6867 27.5672 27.6008 28.0278C27.5149 28.4884 27.2547 28.8879 26.8682 29.1529C26.1709 29.6309 25.4079 30.0048 24.6005 30.2642C23.7332 30.5428 22.8337 30.684 21.9267 30.684C19.5842 30.6842 17.3829 29.7729 15.7282 28.1181L4.27674 16.6665ZM14.2933 17.1929C14.8101 17.9615 15.5953 18.4828 16.5042 18.6608C17.4128 18.8389 18.3368 18.6522 19.1053 18.1355C20.5019 17.1964 22.3813 17.3806 23.5748 18.5732C23.5749 18.5733 23.5751 18.5736 23.5753 18.5738L23.9148 18.9133C23.9151 18.9136 23.9153 18.9138 23.9157 18.9141L35.0271 30.0257C35.6954 30.6939 36.0634 31.5823 36.0634 32.5274C36.0634 33.4723 35.6954 34.3609 35.0271 35.0292C34.3588 35.6975 33.4703 36.0655 32.5253 36.0655C31.5803 36.0655 30.6919 35.6975 30.0236 35.0292L26.389 31.3947C26.8923 31.1573 27.3769 30.8813 27.837 30.566C28.6009 30.0424 29.1152 29.2525 29.285 28.3421C29.4549 27.4316 29.26 26.5095 28.7364 25.7456C28.2128 24.9817 27.4229 24.4674 26.5125 24.2976C25.6018 24.128 24.6799 24.3226 23.9161 24.8464C22.5153 25.8068 20.6245 25.6301 19.4205 24.4261L7.96875 12.9745C6.58932 11.5951 6.58932 9.35027 7.96875 7.97085C8.63705 7.30255 9.52549 6.93456 10.4705 6.93456C11.4156 6.93456 12.304 7.30255 12.9723 7.97085L16.6069 11.6053C16.1307 11.8293 15.672 12.0876 15.2359 12.3809C13.6494 13.4477 13.2267 15.6063 14.2933 17.1929ZM38.7191 38.7212C37.0648 40.3756 34.865 41.2869 32.5253 41.2869C30.1855 41.2869 27.9858 40.3756 26.3314 38.7212L19.7912 32.181L19.7892 32.1798C20.4848 32.3232 21.2001 32.3972 21.9269 32.3971C22.8361 32.3971 23.7385 32.2769 24.6173 32.0425L24.6162 32.0445L28.8122 36.2405C29.8041 37.2323 31.1228 37.7785 32.5253 37.7785C33.9279 37.7785 35.2466 37.2323 36.2385 36.2404C37.2303 35.2485 37.7766 33.9297 37.7766 32.5272C37.7766 31.1245 37.2303 29.8058 36.2385 28.814L25.1263 17.702L24.7867 17.3623C23.0157 15.5914 20.2243 15.3189 18.1496 16.7138C17.7607 16.9753 17.2934 17.0696 16.8335 16.9796C16.3737 16.8896 15.9765 16.6258 15.7151 16.237C15.1754 15.4343 15.3892 14.3422 16.1919 13.8025C16.8692 13.347 17.6107 12.9887 18.3957 12.7374C21.5389 11.7319 24.938 12.5531 27.2667 14.8808C27.269 14.8831 27.2714 14.8855 27.2738 14.8879L38.7192 26.3334C40.3737 27.9878 41.2848 30.1875 41.2848 32.5273C41.2848 34.8671 40.3736 37.0668 38.7191 38.7212Z" fill="#CCCCCC"/>
<path d="M15.3393 24.4063C15.0048 24.0719 14.4624 24.0719 14.1278 24.4063C13.7933 24.7408 13.7933 25.2832 14.1278 25.6178L15.1555 26.6455C15.3228 26.8127 15.542 26.8964 15.7612 26.8964C15.9804 26.8964 16.1998 26.8127 16.367 26.6455C16.7015 26.311 16.7015 25.7686 16.367 25.434L15.3393 24.4063Z" fill="#CCCCCC"/>
<path d="M6.60188 15.6692C6.26739 15.3349 5.72501 15.3348 5.39052 15.6692C5.05603 16.0037 5.05603 16.5461 5.39052 16.8807L11.9004 23.3906C12.0677 23.5578 12.2869 23.6414 12.5061 23.6414C12.7253 23.6414 12.9446 23.5578 13.1118 23.3906C13.4463 23.0561 13.4463 22.5137 13.1118 22.1791L6.60188 15.6692Z" fill="#CCCCCC"/>
</g>
<defs>
<clipPath id="clip0_415_1416">
<rect width="43" height="43" fill="white"/>
</clipPath>
</defs>
</svg>
