<svg width="43" height="43" viewBox="0 0 43 43" fill="none" xmlns="http://www.w3.org/2000/svg">
<g clip-path="url(#clip0_415_1456)">
<path d="M42.3138 9.14892H37.5164V7.09047C37.5164 3.6508 35.0626 0.715547 31.6818 0.111027C31.3095 0.0444277 30.9522 0.292602 30.8855 0.665744C30.8188 1.0388 31.0671 1.39532 31.4402 1.462C34.1659 1.94945 36.1442 4.31655 36.1442 7.09055V9.14909H32.0272V7.09047C32.0272 4.28665 30.3912 1.85815 28.0238 0.708324C27.9872 0.687244 27.9489 0.669439 27.9092 0.655414C27.0043 0.235828 25.9978 0 24.9366 0C21.027 0 17.8462 3.18074 17.8462 7.09047V9.14901H13.0459C12.6669 9.14901 12.3597 9.45622 12.3597 9.83516V12.7349C12.3597 13.1138 12.6669 13.421 13.0459 13.421C13.4249 13.421 13.732 13.1138 13.732 12.7349V10.5213H36.144V41.6277H13.7322V37.2368L18.7063 34.5931H24.9308C25.3099 34.5931 25.617 34.2859 25.617 33.9069C25.617 33.528 25.3099 33.2208 24.9308 33.2208H18.5354C18.423 33.2208 18.3124 33.2483 18.2133 33.301L12.875 36.1383H3.999C3.71572 35.3397 2.95297 34.766 2.05854 34.766C0.923492 34.7659 0 35.6893 0 36.8245C0 37.9596 0.923492 38.883 2.05854 38.883C2.95306 38.883 3.7158 38.3093 3.999 37.5107H12.3598V42.3138C12.3598 42.6928 12.6669 43 13.046 43H42.3138C42.6929 43 43 42.6928 43 42.3138V9.83507C43 9.45614 42.6929 9.14892 42.3138 9.14892ZM23.3356 9.14892H19.2186V7.09047C19.2186 3.93752 21.7836 1.37239 24.9366 1.37239C25.3291 1.37239 25.7124 1.41228 26.0829 1.48795C24.3789 2.816 23.3356 4.88487 23.3356 7.09047V9.14892H23.3356ZM30.6547 9.14892H24.708V7.09047C24.708 5.00538 25.8642 3.07232 27.6797 2.07483C29.4511 3.04754 30.6548 4.93089 30.6548 7.09047V9.14892H30.6547ZM2.05854 37.5106C1.68011 37.5106 1.37239 37.2028 1.37239 36.8245C1.37239 36.446 1.68019 36.1383 2.05854 36.1383C2.43697 36.1383 2.74469 36.4461 2.74469 36.8245C2.74469 37.2029 2.43689 37.5106 2.05854 37.5106ZM38.2008 41.6277L39.5697 39.7986L40.9415 41.6277H38.2008ZM41.6277 40.2553L40.1182 38.2425C39.9886 38.0697 39.7852 37.9681 39.5692 37.9681C39.3528 37.9682 39.1494 38.0701 39.0198 38.2431L37.5165 40.2519V10.5213H41.6278V40.2553H41.6277Z" fill="#CCCCCC"/>
<path d="M39.569 11.8936C39.1899 11.8936 38.8828 12.2008 38.8828 12.5797V35.9095C38.8828 36.2884 39.1899 36.5956 39.569 36.5956C39.948 36.5956 40.2551 36.2884 40.2551 35.9095V12.5797C40.2551 12.2008 39.948 11.8936 39.569 11.8936Z" fill="#CCCCCC"/>
<path d="M24.9308 17.711H18.7063L13.3752 14.8774C13.3733 14.8764 13.3715 14.8755 13.3698 14.8746C13.3431 14.8608 13.3209 14.8508 13.2983 14.8418C13.2922 14.8395 13.2861 14.8374 13.28 14.8351C13.2616 14.8284 13.2429 14.8225 13.2238 14.8174C13.2166 14.8155 13.2096 14.8135 13.2024 14.8119C13.1834 14.8076 13.1641 14.804 13.1446 14.8013C13.1379 14.8003 13.1313 14.799 13.1245 14.7982C13.0987 14.7952 13.0726 14.7933 13.046 14.7933H3.96709C3.66155 14.0387 2.92148 13.5049 2.05854 13.5049C0.923492 13.5049 0 14.4283 0 15.5633C0 16.6984 0.923492 17.622 2.05854 17.622C2.98405 17.622 3.76872 17.0079 4.02697 16.1658H12.3599V18.3082C12.3599 18.6871 12.667 18.9944 13.0461 18.9944C13.4251 18.9944 13.7322 18.6871 13.7322 18.3082V16.6214L18.2134 19.0031C18.3125 19.0557 18.4231 19.0833 18.5354 19.0833H24.9309C25.31 19.0833 25.6171 18.7761 25.6171 18.3971C25.6171 18.0182 25.3099 17.711 24.9308 17.711ZM2.05854 16.2497C1.68011 16.2497 1.37239 15.9419 1.37239 15.5635C1.37239 15.1851 1.68019 14.8774 2.05854 14.8774C2.43697 14.8774 2.74469 15.1852 2.74469 15.5635C2.74469 15.9419 2.43689 16.2497 2.05854 16.2497Z" fill="#CCCCCC"/>
<path d="M24.9308 23.2841H18.7063L13.3752 20.4506C13.3733 20.4496 13.3715 20.4487 13.3698 20.4477C13.3431 20.434 13.3209 20.424 13.2983 20.415C13.2922 20.4126 13.2861 20.4105 13.28 20.4083C13.2616 20.4016 13.2429 20.3957 13.2238 20.3905C13.2166 20.3886 13.2096 20.3867 13.2024 20.3851C13.1834 20.3807 13.1641 20.3772 13.1446 20.3744C13.1379 20.3734 13.1313 20.3722 13.1245 20.3713C13.0987 20.3684 13.0726 20.3664 13.046 20.3664H3.999C3.71572 19.5678 2.95297 18.9941 2.05854 18.9941C0.923492 18.9941 0 19.9175 0 21.0526C0 22.1877 0.923492 23.1112 2.05854 23.1112C2.95306 23.1112 3.7158 22.5375 3.999 21.7389H12.3598V34.0798C12.3598 34.4588 12.6669 34.766 13.046 34.766C13.425 34.766 13.7321 34.4588 13.7321 34.0798V22.1945L18.2133 24.5762C18.3124 24.6288 18.423 24.6564 18.5354 24.6564H24.9308C25.3099 24.6564 25.617 24.3492 25.617 23.9702C25.617 23.5913 25.3099 23.2841 24.9308 23.2841ZM2.05854 21.7388C1.68011 21.7388 1.37239 21.431 1.37239 21.0527C1.37239 20.6742 1.68019 20.3665 2.05854 20.3665C2.43697 20.3665 2.74469 20.6743 2.74469 21.0527C2.74469 21.4311 2.43689 21.7388 2.05854 21.7388Z" fill="#CCCCCC"/>
<path d="M10.2925 24.4836H0.686152C0.307131 24.4836 0 24.7909 0 25.1698C0 25.5487 0.307131 25.8559 0.686152 25.8559H10.2925C10.6716 25.8559 10.9787 25.5487 10.9787 25.1698C10.9787 24.7909 10.6716 24.4836 10.2925 24.4836Z" fill="#CCCCCC"/>
<path d="M10.2925 27.2283H0.686152C0.307131 27.2283 0 27.5355 0 27.9144C0 28.2934 0.307131 28.6006 0.686152 28.6006H10.2925C10.6716 28.6006 10.9787 28.2934 10.9787 27.9144C10.9787 27.5355 10.6716 27.2283 10.2925 27.2283Z" fill="#CCCCCC"/>
<path d="M5.48939 29.9729H0.686152C0.307131 29.9729 0 30.2801 0 30.6591C0 31.038 0.307131 31.3452 0.686152 31.3452H5.4893C5.86832 31.3452 6.17545 31.038 6.17545 30.6591C6.17545 30.2801 5.86841 29.9729 5.48939 29.9729Z" fill="#CCCCCC"/>
</g>
<defs>
<clipPath id="clip0_415_1456">
<rect width="43" height="43" fill="white"/>
</clipPath>
</defs>
</svg>
