<svg width="49" height="49" viewBox="0 0 49 49" fill="none" xmlns="http://www.w3.org/2000/svg">
<path fill-rule="evenodd" clip-rule="evenodd" d="M22.0233 31.8756C22.8191 32.0592 23.6483 32.1562 24.4998 32.1562C30.5605 32.1562 35.4738 27.2429 35.4738 21.1822C35.4738 15.1215 30.5605 10.2083 24.4998 10.2083C18.4391 10.2083 13.5259 15.1215 13.5259 21.1822C13.5259 24.688 15.1697 27.8097 17.7287 29.8189L14.9775 33.5896C13.9589 34.9857 14.3757 36.9567 15.8724 37.8208C17.369 38.6848 19.2845 38.0605 19.9842 36.4802L22.0233 31.8756ZM24.4998 13.2708C20.1305 13.2708 16.5884 16.8128 16.5884 21.1822C16.5884 23.6716 17.7381 25.8923 19.5354 27.3425L22.5468 23.2153C23.0082 22.583 23.8718 22.4005 24.5494 22.7917C25.2271 23.1828 25.5009 24.0222 25.184 24.7378L23.2955 29.0026C23.6881 29.0626 24.0903 29.0937 24.4998 29.0937C28.8692 29.0937 32.4113 25.5516 32.4113 21.1822C32.4113 16.8128 28.8692 13.2708 24.4998 13.2708Z" fill="#CCCCCC"/>
<path fill-rule="evenodd" clip-rule="evenodd" d="M36.75 4.08325C39.287 4.08325 41.3438 6.13995 41.3438 8.677V40.3228C41.3438 42.8598 39.287 44.9166 36.75 44.9166H12.25C9.71294 44.9166 7.65625 42.8598 7.65625 40.3228V8.677C7.65625 6.13995 9.71294 4.08325 12.25 4.08325H36.75ZM38.2813 8.677C38.2813 7.83132 37.5957 7.14575 36.75 7.14575H12.25C11.4043 7.14575 10.7188 7.83132 10.7188 8.677V40.3228C10.7188 41.1685 11.4043 41.8541 12.25 41.8541H36.75C37.5957 41.8541 38.2813 41.1685 38.2813 40.3228V8.677Z" fill="#CCCCCC"/>
</svg>
