<svg width="44" height="44" viewBox="0 0 44 44" fill="none" xmlns="http://www.w3.org/2000/svg">
<g clip-path="url(#clip0_415_1425)">
<path d="M7.14358 15.251H21.6496C22.1336 15.251 22.5261 14.8586 22.5261 14.3745C22.5261 13.8905 22.1336 13.498 21.6496 13.498H7.14358C6.6595 13.498 6.26709 13.8905 6.26709 14.3745C6.26709 14.8586 6.6595 15.251 7.14358 15.251Z" fill="#CCCCCC"/>
<path d="M26.8647 19.283H7.14358C6.6595 19.283 6.26709 19.6754 6.26709 20.1595C6.26709 20.6435 6.6595 21.0359 7.14358 21.0359H26.8647C27.3488 21.0359 27.7412 20.6435 27.7412 20.1595C27.7412 19.6754 27.3488 19.283 26.8647 19.283Z" fill="#CCCCCC"/>
<path d="M26.8647 25.0676H7.14358C6.6595 25.0676 6.26709 25.46 6.26709 25.9441C6.26709 26.4282 6.6595 26.8206 7.14358 26.8206H26.8647C27.3488 26.8206 27.7412 26.4282 27.7412 25.9441C27.7412 25.46 27.3488 25.0676 26.8647 25.0676Z" fill="#CCCCCC"/>
<path d="M26.8647 30.8525H7.14358C6.6595 30.8525 6.26709 31.2449 6.26709 31.729C6.26709 32.2131 6.6595 32.6055 7.14358 32.6055H26.8647C27.3488 32.6055 27.7412 32.2131 27.7412 31.729C27.7412 31.2449 27.3488 30.8525 26.8647 30.8525Z" fill="#CCCCCC"/>
<path d="M26.8648 13.498H24.9366C24.4525 13.498 24.0601 13.8905 24.0601 14.3745C24.0601 14.8586 24.4525 15.251 24.9366 15.251H26.8648C27.3489 15.251 27.7413 14.8586 27.7413 14.3745C27.7413 13.8905 27.3489 13.498 26.8648 13.498Z" fill="#CCCCCC"/>
<path d="M42.1596 33.2557H37.9776C37.7704 33.2557 37.6018 33.0871 37.6018 32.8799V32.0052C37.6018 31.1411 37.086 30.3691 36.2877 30.0385C35.4894 29.7079 34.5788 29.889 33.9678 30.5L33.044 31.4237V9.02789C33.044 8.79544 32.9517 8.57246 32.7873 8.40812L24.6359 0.256725C24.4716 0.0923825 24.2486 0 24.0162 0H1.84085C1.35676 0 0.964355 0.392406 0.964355 0.876494V43.1235C0.964355 43.6076 1.35676 44 1.84085 44H32.1675C32.6516 44 33.044 43.6076 33.044 43.1235V42.4503L33.9678 43.374C34.376 43.7822 34.918 43.9985 35.4709 43.9985C35.7455 43.9985 36.0228 43.9451 36.2877 43.8354C37.0859 43.5048 37.6018 42.7328 37.6018 41.8687V40.994C37.6018 40.7868 37.7704 40.6182 37.9776 40.6182H42.1596C42.6437 40.6182 43.0361 40.2258 43.0361 39.7417V34.1322C43.0361 33.6481 42.6437 33.2557 42.1596 33.2557ZM24.8926 2.99253L30.0515 8.15139H24.8926V2.99253ZM31.2911 42.247H2.71734V1.75299H23.1397V9.02789C23.1397 9.51198 23.5321 9.90438 24.0162 9.90438H31.2911V33.1767L28.1505 36.3172C28.0273 36.4405 27.9444 36.5967 27.9108 36.7652C27.8995 36.8213 27.8938 36.8788 27.8938 36.9369C27.8938 37.1694 27.9861 37.3924 28.1505 37.5567L31.2911 40.6973V42.247ZM41.2831 38.8652H37.9776C36.8038 38.8652 35.8488 39.8202 35.8488 40.994V41.8687C35.8488 42.0872 35.7035 42.18 35.6169 42.2159C35.5301 42.2517 35.3618 42.2889 35.2074 42.1344L30.0099 36.9369L35.2073 31.7395C35.3618 31.5851 35.5302 31.6222 35.6168 31.6581C35.7034 31.6939 35.8487 31.7868 35.8487 32.0052V32.8799C35.8487 34.0537 36.8037 35.0087 37.9775 35.0087H41.2831V38.8652Z" fill="#CCCCCC"/>
</g>
<defs>
<clipPath id="clip0_415_1425">
<rect width="44" height="44" fill="white"/>
</clipPath>
</defs>
</svg>
