<svg width="45" height="42" viewBox="0 0 45 42" fill="none" xmlns="http://www.w3.org/2000/svg">
<g clip-path="url(#clip0_149_6239)">
<path d="M19.2165 0C22.7941 0 26.107 1.62121 28.383 4.34442L28.6123 4.62684L28.6388 4.6108C29.4976 4.09031 30.4791 3.78673 31.5066 3.73975L31.7879 3.73334C34.9303 3.73334 37.5174 6.11632 37.8484 9.17765L37.8674 9.39823L38.0613 9.42674C41.5888 10.0048 44.2882 13.1964 44.3991 17.0624L44.4027 17.3101C44.4027 20.833 42.2363 23.9205 39.1026 24.9397C38.5906 25.1061 38.0409 24.8251 37.8749 24.312C37.7087 23.799 37.9891 23.2481 38.501 23.0815C40.8194 22.3275 42.4536 19.9985 42.4536 17.3101C42.4536 14.045 40.0681 11.4091 37.1365 11.2908L36.9101 11.2871C36.3289 11.2999 35.8658 10.8031 35.9181 10.2228C35.9293 10.0973 35.9351 9.97077 35.9351 9.84341C35.9351 7.54779 34.0783 5.68682 31.7879 5.68682C30.7622 5.68682 29.797 6.06017 29.0455 6.72618C28.603 7.11835 27.9169 7.02896 27.5892 6.53646C25.6908 3.68382 22.5914 1.95348 19.2165 1.95348C14.3522 1.95348 10.1816 5.55366 9.22161 10.5005C9.13881 10.9272 8.78673 11.2428 8.36428 11.2858L8.24747 11.2906L8.04187 11.2869C4.99562 11.2869 2.49788 13.969 2.49788 17.3101C2.49788 19.9524 4.0768 22.2514 6.34003 23.0442C6.84811 23.2222 7.11602 23.7793 6.93844 24.2886C6.76084 24.7978 6.20501 25.0663 5.69693 24.8884C2.6407 23.8177 0.548828 20.7717 0.548828 17.3101C0.548828 13.1676 3.52066 9.74185 7.3595 9.36743L7.48163 9.35721L7.51476 9.23315C8.93212 3.94635 13.5304 0.140451 18.9164 0.00380275L19.2165 0Z" fill="#FF9600"/>
<path fill-rule="evenodd" clip-rule="evenodd" d="M34.8314 15.2588C37.5225 15.2588 39.704 17.4453 39.704 20.1425V25.0263C39.704 27.7234 37.5225 29.91 34.8314 29.91H23.9383V36.3061C24.7691 36.6005 25.4274 37.2604 25.721 38.0929H38.7161C39.2544 38.0929 39.6907 38.5303 39.6907 39.0696C39.6907 39.5706 39.3144 39.9835 38.8298 40.0398L38.7161 40.0465H25.721C25.3197 41.1845 24.2368 41.9999 22.9638 41.9999C21.6907 41.9999 20.6077 41.1843 20.2065 40.046L20.2001 40.0465H6.39681C5.85858 40.0465 5.42227 39.6091 5.42227 39.0696C5.42227 38.5688 5.79848 38.1559 6.28315 38.0995L6.39681 38.0929H20.2001H20.2066C20.5001 37.2604 21.1586 36.6005 21.9893 36.3061V29.91H10.1217C7.43058 29.91 5.24902 27.7234 5.24902 25.0263V20.1425C5.24902 17.4453 7.43058 15.2588 10.1217 15.2588H34.8314ZM34.8314 17.2123H10.1217C8.56469 17.2123 7.29196 18.4322 7.20304 19.9703L7.19808 20.1425V25.0263C7.19808 26.5868 8.41519 27.8624 9.94989 27.9515L10.1217 27.9564H34.8314C36.3884 27.9564 37.6611 26.7367 37.75 25.1984L37.7549 25.0263V20.1425C37.7549 18.582 36.5379 17.3064 35.0032 17.2172L34.8314 17.2123ZM22.9638 38.0929C23.502 38.0929 23.9383 38.5303 23.9383 39.0696C23.9383 39.6091 23.502 40.0465 22.9638 40.0465C22.4255 40.0465 21.9893 39.6091 21.9893 39.0696C21.9893 38.5303 22.4255 38.0929 22.9638 38.0929Z" fill="#FF9600"/>
<path d="M33.078 21.4883C33.6162 21.4883 34.0525 21.9256 34.0525 22.4651C34.0525 22.9659 33.6763 23.3788 33.1916 23.4353L33.078 23.4418H20.0409C19.5027 23.4418 19.0664 23.0045 19.0664 22.4651C19.0664 21.9641 19.4426 21.5513 19.9272 21.4949L20.0409 21.4883H33.078Z" fill="#FF9600"/>
<path fill-rule="evenodd" clip-rule="evenodd" d="M16.1421 22.4649C16.1421 20.8465 14.8332 19.5347 13.2185 19.5347C11.6039 19.5347 10.2949 20.8465 10.2949 22.4649C10.2949 24.0832 11.6039 25.3951 13.2185 25.3951C14.8332 25.3951 16.1421 24.0832 16.1421 22.4649ZM12.244 22.4649C12.244 21.9254 12.6803 21.4882 13.2185 21.4882C13.7567 21.4882 14.1931 21.9254 14.1931 22.4649C14.1931 23.0043 13.7567 23.4416 13.2185 23.4416C12.6803 23.4416 12.244 23.0043 12.244 22.4649Z" fill="#FF9600"/>
</g>
<defs>
<clipPath id="clip0_149_6239">
<rect width="44" height="42" fill="white" transform="translate(0.548828)"/>
</clipPath>
</defs>
</svg>
