<svg width="46" height="46" viewBox="0 0 46 46" fill="none" xmlns="http://www.w3.org/2000/svg">
<g clip-path="url(#clip0_107_5733)">
<path d="M22.4623 45.125C17.0068 45.125 11.5513 45.125 6.09583 45.125C4.77526 45.125 4.02346 44.539 3.77409 43.2443C2.55671 36.9178 1.35038 30.5902 0.151433 24.26C-0.106538 22.8965 0.795133 21.8007 2.18572 21.7332C2.60584 21.7127 2.81632 21.4838 2.81714 21.0465C2.82082 17.1081 2.82205 13.1697 2.82696 9.23138C2.82942 7.54229 3.82199 6.55954 5.52215 6.55585C6.30016 6.55422 6.68916 6.16685 6.68916 5.39376C6.68916 4.62721 6.68547 3.86067 6.68916 3.09536C6.70022 1.33624 8.0085 0.0353268 9.7971 0.0328699C14.701 0.0254993 19.6049 0.0304131 24.5088 0.0304131C28.0946 0.0304131 31.6804 0.0291846 35.2662 0.0304131C37.2907 0.0316415 38.5351 1.27605 38.5388 3.29682C38.5412 4.23166 38.5486 5.1665 38.5351 6.10133C38.5302 6.43792 38.6518 6.57674 38.9908 6.55831C39.3115 6.54111 39.6345 6.55094 39.9564 6.55831C41.3482 6.58657 42.3911 7.63196 42.396 9.02501C42.4034 11.7374 42.3997 14.4498 42.401 17.1622C42.401 17.7616 42.4034 17.7616 43.0152 17.7727C44.3812 17.7997 45.3001 18.8685 45.074 20.2234C44.3898 24.3301 43.6871 28.4343 42.9906 32.5397C42.3997 36.0235 41.8027 39.5074 41.2168 42.9912C40.9588 44.5218 40.2573 45.125 38.6911 45.125C33.2811 45.125 27.8723 45.125 22.4623 45.125ZM22.4279 44.3314C27.6831 44.3314 32.9396 44.3007 38.1948 44.3462C40.2401 44.3634 40.2659 43.7823 40.5092 42.3647C41.3003 37.7507 42.0914 33.1379 42.8825 28.5239C43.3579 25.7477 43.8468 22.9739 44.3014 20.1939C44.4782 19.1105 43.9476 18.5331 42.8481 18.5331C33.7921 18.5331 24.7373 18.5392 15.6813 18.5355C15.212 18.5355 14.8128 18.6633 14.4541 18.9581C13.2453 19.9482 12.0279 20.9261 10.8241 21.9223C10.356 22.3093 9.84992 22.5157 9.22956 22.5108C6.99258 22.4948 4.7556 22.5022 2.51863 22.5058C1.24351 22.5083 0.730026 23.1336 0.968342 24.3866C1.09487 25.0487 1.22631 25.7084 1.35284 26.3705C2.41052 31.869 3.47066 37.3674 4.52343 42.8671C4.74332 44.017 5.10939 44.3314 6.29483 44.3314C11.6729 44.3314 17.051 44.3314 22.4291 44.3314H22.4279ZM22.6158 0.7859C18.4182 0.7859 14.2207 0.817839 10.0231 0.768702C8.51461 0.751504 7.41025 1.7797 7.42499 3.35701C7.47659 9.03975 7.45325 14.7237 7.45816 20.4077C7.45816 21.7221 7.46062 21.6889 8.79101 21.7344C9.50105 21.759 10.0575 21.5403 10.5894 21.0931C11.6901 20.1669 12.8326 19.2886 13.9357 18.3636C14.4467 17.9348 14.9995 17.7579 15.6629 17.7592C22.8013 17.7702 29.941 17.7665 37.0794 17.7665C37.5437 17.7665 37.7763 17.529 37.7771 17.0541C37.7808 12.4892 37.7501 7.9231 37.8042 3.35824C37.8238 1.77356 36.7133 0.750275 35.2085 0.767474C31.0109 0.815382 26.8134 0.784672 22.6158 0.784672V0.7859ZM6.6781 14.5333H6.6867C6.6867 12.2963 6.68302 10.0593 6.69039 7.82237C6.69039 7.49929 6.63757 7.28309 6.24447 7.30888C5.9091 7.32977 5.57006 7.30397 5.23346 7.31626C4.30845 7.35065 3.59228 8.03489 3.58859 8.9599C3.57754 13.0666 3.58859 17.1732 3.58368 21.2799C3.58368 21.6251 3.72003 21.7344 4.04925 21.727C4.73841 21.711 5.42879 21.6975 6.11671 21.7319C6.56754 21.754 6.68916 21.5894 6.68547 21.1533C6.66705 18.9471 6.67688 16.7408 6.67688 14.5333H6.6781ZM41.6455 13.1575C41.6455 11.8246 41.6504 10.4918 41.6442 9.15891C41.6393 8.00786 40.96 7.32485 39.8249 7.31257C38.9716 7.30356 38.5449 7.73065 38.5449 8.59383C38.5449 11.4438 38.5449 14.2938 38.5474 17.1437C38.5474 17.7678 38.5498 17.769 39.1911 17.7702C39.8348 17.7702 40.4785 17.7518 41.1209 17.7776C41.5226 17.7936 41.6578 17.6511 41.6529 17.2494C41.6344 15.8858 41.6455 14.5222 41.6467 13.1587L41.6455 13.1575Z" fill="#FF9600"/>
<path d="M30.7444 29.3472C30.5884 32.6099 29.1683 35.0778 26.2569 36.5986C25.8048 36.8345 25.8503 37.1441 25.8724 37.5052C25.8847 37.7104 26.0469 37.73 26.2078 37.7374C26.4977 37.7497 26.7901 37.7472 27.0787 37.7767C27.3146 37.8013 27.4927 37.9339 27.4792 38.1931C27.4669 38.4278 27.2863 38.5236 27.0763 38.569C27.0615 38.5727 27.0443 38.5776 27.0308 38.5752C26.1083 38.3663 25.8343 38.8872 25.5506 39.6685C25.0874 40.9424 23.7079 41.7151 22.4488 41.6119C20.966 41.4903 19.7929 40.5259 19.4575 39.1046C19.3629 38.7042 19.2032 38.5199 18.7819 38.5801C18.5878 38.6083 18.3827 38.5911 18.1861 38.5715C17.9564 38.5482 17.7537 38.445 17.7439 38.187C17.7328 37.9008 17.9466 37.7914 18.1947 37.7656C18.4232 37.7423 18.6541 37.7521 18.8826 37.7374C19.0706 37.7251 19.3371 37.7927 19.3457 37.5015C19.3531 37.2202 19.5104 36.8799 19.1381 36.6809C18.8003 36.5003 18.4588 36.3259 18.1382 36.1183C15.3202 34.2879 13.9406 30.8225 14.717 27.5438C15.5044 24.2172 18.3139 21.7137 21.6749 21.3452C26.1722 20.8526 30.0626 23.9298 30.651 28.4467C30.6903 28.7502 30.7149 29.0548 30.7444 29.3447V29.3472ZM22.4451 22.0405C22.1859 22.0724 21.7584 22.1092 21.337 22.178C17.8839 22.7407 14.9418 26.0194 15.3607 30.056C15.6432 32.7782 17.051 34.7216 19.471 35.9562C19.6737 36.0593 19.8887 36.1257 20.1246 36.1515C20.5398 36.1969 20.6381 36.0249 20.5521 35.6552C20.4968 35.4169 20.4599 35.1749 20.4206 34.9329C20.0803 32.8814 19.7413 30.8287 19.401 28.7772C19.3629 28.5512 19.3777 28.3399 19.6037 28.2182C19.8457 28.0868 20.014 28.2354 20.1577 28.405C20.4243 28.7207 20.6921 29.0364 20.9427 29.3656C21.1184 29.5966 21.2584 29.6125 21.4402 29.3754C21.7019 29.0352 21.9758 28.7059 22.2522 28.3779C22.4918 28.0942 22.7473 28.0979 22.9856 28.3816C23.2325 28.674 23.4843 28.9639 23.7067 29.2747C23.9303 29.5867 24.1145 29.642 24.3578 29.2931C24.5678 28.9922 24.811 28.7145 25.0469 28.4332C25.1869 28.2662 25.343 28.0942 25.5923 28.2023C25.8503 28.3153 25.8675 28.5426 25.827 28.787C25.456 31.0203 25.0887 33.2536 24.7115 35.4857C24.5985 36.1552 24.7238 36.2841 25.3835 36.1183C25.4867 36.0925 25.5837 36.0421 25.6808 35.9979C28.2298 34.8432 30.2223 32.0546 29.8685 28.6371C29.4803 24.8794 26.3503 22.038 22.4451 22.0392V22.0405ZM20.4427 30.1125C20.7535 32.008 21.0557 33.8592 21.3591 35.7117C21.3665 35.7571 21.3739 35.8026 21.3825 35.8468C21.4267 36.0925 21.5901 36.1527 21.8186 36.1478C22.3087 36.138 22.8001 36.122 23.289 36.1527C23.6833 36.1773 23.8234 36.0127 23.8787 35.6417C24.0334 34.5975 24.2226 33.5583 24.3946 32.5178C24.5248 31.7316 24.6501 30.9454 24.7988 30.0314C24.655 30.1899 24.6047 30.2427 24.5568 30.2992C24.1268 30.8176 23.9401 30.8188 23.5236 30.3004C23.2841 30.0019 23.0384 29.7071 22.805 29.4037C22.6785 29.2391 22.5741 29.2342 22.4451 29.3988C22.2473 29.6518 22.0385 29.8975 21.837 30.1481C21.2658 30.8594 21.1982 30.8631 20.5975 30.2034C20.5705 30.1739 20.525 30.1592 20.4427 30.1113V30.1125ZM22.6601 36.9414C22.2928 36.9414 21.9255 36.9414 21.5582 36.9414C20.6114 36.9414 20.145 37.4139 20.159 38.359C20.1762 39.542 21.0778 40.6082 22.1773 40.747C23.5433 40.919 24.6526 40.2053 24.9855 38.9498C25.1255 38.4204 25.0334 37.8836 25.0715 37.3517C25.0948 37.02 24.9388 36.9303 24.6342 36.9377C23.9769 36.9524 23.3185 36.9426 22.6601 36.9414Z" fill="#FF9600"/>
<path d="M19.0687 7.76703C16.1278 7.76703 13.1882 7.76949 10.2473 7.76334C9.94264 7.76334 9.50286 7.85671 9.49426 7.39481C9.48566 6.91941 9.92913 7.01646 10.2326 7.01646C16.1597 7.01154 22.0857 7.01277 28.0129 7.01646C28.3053 7.01646 28.7254 6.93538 28.7254 7.37147C28.7254 7.82477 28.2954 7.76457 27.9834 7.7658C25.0118 7.76949 22.0415 7.76826 19.0699 7.76826L19.0687 7.76703Z" fill="#FF9600"/>
<path d="M27.8312 3.54768C25.4726 3.54768 23.114 3.55137 20.7554 3.54277C20.4446 3.54277 19.9717 3.66807 19.9766 3.16196C19.9815 2.70252 20.4287 2.79834 20.7333 2.79834C25.4812 2.79343 30.2291 2.79343 34.977 2.79834C35.2817 2.79834 35.7214 2.70252 35.7337 3.16319C35.746 3.63982 35.3013 3.54277 34.9991 3.544C32.6098 3.55014 30.2205 3.54768 27.8312 3.54768Z" fill="#FF9600"/>
<path d="M24.7672 11.9217C23.0216 11.9217 21.276 11.9217 19.5304 11.9217C19.3781 11.9217 19.2233 11.9241 19.0722 11.9033C18.883 11.8775 18.77 11.7558 18.7638 11.5618C18.7589 11.3861 18.8658 11.2669 19.0255 11.2276C19.1864 11.1883 19.3572 11.1711 19.5242 11.1711C23.0154 11.1674 26.5079 11.1687 29.9991 11.1687C30.0298 11.1687 30.0605 11.1687 30.0912 11.1687C30.3836 11.1822 30.7509 11.1625 30.7558 11.5556C30.762 11.977 30.3787 11.9192 30.0974 11.9205C28.3211 11.9254 26.5447 11.9229 24.7684 11.9229L24.7672 11.9217Z" fill="#FF9600"/>
<path d="M25.4914 16.1415C24.4976 16.1415 23.5038 16.1428 22.51 16.1403C22.3576 16.1403 22.2016 16.1366 22.0554 16.0998C21.8749 16.0543 21.7729 15.9167 21.7852 15.7239C21.7962 15.547 21.9117 15.4426 22.0739 15.4131C22.2225 15.3861 22.3773 15.3848 22.5296 15.3848C24.5172 15.3836 26.5048 15.3848 28.4937 15.3848C28.6005 15.3848 28.7086 15.3848 28.8143 15.3922C29.0501 15.4106 29.2442 15.4978 29.2369 15.773C29.2295 16.0482 29.0256 16.1317 28.7946 16.1342C28.076 16.1428 27.3574 16.1415 26.6387 16.1428C26.2567 16.1428 25.8746 16.1428 25.4914 16.1428V16.1415Z" fill="#FF9600"/>
<path d="M13.1852 3.54753C12.1767 3.54753 11.1669 3.54753 10.1584 3.5463C10.022 3.5463 9.88074 3.54385 9.7493 3.51313C9.58837 3.47505 9.48273 3.35835 9.47781 3.18514C9.47167 3.0107 9.56872 2.8854 9.72964 2.84364C9.8746 2.80556 10.0306 2.79696 10.1817 2.79696C12.1853 2.7945 14.1876 2.7945 16.1912 2.79573C16.2833 2.79573 16.3755 2.79573 16.4664 2.80187C16.7231 2.82275 16.9258 2.92717 16.9086 3.21708C16.8926 3.49594 16.6728 3.54385 16.443 3.54507C15.3571 3.54507 14.2724 3.54507 13.1865 3.54507L13.1852 3.54753Z" fill="#FF9600"/>
<path d="M17.1115 16.1425C16.2221 16.1425 15.334 16.1425 14.4446 16.1425C14.3377 16.1425 14.2296 16.1425 14.1227 16.1389C13.8733 16.1303 13.6387 16.0652 13.6301 15.7728C13.6215 15.4792 13.8476 15.3993 14.1006 15.3871C14.1768 15.3834 14.2542 15.3834 14.3303 15.3834C16.2 15.3834 18.0697 15.3809 19.9394 15.3858C20.2354 15.3858 20.6482 15.317 20.6519 15.7507C20.6555 16.2224 20.2231 16.1352 19.916 16.1389C18.9812 16.1475 18.0463 16.1425 17.1115 16.1425Z" fill="#FF9600"/>
<path d="M12.7189 11.922C11.8295 11.922 10.9414 11.922 10.052 11.922C9.78298 11.922 9.47832 11.9183 9.48447 11.5547C9.49061 11.2046 9.79772 11.1751 10.0618 11.1751C11.8246 11.1689 13.5862 11.1714 15.349 11.1714C15.4252 11.1714 15.5038 11.1751 15.5775 11.1935C15.7876 11.2439 15.9632 11.3556 15.9497 11.5915C15.9362 11.836 15.7397 11.9158 15.5222 11.917C14.7557 11.9232 13.9904 11.922 13.2238 11.9232C13.0555 11.9232 12.8872 11.9232 12.7177 11.9232L12.7189 11.922Z" fill="#FF9600"/>
<path d="M32.8633 7.76614C32.1299 7.76614 31.3965 7.7686 30.6619 7.76614C30.3917 7.76614 30.0919 7.7428 30.087 7.39393C30.0809 7.04014 30.3794 7.01557 30.6509 7.01557C32.1643 7.01434 33.6765 7.01434 35.1899 7.01557C35.4639 7.01557 35.7538 7.04874 35.7427 7.40498C35.7329 7.72438 35.4589 7.76491 35.2022 7.76491C34.4234 7.76737 33.6433 7.76491 32.8633 7.76614Z" fill="#FF9600"/>
<path d="M33.1632 16.1404C32.5059 16.1404 31.8487 16.1428 31.1927 16.1404C30.9213 16.1404 30.6289 16.1146 30.6203 15.7645C30.6117 15.3984 30.9151 15.3886 31.1805 15.3886C32.5096 15.3849 33.8388 15.3861 35.168 15.3886C35.4382 15.3886 35.7367 15.4082 35.7416 15.7583C35.7465 16.1096 35.4517 16.1404 35.179 16.1416C34.5071 16.144 33.8351 16.1416 33.1619 16.1416L33.1632 16.1404Z" fill="#FF9600"/>
<path d="M33.7851 11.9193C33.3121 11.9193 32.8392 11.9205 32.3662 11.9193C32.1353 11.9193 31.9203 11.8652 31.9068 11.5864C31.8945 11.3186 32.0911 11.1933 32.3196 11.1908C33.3256 11.1773 34.3317 11.1773 35.339 11.1908C35.5688 11.1933 35.7653 11.321 35.7543 11.5864C35.742 11.864 35.527 11.9193 35.296 11.9205C34.7924 11.9229 34.2887 11.9205 33.7863 11.9205L33.7851 11.9193Z" fill="#FF9600"/>
<path d="M11.0763 15.3884C11.4595 15.3884 11.8428 15.3822 12.2248 15.3908C12.4595 15.3957 12.6634 15.4854 12.6708 15.7532C12.6781 16.021 12.4804 16.1316 12.2445 16.134C11.4632 16.1426 10.6819 16.1426 9.90065 16.134C9.66356 16.1316 9.46824 16.0185 9.47684 15.7507C9.48666 15.4842 9.69058 15.3957 9.92644 15.3908C10.3097 15.3834 10.693 15.3884 11.075 15.3884H11.0763Z" fill="#FF9600"/>
</g>
<defs>
<clipPath id="clip0_107_5733">
<rect width="45" height="45.0958" fill="white" transform="translate(0.107422 0.0292969)"/>
</clipPath>
</defs>
</svg>
