<svg width="46" height="45" viewBox="0 0 46 45" fill="none" xmlns="http://www.w3.org/2000/svg">
<path d="M8.8458 40.7724C8.68408 40.5923 8.67793 40.2767 8.6542 30.4673C8.64101 24.9012 8.65068 20.2614 8.67529 20.1586C8.70342 20.0452 9.68955 19.1944 11.1477 18.0272L13.5743 16.084H23.0533H32.5332L34.952 18.0158C36.5006 19.2524 37.3883 20.0197 37.419 20.1472C37.4463 20.257 37.4568 24.9012 37.4436 30.4673C37.4199 40.2767 37.4138 40.5923 37.252 40.7724L37.0842 40.957H23.0489H9.01367L8.8458 40.7724ZM36.2325 37.0459V34.2773H23.0489H9.86533V37.0459V39.8144H23.0489H36.2325V37.0459ZM36.2325 30.3662V27.5976H23.0489H9.86533V30.3662V33.1348H23.0489H36.2325V30.3662ZM36.2325 23.5986V20.8301H23.0489H9.86533V23.5986V26.3672H23.0489H36.2325V23.5986ZM33.6617 18.457L32.1228 17.2265H23.0489H13.9751L12.4361 18.457L10.898 19.6875H23.0489H35.1998L33.6617 18.457ZM6.58086 23.988C5.49101 22.9702 4.83535 21.8443 4.48994 20.3994C4.24736 19.3869 4.2957 17.673 4.59189 16.7431C5.35742 14.3402 7.20488 12.5842 9.68955 11.8995C10.441 11.693 12.328 11.6806 13.0347 11.8784L13.5233 12.0155L13.7228 11.25C13.9645 10.3227 14.6088 8.96395 15.2047 8.12635C16.7164 6.00028 19.1211 4.52459 21.7306 4.12293C22.7562 3.96473 24.5791 4.06756 25.6399 4.34266C27.8539 4.91747 30.0169 6.45116 31.2693 8.33553L31.6648 8.92967L32.4769 8.72401C33.9061 8.3619 35.714 8.46649 36.9998 8.98592C39.3772 9.94569 41.0401 11.8643 41.6018 14.2972C41.7626 14.9941 41.7854 15.3017 41.7503 16.2844C41.7143 17.2925 41.6712 17.557 41.4269 18.2812C40.976 19.6189 40.1269 20.8969 39.2041 21.6264C38.7163 22.0122 38.428 22.0588 38.1661 21.7969C37.8594 21.4901 37.9481 21.2915 38.777 20.4249C40.0602 19.0828 40.6218 17.7205 40.6253 15.9442C40.6306 13.5228 39.2647 11.3484 37.0675 10.2806C36.0383 9.78045 35.3492 9.64334 34.0792 9.68817C33.1757 9.71981 32.9076 9.76639 32.2089 10.009C31.7431 10.1716 31.3186 10.27 31.2201 10.2384C31.1252 10.2085 30.8888 9.91141 30.6937 9.57743C29.5177 7.56297 27.715 6.14969 25.4659 5.47733C24.7417 5.26112 24.5492 5.2409 23.1808 5.24178C21.4098 5.24266 20.7972 5.37538 19.4015 6.05829C17.634 6.92225 16.2998 8.23622 15.4244 9.97557C15.1054 10.611 14.738 11.7457 14.6571 12.3486C14.5218 13.3602 14.3179 13.4965 13.3915 13.1941C11.7022 12.6431 10.303 12.7362 8.72627 13.5061C7.34551 14.1811 6.28203 15.394 5.76084 16.8899C5.43476 17.8251 5.38203 19.2085 5.6334 20.2043C5.95244 21.4655 6.44814 22.2829 7.50722 23.2928C8.15322 23.908 8.23496 24.1304 7.93174 24.4336C7.60215 24.7632 7.30771 24.6665 6.58086 23.988ZM24.6749 38.6552C24.5782 38.5998 24.4701 38.5119 24.435 38.46C24.3989 38.4073 24.369 37.7675 24.369 37.0371C24.3673 35.3021 24.2847 35.3865 26.024 35.347C26.8019 35.3294 27.4408 35.3566 27.6386 35.4155C28.0895 35.55 28.1738 35.8734 28.1343 37.3025C28.0921 38.8151 28.1606 38.7606 26.2692 38.7571C25.3789 38.7554 24.7856 38.7176 24.6749 38.6552ZM26.9161 37.0898V36.5625H26.213H25.5099V37.0898V37.6172H26.213H26.9161V37.0898ZM30.7833 38.7017C30.4722 38.584 30.4317 38.3924 30.4317 37.0353C30.4317 35.5526 30.459 35.4726 30.9907 35.3724C31.1498 35.3426 31.8362 35.3311 32.5165 35.347C34.1987 35.3865 34.1231 35.3074 34.1231 37.0424C34.1231 38.0531 34.0933 38.4161 33.9983 38.5453C33.885 38.7009 33.7461 38.7176 32.3943 38.7334C31.5805 38.7439 30.8562 38.729 30.7833 38.7017ZM32.9806 37.0898V36.5625H32.2774H31.5743V37.0898V37.6172H32.2774H32.9806V37.0898ZM12.6778 38.4961C12.4423 38.2605 12.4563 38.0065 12.7174 37.7446L12.9336 37.5293H17.2763C21.5363 37.5293 21.6233 37.5328 21.851 37.7112C22.1129 37.9178 22.1463 38.1893 21.945 38.4767L21.8088 38.6719H17.3308C12.9705 38.6719 12.8492 38.6675 12.6778 38.4961ZM12.7174 36.3472C12.5987 36.2285 12.502 36.087 12.502 36.0334C12.502 35.898 12.684 35.5649 12.8009 35.4876C12.8536 35.4515 14.8848 35.4217 17.3141 35.4217C21.6145 35.4199 21.735 35.4243 21.9063 35.5957C22.1393 35.8286 22.1287 36.1362 21.8791 36.3718C21.6752 36.5625 21.6708 36.5625 17.3044 36.5625H12.9336L12.7174 36.3472ZM12.684 31.761C12.5838 31.6336 12.502 31.4806 12.502 31.4209C12.502 31.3611 12.5838 31.2082 12.684 31.0807L12.8668 30.8496H17.2982C21.6137 30.8496 21.735 30.854 21.9063 31.0254C22.003 31.1221 22.0821 31.2996 22.0821 31.4209C22.0821 31.5422 22.003 31.7197 21.9063 31.8164C21.735 31.9878 21.6137 31.9922 17.2982 31.9922H12.8668L12.684 31.761ZM24.5123 31.8313C24.391 31.6969 24.3673 31.4543 24.3673 30.3372C24.3673 28.5486 24.2548 28.6523 26.2033 28.6523C28.2072 28.6523 28.1026 28.5609 28.1026 30.3047C28.1026 32.1003 28.2239 31.9922 26.213 31.9922C24.8182 31.9922 24.6433 31.9755 24.5123 31.8313ZM26.9161 30.3223V29.7949H26.213H25.5099V30.3223V30.8496H26.213H26.9161V30.3223ZM30.5768 31.8313C30.4546 31.696 30.4317 31.4516 30.4317 30.2985C30.4317 28.5398 30.3043 28.6523 32.2968 28.6523C34.2356 28.6523 34.1231 28.5477 34.1231 30.353C34.1231 31.5474 34.1047 31.718 33.9623 31.8472C33.8261 31.9702 33.5712 31.9922 32.2625 31.9922C30.8826 31.9922 30.7077 31.9755 30.5768 31.8313ZM32.9806 30.3223V29.7949H32.2774H31.5743V30.3223V30.8496H32.2774H32.9806V30.3223ZM12.9433 29.8055C12.8228 29.7712 12.6664 29.6402 12.5952 29.5137C12.43 29.2183 12.5724 28.8641 12.9081 28.7358C13.0566 28.6796 14.7072 28.6567 17.4441 28.6717L21.7464 28.6963L21.9143 28.9037C22.0065 29.018 22.0821 29.1814 22.0821 29.2676C22.0821 29.3537 22.0065 29.5172 21.9143 29.6314L21.7464 29.8389L17.4538 29.8529C15.0931 29.8608 13.0628 29.8397 12.9433 29.8055ZM12.8554 25.1991C12.539 25.04 12.4353 24.6814 12.6216 24.3967L12.7701 24.1699H17.2895H21.8088L21.945 24.365C22.1463 24.6524 22.1129 24.924 21.851 25.1306C21.6233 25.309 21.5363 25.3125 17.3466 25.3116C14.0929 25.3098 13.0215 25.2835 12.8554 25.1991ZM24.5431 25.1367C24.3822 24.9759 24.3673 24.844 24.3673 23.6118C24.3673 22.4174 24.3857 22.2469 24.5281 22.1177C24.6644 21.9946 24.9192 21.9726 26.2279 21.9726C28.2213 21.9726 28.1026 21.8654 28.1026 23.6601C28.1026 25.4039 28.2072 25.3125 26.2033 25.3125C24.8357 25.3125 24.7048 25.2984 24.5431 25.1367ZM26.9161 23.6426V23.1152H26.213H25.5099V23.6426V24.1699H26.213H26.9161V23.6426ZM30.6269 25.1754C30.4396 25.0444 30.4317 24.9855 30.4317 23.6514C30.4317 22.4182 30.4493 22.2477 30.5926 22.1177C30.7288 21.9946 30.9837 21.9726 32.2924 21.9726C33.6723 21.9726 33.8472 21.9893 33.9781 22.1335C34.0994 22.268 34.1231 22.5105 34.1231 23.6276C34.1231 25.4153 34.2348 25.3125 32.2968 25.3125C31.105 25.3125 30.7851 25.2861 30.6269 25.1754ZM32.9806 23.6426V23.1152H32.2774H31.5743V23.6426V24.1699H32.2774H32.9806V23.6426ZM12.684 22.8841C12.5838 22.7566 12.502 22.6037 12.502 22.5439C12.502 22.4842 12.5838 22.3312 12.684 22.2038L12.8668 21.9726H17.2982C21.6137 21.9726 21.735 21.977 21.9063 22.1484C22.003 22.2451 22.0821 22.4226 22.0821 22.5439C22.0821 22.6652 22.003 22.8428 21.9063 22.9394C21.735 23.1108 21.6137 23.1152 17.2982 23.1152H12.8668L12.684 22.8841Z" fill="#E0E0E0"/>
</svg>
