<svg width="45" height="46" viewBox="0 0 45 46" fill="none" xmlns="http://www.w3.org/2000/svg">
<g clip-path="url(#clip0_107_5949)">
<path d="M22.4482 45.2128C19.3467 45.2128 16.2439 45.2141 13.1424 45.2128C11.3349 45.2116 10.212 44.0875 10.212 42.2787C10.212 38.1171 10.2145 33.9554 10.2145 29.7938C10.2145 29.1695 10.2132 29.1757 9.57298 29.1671C8.22598 29.1486 6.87529 29.252 5.5443 28.8962C0.339776 27.5036 -1.74105 21.0789 1.66707 16.9124C2.37997 16.0406 3.232 15.3511 4.24286 14.8697C4.58269 14.7072 4.6972 14.5028 4.71813 14.1322C4.9496 10.0469 8.3331 6.86531 12.3753 6.94288C13.6189 6.96627 14.8107 7.26177 15.8906 7.90572C16.2033 8.09287 16.3338 8.07317 16.4828 7.7038C18.2669 3.26511 21.5322 0.667159 26.2811 0.106937C32.5852 -0.636743 38.414 4.01741 39.1724 10.287C39.3152 11.469 39.3177 12.6473 39.069 13.8133C38.9976 14.1482 39.0887 14.2676 39.4051 14.3649C42.535 15.3339 44.3979 17.443 44.9187 20.6751C45.3816 23.5476 43.85 26.6159 41.3025 28.0996C40.0786 28.8125 38.7624 29.1609 37.3501 29.1622C36.6742 29.1622 35.9982 29.1831 35.3235 29.1548C34.9061 29.1375 34.7645 29.2705 34.7682 29.7002C34.7867 32.2957 34.7793 34.8912 34.7805 37.4867C34.7805 39.1144 34.7842 40.7421 34.7805 42.3699C34.7756 44.053 33.6244 45.2054 31.9388 45.2079C28.7757 45.2128 25.6113 45.2091 22.4482 45.2091V45.2128ZM36.4144 28.3828C37.0128 28.3717 37.6075 28.3766 38.2071 28.315C41.5216 27.974 44.1553 25.1384 44.2267 21.8042C44.2981 18.5192 42.0105 15.6602 38.7649 14.9781C38.1702 14.8537 38.0864 14.7392 38.2268 14.1667C38.5703 12.7581 38.5851 11.3446 38.3401 9.91883C37.3268 4.05189 31.7984 -0.0605143 25.8317 0.922029C21.4017 1.65093 18.454 4.25751 16.9876 8.51396C16.7426 9.22563 16.6367 9.26749 15.9878 8.84148C14.7849 8.04978 13.4588 7.64346 12.0244 7.7001C8.31217 7.84785 5.47289 10.8238 5.47166 14.5582C5.47166 15.0199 5.30421 15.244 4.8905 15.4127C2.33441 16.4593 0.641434 19.1299 0.768254 21.8743C0.90123 24.7333 2.81584 27.2143 5.5086 28.0491C6.85805 28.4677 8.24199 28.3483 9.61976 28.3914C10.0839 28.4062 10.2231 28.272 10.2194 27.8004C10.2009 24.9291 10.212 22.0578 10.2182 19.1865C10.2218 17.5157 11.3792 16.3374 13.0574 16.3337C17.7104 16.3226 22.3633 16.3324 27.0162 16.3263C27.3142 16.3263 27.5419 16.4174 27.7537 16.6279C29.9737 18.8381 32.1973 21.0432 34.4259 23.2447C34.6722 23.4873 34.7842 23.752 34.7805 24.1017C34.767 25.3453 34.7904 26.5901 34.7707 27.8324C34.7645 28.2399 34.8642 28.4308 35.3087 28.3902C35.6744 28.3557 36.045 28.3828 36.4132 28.384L36.4144 28.3828ZM22.4839 44.4162C25.6163 44.4162 28.7486 44.4187 31.8809 44.415C33.1725 44.4137 33.9839 43.6048 33.9851 42.3144C33.99 36.4487 33.9851 30.5843 34.0011 24.7185C34.0011 24.2827 33.8534 24.1694 33.4421 24.1743C31.9228 24.1928 30.4022 24.1829 28.8816 24.1817C27.5395 24.1817 26.9189 23.5562 26.9177 22.1994C26.9165 20.7256 26.9214 19.2518 26.9202 17.7779C26.9202 17.1808 26.9005 17.1599 26.2947 17.1599C21.9188 17.1599 17.5429 17.1919 13.167 17.1414C11.7043 17.1241 10.9791 18.215 10.9828 19.3527C11.0123 26.9681 11.0025 34.5834 11.0062 42.1987C11.0062 43.6393 11.7831 44.415 13.2261 44.4162C16.3116 44.4174 19.3984 44.4162 22.4839 44.4162ZM33.2107 23.454C31.3699 21.5985 29.5292 19.7443 27.6835 17.8838C27.6835 18.007 27.6811 18.1719 27.6835 18.3369C27.702 19.6704 27.7229 21.0026 27.7414 22.3361C27.7525 23.1278 28.0258 23.4048 28.8286 23.4085C30.2089 23.4134 31.5879 23.4122 32.9681 23.4085C33.0826 23.4085 33.2119 23.4528 33.2094 23.4553L33.2107 23.454Z" fill="#FF9600"/>
<path d="M22.4682 42.0791C20.1953 42.0791 17.9224 42.0803 15.6495 42.0791C14.4909 42.0791 13.8937 41.4819 13.8913 40.3209C13.8876 39.0157 13.8863 37.7106 13.8925 36.4055C13.8974 35.4476 14.5414 34.7617 15.434 34.7457C16.3255 34.731 17.0519 35.4439 17.0753 36.3833C17.0925 37.074 17.0901 37.766 17.0765 38.4567C17.0704 38.7683 17.1713 38.8938 17.4988 38.8926C20.8319 38.884 24.1636 38.884 27.4967 38.8926C27.8291 38.8926 27.919 38.7572 27.9141 38.4506C27.9017 37.7438 27.8956 37.0371 27.9177 36.3316C27.9436 35.514 28.5482 34.859 29.3312 34.7544C30.0712 34.6559 30.8247 35.1422 31.0353 35.8662C31.0808 36.025 31.0956 36.1986 31.0969 36.3648C31.1018 37.7315 31.1055 39.0982 31.0981 40.4649C31.0932 41.4352 30.4541 42.0717 29.4716 42.0754C27.1371 42.0816 24.8027 42.0779 22.4694 42.0779L22.4682 42.0791ZM22.4485 41.2837C24.7522 41.2837 27.0546 41.2862 29.3583 41.2825C29.9641 41.2825 30.2953 41.0018 30.3002 40.4563C30.3125 39.0896 30.3064 37.7229 30.3039 36.3575C30.3039 35.9499 30.0823 35.6963 29.7055 35.5818C29.2069 35.4291 28.7255 35.8526 28.7094 36.4904C28.6885 37.3338 28.7058 38.1797 28.7008 39.0231C28.6984 39.5821 28.6097 39.6806 28.068 39.6818C24.352 39.6843 20.6361 39.6843 16.9214 39.6818C16.3735 39.6818 16.2934 39.5944 16.291 39.0268C16.2873 38.1674 16.3033 37.3068 16.2799 36.4473C16.2664 35.9314 15.8871 35.5436 15.4685 35.5448C15.0068 35.5473 14.6891 35.9228 14.6867 36.4917C14.6817 37.7512 14.683 39.0096 14.6867 40.2692C14.6891 41.0178 14.96 41.2825 15.7234 41.2837C17.9655 41.2862 20.2064 41.2837 22.4485 41.2837Z" fill="#FF9600"/>
<path d="M25.8416 33.4899C25.8466 34.0168 25.7124 34.3862 25.4193 34.6842C24.8172 35.2974 24.2188 35.9142 23.5958 36.5052C22.9593 37.111 22.0272 37.1085 21.3919 36.5028C20.7812 35.9204 20.1828 35.3257 19.6016 34.7137C18.7176 33.7817 19.1411 32.3399 20.4019 32.0579C20.839 31.9606 20.9154 31.7686 20.9092 31.3746C20.8883 29.9943 20.8994 28.6129 20.9055 27.2326C20.9105 26.2131 21.5532 25.5286 22.4951 25.5298C23.437 25.5298 24.0797 26.2131 24.0834 27.2338C24.0896 28.6449 24.0982 30.0571 24.0797 31.4681C24.0748 31.8264 24.1831 31.9754 24.5414 32.0505C25.3651 32.2217 25.8416 32.8213 25.8404 33.4911L25.8416 33.4899ZM21.6898 29.7333H21.6935C21.6935 30.5619 21.696 31.3906 21.6935 32.2192C21.6911 32.8792 21.5963 32.9567 20.9388 32.8582C20.5608 32.8016 20.2333 32.8644 20.0412 33.2436C19.854 33.6142 19.9575 33.927 20.2333 34.2028C20.7861 34.7568 21.3328 35.3183 21.8979 35.8588C22.3018 36.2454 22.7081 36.2393 23.1156 35.844C23.6783 35.2998 24.2262 34.7408 24.7766 34.1843C25.0536 33.9048 25.1374 33.5847 24.9428 33.2215C24.7421 32.8459 24.406 32.7991 24.0329 32.8595C23.4124 32.9592 23.3016 32.8718 23.3016 32.2401C23.2991 30.69 23.3016 29.1398 23.304 27.5897C23.304 26.6896 23.0578 26.303 22.4865 26.3104C21.9287 26.3178 21.6923 26.6921 21.6923 27.5663C21.6923 28.2878 21.6923 29.0093 21.6923 29.7308L21.6898 29.7333Z" fill="#FF9600"/>
<path d="M16.8264 19.1161C17.1477 19.1161 17.4691 19.1026 17.7904 19.121C18.0354 19.1346 18.2571 19.2306 18.2534 19.5249C18.2497 19.7908 18.0453 19.9029 17.8175 19.9066C17.1145 19.9201 16.4102 19.9201 15.7071 19.9029C15.4843 19.898 15.2651 19.7908 15.259 19.5298C15.2516 19.2392 15.4843 19.1407 15.7256 19.1272C16.0913 19.1063 16.4594 19.1223 16.8264 19.1223C16.8264 19.121 16.8264 19.1186 16.8264 19.1173V19.1161Z" fill="#FF9600"/>
<path d="M14.3723 21.112C14.6925 21.112 15.0126 21.1034 15.3327 21.1145C15.574 21.1231 15.7563 21.2401 15.7489 21.5023C15.7427 21.7375 15.5654 21.8594 15.3487 21.8619C14.7085 21.873 14.0682 21.8742 13.428 21.8557C13.194 21.8483 13.013 21.7018 13.0327 21.4432C13.0512 21.2068 13.2383 21.117 13.4563 21.112C13.7616 21.1046 14.0657 21.1108 14.3711 21.1108C14.3711 21.1108 14.3711 21.1108 14.3711 21.112H14.3723Z" fill="#FF9600"/>
<path d="M13.8541 19.9324C13.5204 19.8992 13.0452 19.9964 13.0488 19.499C13.0525 19.0324 13.5118 19.121 13.8344 19.1062C14.0006 19.0988 14.1705 19.1038 14.3355 19.1259C14.5645 19.1567 14.7566 19.2626 14.7468 19.5273C14.7381 19.7896 14.5374 19.8807 14.3109 19.909C14.1607 19.9287 14.008 19.925 13.8541 19.9324Z" fill="#FF9600"/>
</g>
<defs>
<clipPath id="clip0_107_5949">
<rect width="45" height="45.1835" fill="white" transform="translate(0 0.0292969)"/>
</clipPath>
</defs>
</svg>
