<svg width="44" height="44" viewBox="0 0 44 44" fill="none" xmlns="http://www.w3.org/2000/svg">
<path d="M1.91599 38.8559C1.6702 38.7709 1.31442 38.5938 1.12536 38.4632C0.693955 38.1641 0.207548 37.4577 0.0863765 36.9533C0.0219234 36.6817 0.00129842 32.1425 0.0184859 21.7423L0.0425484 6.91812L0.245361 6.46867C0.483408 5.94359 1.04974 5.38929 1.61692 5.12718C2.01395 4.94414 2.08614 4.94156 7.67724 4.91749C13.9533 4.88999 14.0091 4.89429 14.7645 5.43742C15.0395 5.63507 15.5981 6.33804 16.7058 7.88062L18.2613 10.0471L26.6402 10.072L35.0191 10.0978L35.4574 10.2963C35.9713 10.5284 36.5127 11.0577 36.7954 11.6017C36.994 11.985 36.9957 12.0202 37.0197 15.3185L37.0447 18.6486L38.6096 18.6512C40.5887 18.6546 41.314 18.7457 41.9861 19.0757C42.4991 19.3275 43.1531 19.9093 43.4874 20.412C43.7263 20.7704 43.9996 21.6891 43.9996 22.1342C43.9996 22.3396 43.9557 22.7109 43.9025 22.9601C43.7822 23.5204 36.3769 38.3721 36.0813 38.6445C35.9696 38.7477 35.7693 38.874 35.6361 38.9238C35.4686 38.9883 30.375 39.0149 18.8783 39.0132C3.21278 39.0106 2.33966 39.002 1.91599 38.8559ZM37.9247 29.4123C39.9356 25.3741 41.4232 22.2889 41.4223 22.1574C41.4206 21.8102 41.0554 21.4347 40.6111 21.323C40.074 21.188 11.4095 21.1863 10.8733 21.3212C10.667 21.3728 10.4212 21.4983 10.3275 21.6005C10.1918 21.7484 3.35114 36.258 3.35114 36.399C3.35114 36.4205 10.343 36.4377 18.8886 36.4377H34.4253L37.9247 29.4123ZM5.32599 26.0375C6.70356 23.0847 7.94966 20.4945 8.09403 20.2814C8.67669 19.4246 9.56528 18.903 10.7272 18.7345C11.0726 18.6847 15.9023 18.6512 22.8804 18.6503L34.4605 18.6486V15.6425V12.6373L26.0601 12.6132L17.6597 12.59L17.1845 12.3562C16.9233 12.2282 16.5941 12.0039 16.454 11.8587C16.314 11.7134 15.5414 10.677 14.7379 9.55726L13.2769 7.51968L7.92731 7.49734L2.5777 7.47499L2.58114 19.6575C2.58372 30.0327 2.60177 31.8082 2.70231 31.6234C2.76763 31.504 3.94755 28.9903 5.32599 26.0375Z" fill="#E0E0E0"/>
</svg>
