<svg width="47" height="45" viewBox="0 0 47 45" fill="none" xmlns="http://www.w3.org/2000/svg">
<g clip-path="url(#clip0_107_5448)">
<path fill-rule="evenodd" clip-rule="evenodd" d="M35.6885 6.82803C35.6885 6.32892 36.1165 5.92432 36.6446 5.92432H45.2495C45.7775 5.92432 46.2055 6.32892 46.2055 6.82803C46.2055 7.32713 45.7775 7.73174 45.2495 7.73174H36.6446C36.1165 7.73174 35.6885 7.32713 35.6885 6.82803Z" fill="#FF9600"/>
<path fill-rule="evenodd" clip-rule="evenodd" d="M34.7334 22.1259C34.7334 21.6268 35.1615 21.2222 35.6895 21.2222H45.2505C45.7785 21.2222 46.2066 21.6268 46.2066 22.1259C46.2066 22.625 45.7785 23.0296 45.2505 23.0296H35.6895C35.1615 23.0296 34.7334 22.625 34.7334 22.1259Z" fill="#FF9600"/>
<path fill-rule="evenodd" clip-rule="evenodd" d="M34.7334 37.5546C34.7334 37.0554 35.1615 36.6509 35.6895 36.6509H45.2505C45.7785 36.6509 46.2066 37.0554 46.2066 37.5546C46.2066 38.0537 45.7785 38.4582 45.2505 38.4582H35.6895C35.1615 38.4582 34.7334 38.0537 34.7334 37.5546Z" fill="#FF9600"/>
<path fill-rule="evenodd" clip-rule="evenodd" d="M16.1892 7.73174C14.077 7.73174 12.3647 9.35015 12.3647 11.3465V17.6726C12.3647 20.6672 9.7964 23.0948 6.62817 23.0948H1.26957C0.741536 23.0948 0.313477 22.6901 0.313477 22.1911C0.313477 21.692 0.741536 21.2873 1.26957 21.2873H6.62817C8.74032 21.2873 10.4526 19.6689 10.4526 17.6726V11.3465C10.4526 8.35194 13.0209 5.92432 16.1892 5.92432H19.4355C19.9635 5.92432 20.3916 6.32892 20.3916 6.82803C20.3916 7.32713 19.9635 7.73174 19.4355 7.73174H16.1892Z" fill="#FF9600"/>
<path fill-rule="evenodd" clip-rule="evenodd" d="M0.313477 22.1913C0.313477 21.6922 0.741536 21.2876 1.26957 21.2876H19.4355C19.9635 21.2876 20.3916 21.6922 20.3916 22.1913C20.3916 22.6904 19.9635 23.095 19.4355 23.095H1.26957C0.741536 23.095 0.313477 22.6904 0.313477 22.1913Z" fill="#FF9600"/>
<path fill-rule="evenodd" clip-rule="evenodd" d="M0.313477 22.1913C0.313477 21.6922 0.741536 21.2876 1.26957 21.2876H6.62817C9.7964 21.2876 12.3647 23.7152 12.3647 26.7099V33.0359C12.3647 35.0323 14.077 36.6506 16.1892 36.6506H19.4355C19.9635 36.6506 20.3916 37.0553 20.3916 37.5544C20.3916 38.0535 19.9635 38.4581 19.4355 38.4581H16.1892C13.0209 38.4581 10.4526 36.0305 10.4526 33.0359V26.7099C10.4526 24.7135 8.74032 23.095 6.62817 23.095H1.26957C0.741536 23.095 0.313477 22.6904 0.313477 22.1913Z" fill="#FF9600"/>
<path fill-rule="evenodd" clip-rule="evenodd" d="M18.8867 3.21357C18.8867 1.71626 20.1709 0.502441 21.7549 0.502441H33.2282C34.8123 0.502441 36.0965 1.71626 36.0965 3.21357V10.4432C36.0965 11.9405 34.8123 13.1543 33.2282 13.1543H21.7549C20.1709 13.1543 18.8867 11.9405 18.8867 10.4432V3.21357ZM21.7549 2.30986C21.2269 2.30986 20.7989 2.71447 20.7989 3.21357V10.4432C20.7989 10.9423 21.2269 11.347 21.7549 11.347H33.2282C33.7562 11.347 34.1843 10.9423 34.1843 10.4432V3.21357C34.1843 2.71447 33.7562 2.30986 33.2282 2.30986H21.7549Z" fill="#FF9600"/>
<path fill-rule="evenodd" clip-rule="evenodd" d="M23.2587 3.21387C23.7869 3.21387 24.2148 3.61847 24.2148 4.11758V9.53978C24.2148 10.0389 23.7869 10.4435 23.2587 10.4435C22.7307 10.4435 22.3027 10.0389 22.3027 9.53978V4.11758C22.3027 3.61847 22.7307 3.21387 23.2587 3.21387Z" fill="#FF9600"/>
<path fill-rule="evenodd" clip-rule="evenodd" d="M27.5615 3.21387C28.0896 3.21387 28.5176 3.61847 28.5176 4.11758V9.53978C28.5176 10.0389 28.0896 10.4435 27.5615 10.4435C27.0335 10.4435 26.6055 10.0389 26.6055 9.53978V4.11758C26.6055 3.61847 27.0335 3.21387 27.5615 3.21387Z" fill="#FF9600"/>
<path fill-rule="evenodd" clip-rule="evenodd" d="M31.8632 3.21387C32.3914 3.21387 32.8193 3.61847 32.8193 4.11758V9.53978C32.8193 10.0389 32.3914 10.4435 31.8632 10.4435C31.3352 10.4435 30.9072 10.0389 30.9072 9.53978V4.11758C30.9072 3.61847 31.3352 3.21387 31.8632 3.21387Z" fill="#FF9600"/>
<path fill-rule="evenodd" clip-rule="evenodd" d="M18.8867 18.5769C18.8867 17.0795 20.1709 15.8657 21.7549 15.8657H33.2282C34.8123 15.8657 36.0965 17.0795 36.0965 18.5769V25.8065C36.0965 27.3039 34.8123 28.5177 33.2282 28.5177H21.7549C20.1709 28.5177 18.8867 27.3039 18.8867 25.8065V18.5769ZM21.7549 17.6732C21.2269 17.6732 20.7989 18.0778 20.7989 18.5769V25.8065C20.7989 26.3056 21.2269 26.7103 21.7549 26.7103H33.2282C33.7562 26.7103 34.1843 26.3056 34.1843 25.8065V18.5769C34.1843 18.0778 33.7562 17.6732 33.2282 17.6732H21.7549Z" fill="#FF9600"/>
<path fill-rule="evenodd" clip-rule="evenodd" d="M23.2587 18.5088C23.7869 18.5088 24.2148 18.9134 24.2148 19.4125V24.8348C24.2148 25.3339 23.7869 25.7384 23.2587 25.7384C22.7307 25.7384 22.3027 25.3339 22.3027 24.8348V19.4125C22.3027 18.9134 22.7307 18.5088 23.2587 18.5088Z" fill="#FF9600"/>
<path fill-rule="evenodd" clip-rule="evenodd" d="M27.5615 18.5088C28.0896 18.5088 28.5176 18.9134 28.5176 19.4125V24.8348C28.5176 25.3339 28.0896 25.7384 27.5615 25.7384C27.0335 25.7384 26.6055 25.3339 26.6055 24.8348V19.4125C26.6055 18.9134 27.0335 18.5088 27.5615 18.5088Z" fill="#FF9600"/>
<path fill-rule="evenodd" clip-rule="evenodd" d="M31.8632 18.5088C32.3914 18.5088 32.8193 18.9134 32.8193 19.4125V24.8348C32.8193 25.3339 32.3914 25.7384 31.8632 25.7384C31.3352 25.7384 30.9072 25.3339 30.9072 24.8348V19.4125C30.9072 18.9134 31.3352 18.5088 31.8632 18.5088Z" fill="#FF9600"/>
<path fill-rule="evenodd" clip-rule="evenodd" d="M18.8887 33.9401C18.8887 32.4428 20.1728 31.229 21.757 31.229H33.2302C34.8143 31.229 36.0984 32.4428 36.0984 33.9401V41.1697C36.0984 42.6671 34.8143 43.8809 33.2302 43.8809H21.757C20.1728 43.8809 18.8887 42.6671 18.8887 41.1697V33.9401ZM21.757 33.0363C21.229 33.0363 20.8009 33.441 20.8009 33.9401V41.1697C20.8009 41.6689 21.229 42.0734 21.757 42.0734H33.2302C33.7582 42.0734 34.1863 41.6689 34.1863 41.1697V33.9401C34.1863 33.441 33.7582 33.0363 33.2302 33.0363H21.757Z" fill="#FF9600"/>
<path fill-rule="evenodd" clip-rule="evenodd" d="M23.2608 33.9404C23.7888 33.9404 24.2169 34.3451 24.2169 34.8442V40.2664C24.2169 40.7655 23.7888 41.1701 23.2608 41.1701C22.7328 41.1701 22.3047 40.7655 22.3047 40.2664V34.8442C22.3047 34.3451 22.7328 33.9404 23.2608 33.9404Z" fill="#FF9600"/>
<path fill-rule="evenodd" clip-rule="evenodd" d="M27.5635 33.9404C28.0915 33.9404 28.5196 34.3451 28.5196 34.8442V40.2664C28.5196 40.7655 28.0915 41.1701 27.5635 41.1701C27.0355 41.1701 26.6074 40.7655 26.6074 40.2664V34.8442C26.6074 34.3451 27.0355 33.9404 27.5635 33.9404Z" fill="#FF9600"/>
<path fill-rule="evenodd" clip-rule="evenodd" d="M31.8653 33.9404C32.3933 33.9404 32.8214 34.3451 32.8214 34.8442V40.2664C32.8214 40.7655 32.3933 41.1701 31.8653 41.1701C31.3373 41.1701 30.9092 40.7655 30.9092 40.2664V34.8442C30.9092 34.3451 31.3373 33.9404 31.8653 33.9404Z" fill="#FF9600"/>
<path fill-rule="evenodd" clip-rule="evenodd" d="M41.7058 34.1388C42.0791 33.7858 42.6846 33.7858 43.0579 34.1388L45.9262 36.8498C46.2996 37.2028 46.2996 37.775 45.9263 38.1279L43.0579 40.839C42.6846 41.1919 42.0791 41.1919 41.7058 40.839C41.3324 40.4862 41.3324 39.9139 41.7058 39.561L43.898 37.4889L41.7058 35.4167C41.3324 35.0638 41.3324 34.4917 41.7058 34.1388Z" fill="#FF9600"/>
<path fill-rule="evenodd" clip-rule="evenodd" d="M41.7058 18.7764C42.0791 18.4235 42.6846 18.4235 43.0579 18.7764L45.9262 21.4875C46.2996 21.8404 46.2996 22.4126 45.9263 22.7656L43.0579 25.4767C42.6846 25.8296 42.0791 25.8296 41.7058 25.4767C41.3324 25.1238 41.3324 24.5516 41.7058 24.1986L43.898 22.1265L41.7058 20.0544C41.3324 19.7016 41.3324 19.1293 41.7058 18.7764Z" fill="#FF9600"/>
<path fill-rule="evenodd" clip-rule="evenodd" d="M41.7058 3.41313C42.0791 3.06021 42.6846 3.06021 43.0579 3.41313L45.9262 6.12426C46.2996 6.47717 46.2996 7.04937 45.9263 7.40228L43.0579 10.1134C42.6846 10.4663 42.0791 10.4663 41.7058 10.1134C41.3324 9.7605 41.3324 9.1883 41.7058 8.83538L43.898 6.76327L41.7058 4.69116C41.3324 4.33824 41.3324 3.76604 41.7058 3.41313Z" fill="#FF9600"/>
</g>
<defs>
<clipPath id="clip0_107_5448">
<rect width="46.2512" height="43.7169" fill="white" transform="translate(0.313477 0.502441)"/>
</clipPath>
</defs>
</svg>
