<svg width="45" height="52" viewBox="0 0 45 52" fill="none" xmlns="http://www.w3.org/2000/svg">
<g clip-path="url(#clip0_107_5779)">
<path d="M45 22.4585C45 28.6836 45 34.9073 45 41.1323C45 43.2685 44.2203 44.2845 42.162 44.8029C41.9799 44.8488 41.8965 44.9321 41.8646 45.1045C41.5727 46.7042 40.6387 47.6618 39.0237 47.9244C38.793 47.962 38.7805 48.1246 38.7347 48.2941C38.2093 50.2663 37.1919 51.0474 35.1517 51.0474C24.6279 51.0474 14.1027 51.0238 3.57884 51.0696C1.63724 51.0794 -0.00692722 49.7799 2.19481e-05 47.463C0.0375474 34.9267 0.0292084 22.3918 0.0375474 9.85554C0.0389373 7.84168 0.872837 6.759 2.81304 6.28367C3.09657 6.21418 3.16884 6.05018 3.21332 5.81947C3.49962 4.34208 4.39884 3.46787 5.85956 3.1774C6.15142 3.11902 6.25288 2.98282 6.3182 2.71458C6.76851 0.880004 7.85397 0.0294263 9.74136 0.0294263C20.3347 0.0294263 30.9294 0.0280365 41.5227 0.0294263C43.6324 0.0294263 44.9736 1.35811 44.975 3.47204C44.982 9.79995 44.9778 16.1292 44.9778 22.4572H45V22.4585ZM37.8688 28.596H37.8869C37.8869 22.3376 37.8869 16.0792 37.8869 9.8208C37.8869 8.01124 37.0085 7.1273 35.2114 7.1273C27.9482 7.1273 20.6835 7.1273 13.4202 7.1273C10.0402 7.1273 6.65871 7.12869 3.27864 7.11757C2.53369 7.11479 1.92633 7.37608 1.4524 7.94313C0.990973 8.49351 0.886735 9.15229 0.890905 9.84443C0.924261 15.6859 0.853379 21.5274 0.953447 27.3688C1.00765 30.5571 0.967345 33.7482 0.968735 36.9378C0.968735 40.4916 0.974295 44.0454 0.967345 47.5992C0.967345 48.2413 1.04518 48.8459 1.4927 49.3449C2.0264 49.9425 2.70881 50.1524 3.49545 50.1524C14.0526 50.1468 24.6112 50.1482 35.1683 50.1482C36.9765 50.1482 37.8702 49.2448 37.8702 47.4213C37.8702 41.1462 37.8702 34.8698 37.8702 28.5947L37.8688 28.596ZM40.9904 25.5037H41.0084C41.0084 19.2439 41.0098 12.9854 41.0084 6.72564C41.0084 4.91191 40.0995 4.00991 38.2899 4.00991C27.9565 4.00991 17.6217 4.00991 7.2883 4.00991C6.94224 4.00991 6.59478 3.9974 6.24871 4.00991C5.35366 4.04048 4.70183 4.47967 4.28349 5.2552C3.83596 6.08354 3.94993 6.2656 4.86861 6.2656C15.063 6.2656 25.2588 6.2656 35.4533 6.26283C35.9091 6.26283 36.3511 6.2934 36.7736 6.48381C38.1481 7.10367 38.7527 8.19469 38.7541 9.67209C38.7583 21.879 38.7666 34.0845 38.7722 46.2914C38.7722 47.1017 38.8736 47.1684 39.6297 46.814C40.3357 46.4832 40.7708 45.9384 40.9111 45.1601C40.9695 44.8335 40.9917 44.5082 40.9917 44.1775C40.9904 37.9524 40.9917 31.7287 40.9917 25.5037H40.9904ZM41.8701 24.799H41.8854C41.8854 27.5898 41.8854 30.382 41.8854 33.1728C41.8854 36.5709 41.8882 39.9691 41.891 43.3672C41.891 43.9329 41.9577 43.9745 42.4942 43.8022C43.5199 43.47 44.0341 42.6862 44.0452 41.4298C44.08 37.3395 44.0633 33.2478 44.0925 29.1561C44.1536 20.6434 44.1203 12.1307 44.123 3.61658C44.123 1.7695 43.2252 0.884173 41.3698 0.882784C30.8626 0.882784 20.3555 0.882784 9.84838 0.882784C9.65797 0.882784 9.46478 0.871665 9.27715 0.892512C8.3821 0.99119 7.70386 1.42204 7.33834 2.25872C6.99505 3.04397 7.07149 3.14265 7.9179 3.14265C17.9914 3.14265 28.0649 3.18296 38.1384 3.11347C40.6109 3.09679 41.9202 4.71316 41.8951 6.8535C41.8243 12.834 41.8701 18.8172 41.8701 24.7976V24.799Z" fill="#FF9600"/>
<path d="M12.4082 47.4129C11.2143 47.4462 10.2373 47.0098 9.42005 46.219C8.44855 45.2795 7.49096 44.3233 6.55143 43.3518C4.93228 41.6784 4.85167 39.167 6.45554 37.4811C8.31791 35.5229 10.2373 33.6146 12.1914 31.7481C13.8175 30.1942 16.1871 30.2054 17.9078 31.6897C18.1802 31.9246 18.3525 31.9482 18.5874 31.6744C18.8348 31.3853 19.2406 31.1602 19.3365 30.8349C19.4352 30.5 18.9668 30.2651 18.7722 29.9677C17.7354 28.3805 17.791 26.2971 19.1239 24.8587C21.0307 22.8003 22.9987 20.7906 25.0918 18.9199C26.7568 17.4314 29.1376 17.5454 30.7651 19.0784C31.7741 20.0276 32.7553 21.0102 33.7102 22.0151C35.321 23.7121 35.321 26.2026 33.6629 27.9274C31.8492 29.8134 30.0007 31.6688 28.1119 33.4784C26.3899 35.1281 24.0216 35.1226 22.2413 33.5437C22.0189 33.3464 21.8702 33.2783 21.652 33.534C21.3948 33.837 20.9765 34.0719 20.8681 34.4124C20.7514 34.7793 21.2489 35.01 21.4546 35.3158C22.5095 36.8793 22.3858 39.1573 21.0349 40.561C19.1739 42.497 17.2615 44.3858 15.3407 46.2635C14.5319 47.0543 13.5284 47.4643 12.4054 47.4129H12.4082ZM18.9793 27.5883C18.9612 28.482 19.2545 29.2186 19.8216 29.8551C20.0161 30.0733 20.1843 30.0872 20.3775 29.8635C20.4789 29.7453 20.5874 29.63 20.7097 29.5341C21.0252 29.2867 21.0154 29.0838 20.7402 28.7752C20.1774 28.1456 20.1899 27.5605 20.7124 26.9031C20.8528 26.728 21.0113 26.5654 21.1711 26.4069C23.0793 24.5154 24.9903 22.6252 26.9 20.735C27.6894 19.9539 28.3551 19.9275 29.1543 20.6989C30.1522 21.6621 31.1306 22.6461 32.0966 23.6412C32.8221 24.3875 32.8082 25.0894 32.0799 25.8204C30.0618 27.8482 28.041 29.8732 26.016 31.8954C25.3086 32.6014 24.6637 32.6334 23.9202 31.9607C23.6241 31.6939 23.4337 31.7008 23.203 31.9955C23.1182 32.1039 23.0182 32.2039 22.9098 32.2901C22.6179 32.5222 22.654 32.7098 22.9195 32.9572C24.137 34.0913 26.1675 34.108 27.4156 32.8988C29.3336 31.0406 31.2237 29.1546 33.0875 27.2422C34.3773 25.9177 34.3384 23.9205 33.0514 22.6002C32.0952 21.619 31.1265 20.6516 30.1438 19.6954C28.8402 18.4265 26.7832 18.414 25.4949 19.6857C23.6311 21.5245 21.7882 23.3841 19.9411 25.2409C19.2879 25.8983 18.9418 26.6891 18.9765 27.5897L18.9793 27.5883ZM21.2378 37.6201C21.2753 37.0892 21.1016 36.5305 20.8056 36.0093C20.2663 35.0628 20.0898 35.0517 19.356 35.8425C19.1739 36.0385 19.1697 36.1524 19.3476 36.3554C20.119 37.2351 20.1148 37.8341 19.3018 38.6541C17.3254 40.6486 15.3421 42.636 13.3463 44.611C12.5444 45.4046 11.8411 45.3879 11.0448 44.5998C10.108 43.6728 9.17961 42.7389 8.25259 41.8035C7.34503 40.889 7.34503 40.2316 8.26232 39.3129C10.1845 37.3866 12.1108 35.4645 14.0357 33.5423C14.1455 33.4325 14.2581 33.3227 14.3804 33.2255C14.9585 32.7668 15.6521 32.7265 16.1816 33.2282C16.5652 33.5924 16.8028 33.5493 17.0794 33.1657C17.1294 33.0962 17.1934 33.0337 17.2629 32.9822C17.5881 32.7432 17.5436 32.5472 17.2504 32.2901C15.9801 31.1727 14.0121 31.213 12.7584 32.4472C10.8933 34.2831 9.04201 36.133 7.20882 38.0009C5.88014 39.3546 5.89404 41.3671 7.21299 42.718C8.13306 43.6603 9.06564 44.5915 10.0066 45.513C11.3867 46.8639 13.3936 46.8972 14.7667 45.5533C16.6249 43.7354 18.4526 41.8855 20.2844 40.0412C20.9223 39.3991 21.2489 38.6138 21.2378 37.6215V37.6201ZM16.4179 38.0162C15.7716 37.937 15.217 37.6562 14.9127 37.0155C14.6013 36.3609 14.6792 35.7327 15.1184 35.1601C15.2754 34.9558 15.4783 34.7862 15.6548 34.5958C15.7897 34.4499 16.0065 34.3206 15.7841 34.0816C15.5867 33.8676 15.3769 33.6799 15.0655 33.8481C14.946 33.912 14.8432 34.0135 14.7459 34.1108C12.7723 36.083 10.7988 38.0565 8.82798 40.0329C8.3874 40.4748 8.38462 40.6402 8.80991 41.0725C9.77307 42.0467 10.7487 43.0071 11.7091 43.9828C12.0538 44.3316 12.3693 44.301 12.6959 43.9758C14.7056 41.9661 16.7167 39.9564 18.7264 37.9467C19.0488 37.6243 19.0168 37.3171 18.7069 36.9989C18.3442 36.6278 18.1857 37.0183 18.0134 37.1976C17.5784 37.6507 17.1017 37.9954 16.4151 38.019L16.4179 38.0162ZM23.9633 27.138C24.5873 27.1547 25.1252 27.4716 25.4406 28.1303C25.7603 28.7975 25.6366 29.4159 25.1919 29.9746C24.9987 30.2179 24.7541 30.418 24.5456 30.6487C24.4122 30.7974 24.1231 30.9197 24.3997 31.1866C24.6276 31.4048 24.8472 31.6563 25.2058 31.434C25.3072 31.3714 25.3962 31.2853 25.4823 31.1991C27.4573 29.2297 29.4336 27.2617 31.403 25.2881C31.8686 24.8225 31.8589 24.6502 31.3808 24.1693C30.4649 23.2478 29.549 22.3264 28.6289 21.4091C28.1008 20.8824 27.9535 20.8796 27.4392 21.3938C25.4921 23.341 23.5463 25.2923 21.6019 27.2422C21.5046 27.3395 21.3935 27.4368 21.3323 27.5563C21.1753 27.869 21.3003 28.1192 21.5422 28.3374C21.8243 28.5931 21.9355 28.2971 22.0842 28.1679C22.2927 27.9858 22.4775 27.7773 22.6791 27.5883C23.0112 27.2784 23.4129 27.1394 23.9633 27.138ZM24.6846 28.8933C24.7054 28.5042 24.54 28.2234 24.2023 28.0942C23.8132 27.9455 23.4699 28.0497 23.1655 28.3555C20.7861 30.7488 18.3984 33.1337 16.0176 35.5256C15.5742 35.9704 15.5437 36.493 15.9133 36.8515C16.2594 37.1865 16.7625 37.1392 17.1976 36.7084C17.8383 36.076 18.4651 35.4297 19.1016 34.7946C20.8167 33.0837 22.5359 31.3756 24.2523 29.6661C24.4747 29.4451 24.711 29.2325 24.6832 28.8933H24.6846Z" fill="#FF9600"/>
<path d="M14.9474 10.7478C13.6674 10.7478 12.386 10.7492 11.1059 10.7465C10.9169 10.7465 10.7237 10.7423 10.5375 10.7103C10.2943 10.67 10.1136 10.5394 10.1261 10.2614C10.1372 10.0112 10.3123 9.89727 10.5333 9.86252C10.7196 9.83334 10.9114 9.82778 11.1018 9.82778C13.6799 9.825 16.258 9.82639 18.8362 9.82778C19.078 9.82778 19.3226 9.81249 19.5533 9.90422C19.7257 9.97232 19.8563 10.0905 19.8577 10.285C19.8577 10.481 19.7285 10.5964 19.5561 10.6672C19.3421 10.7562 19.1155 10.7465 18.8904 10.7465C17.5756 10.7465 16.2608 10.7465 14.946 10.7465L14.9474 10.7478Z" fill="#FF9600"/>
<path d="M8.2334 14.2058C7.02285 14.2058 5.81092 14.2058 4.60037 14.2058C4.296 14.2058 3.9541 14.1961 3.9541 13.7903C3.9541 13.3942 4.29461 13.358 4.59759 13.3566C7.03675 13.3525 9.47591 13.3539 11.9151 13.3566C12.0179 13.3566 12.1235 13.365 12.2236 13.39C12.4432 13.4442 12.6183 13.5637 12.5989 13.8139C12.5808 14.0543 12.4071 14.1836 12.1764 14.1919C11.7274 14.2086 11.2771 14.2058 10.8268 14.2058C9.96235 14.2072 9.09648 14.2058 8.23201 14.2058H8.2334Z" fill="#FF9600"/>
<path d="M7.57724 17.7399C6.58907 17.7399 5.60229 17.7399 4.61412 17.7399C4.30974 17.7399 3.96507 17.7315 3.94978 17.334C3.9331 16.8948 4.29307 16.8823 4.6169 16.8823C6.6266 16.8823 8.63629 16.8823 10.646 16.8823C10.9504 16.8823 11.295 16.8893 11.3103 17.2868C11.327 17.7246 10.967 17.7385 10.6418 17.7385C9.62029 17.7399 8.59738 17.7385 7.57585 17.7385L7.57724 17.7399Z" fill="#FF9600"/>
<path d="M5.95809 10.7377C5.48972 10.7377 5.02273 10.7502 4.55436 10.7335C4.26944 10.7224 3.95534 10.6502 3.94283 10.2999C3.92893 9.94273 4.24026 9.84822 4.52517 9.84266C5.51195 9.82737 6.50012 9.82876 7.4869 9.84127C7.76765 9.84405 8.01782 9.96775 8.01643 10.293C8.01643 10.596 7.76904 10.7071 7.5147 10.7169C6.99629 10.7363 6.4765 10.7224 5.9567 10.7224C5.9567 10.728 5.9567 10.7322 5.9567 10.7377H5.95809Z" fill="#FF9600"/>
<path d="M17.6691 14.2043C17.1145 14.2043 16.5614 14.2057 16.0069 14.2029C15.7247 14.2015 15.4606 14.1265 15.4537 13.7929C15.4481 13.4593 15.7094 13.3634 15.9902 13.3607C17.0979 13.3551 18.207 13.3537 19.3147 13.3648C19.594 13.3676 19.8567 13.4718 19.8428 13.8068C19.8289 14.1417 19.5607 14.2043 19.2785 14.2043C18.742 14.2043 18.2042 14.2043 17.6677 14.2043H17.6691Z" fill="#FF9600"/>
<path d="M28.1857 40.2484C28.1788 40.45 28.119 40.5848 27.9689 40.6723C27.798 40.771 27.6159 40.7613 27.4852 40.6334C26.7431 39.9065 26.0037 39.1755 25.2837 38.4264C25.1156 38.2526 25.1239 38.0025 25.3088 37.8135C25.4825 37.6356 25.7076 37.637 25.8716 37.7954C26.618 38.5181 27.3504 39.2561 28.0801 39.9969C28.1468 40.065 28.1607 40.1831 28.1885 40.2484H28.1857Z" fill="#FF9600"/>
<path d="M14.6433 27.5911C14.4556 27.5827 14.318 27.4799 14.193 27.3562C13.555 26.7196 12.9171 26.0817 12.2819 25.4424C12.0679 25.2269 11.9289 24.9726 12.1819 24.7169C12.439 24.457 12.6919 24.6057 12.906 24.8169C13.5467 25.4521 14.1832 26.09 14.8198 26.7266C14.9893 26.8961 15.0963 27.0879 15.0018 27.3325C14.9407 27.4924 14.8114 27.573 14.6419 27.5897L14.6433 27.5911Z" fill="#FF9600"/>
<path d="M25.2337 42.7347C25.2337 43.0516 25.1378 43.2087 24.9404 43.2837C24.7055 43.3727 24.504 43.2712 24.422 43.0669C24.0301 42.0913 23.6548 41.11 23.2921 40.1233C23.2115 39.905 23.3296 39.716 23.5422 39.6146C23.7465 39.5173 23.955 39.5868 24.0412 39.7605C24.5318 40.7501 24.8626 41.8036 25.2337 42.7347Z" fill="#FF9600"/>
<path d="M30.1259 37.7508C29.2531 37.4034 28.2719 37.0254 27.3018 36.6195C27.0711 36.5236 26.996 36.286 27.1045 36.0469C27.2045 35.8259 27.4144 35.7537 27.6284 35.8329C28.5832 36.1859 29.5325 36.5473 30.479 36.9225C30.718 37.017 30.8028 37.2352 30.7264 37.4812C30.6555 37.7119 30.4762 37.7953 30.1246 37.7522L30.1259 37.7508Z" fill="#FF9600"/>
<path d="M16.9311 25.088C16.9297 25.4703 16.8269 25.6482 16.592 25.6926C16.3224 25.7427 16.1709 25.5592 16.0833 25.3396C15.8012 24.6336 15.5316 23.922 15.2606 23.2118C15.1744 22.9866 15.0813 22.7601 15.0257 22.5266C14.977 22.3237 15.0674 22.1499 15.2592 22.054C15.4621 21.954 15.6761 22.0096 15.7539 22.1944C16.1778 23.1951 16.5753 24.2069 16.9311 25.0894V25.088Z" fill="#FF9600"/>
<path d="M10.0584 27.5395C10.9701 27.9009 11.9402 28.2734 12.8992 28.6708C13.1285 28.7654 13.2314 28.9877 13.1119 29.2351C12.9965 29.4728 12.7825 29.5381 12.5406 29.445C11.6192 29.092 10.6977 28.7376 9.78043 28.3734C9.53999 28.2789 9.43297 28.0829 9.50802 27.8272C9.57751 27.5923 9.76375 27.5187 10.0584 27.5381V27.5395Z" fill="#FF9600"/>
</g>
<defs>
<clipPath id="clip0_107_5779">
<rect width="45" height="51.0416" fill="white" transform="translate(0 0.0292969)"/>
</clipPath>
</defs>
</svg>
