<svg width="45" height="46" viewBox="0 0 45 46" fill="none" xmlns="http://www.w3.org/2000/svg">
<g clip-path="url(#clip0_107_5926)">
<path d="M22.4835 45.2216C18.0294 45.2216 13.5753 45.2216 9.12125 45.2216C7.71743 45.2216 6.99335 44.5 6.99335 43.0912C6.99335 38.6827 6.99458 34.2754 6.99581 29.8669C6.99581 29.4064 6.76964 29.142 6.3173 29.0739C3.21041 28.6096 0.5259 25.9042 0.0825868 22.7924C-0.396438 19.4294 1.26106 16.3089 4.32485 14.8374C4.60192 14.7044 4.69428 14.5369 4.71398 14.2414C4.95903 10.5693 7.33076 7.8047 10.8613 7.08924C12.5656 6.74321 14.1873 7.01905 15.7254 7.82563C16.3386 8.14704 16.2611 8.20368 16.5418 7.53625C18.3668 3.20286 21.6067 0.659968 26.2799 0.108289C32.5787 -0.636724 38.4083 4.00945 39.1779 10.2848C39.3232 11.467 39.3207 12.6454 39.0818 13.8128C39.008 14.1749 39.1176 14.2919 39.4488 14.383C42.834 15.3189 45.037 18.2743 44.9989 21.806C44.9607 25.3599 42.1284 28.5961 38.6065 29.069C38.1078 29.1355 37.9846 29.3288 37.9859 29.8017C38.0031 34.2557 38.0007 38.7098 37.9994 43.1639C37.9994 44.2327 37.4613 44.9691 36.5316 45.1748C36.3099 45.224 36.0747 45.2191 35.8444 45.2191C31.3904 45.2216 26.9363 45.2203 22.4822 45.2203L22.4835 45.2216ZM27.685 19.2988C29.4361 19.2988 31.1872 19.2988 32.9383 19.2988C33.8902 19.2988 34.8445 19.2693 35.7939 19.3124C37.2963 19.3813 37.9822 20.1325 37.9859 21.6336C37.992 23.6765 37.9957 25.7195 38.0031 27.7612C38.0043 28.2993 38.077 28.3609 38.5819 28.2821C41.7036 27.7907 44.1676 24.9646 44.2304 21.8023C44.2969 18.4615 42.0718 15.6784 38.7802 14.9864C38.1583 14.8558 38.1041 14.7684 38.2482 14.1379C38.5449 12.8363 38.5967 11.5261 38.4021 10.2048C37.5229 4.26681 32.075 0.188332 26.2602 0.845913C22.0131 1.32617 18.2178 4.41212 16.995 8.50046C16.7795 9.22207 16.6354 9.27502 16.0074 8.8588C14.8338 8.08177 13.5384 7.66924 12.1382 7.70372C8.39841 7.79608 5.4984 10.7626 5.47623 14.5037C5.47377 14.9938 5.31492 15.2302 4.86668 15.4346C2.29423 16.6069 0.897791 18.6425 0.783268 21.4501C0.650274 24.7196 2.98752 27.5642 6.21509 28.2304C6.96872 28.3855 6.99581 28.3634 6.99704 27.5962C7.00074 24.3551 7.00074 21.1152 7.01059 17.8741C7.01428 16.5244 7.82333 15.7031 9.15697 15.6981C11.5533 15.6883 13.9484 15.6858 16.3448 15.7006C17.6772 15.708 18.4431 16.5035 18.4579 17.8408C18.469 18.9122 18.8581 19.2964 19.9443 19.2976C22.5241 19.2988 25.1052 19.2976 27.685 19.2976V19.2988ZM22.4945 44.4261C26.9486 44.4261 31.4014 44.4261 35.8555 44.4261C36.7926 44.4261 37.1534 44.0837 37.1534 43.1639C37.1571 37.2518 37.1571 31.3397 37.1534 25.4264C37.1534 24.4523 36.7976 24.11 35.8112 24.11C32.3558 24.1088 28.9004 24.1149 25.445 24.1039C24.9636 24.1026 24.5904 24.2541 24.2579 24.5952C23.444 25.4313 22.6115 26.249 21.7902 27.079C21.3702 27.5026 20.89 27.7181 20.273 27.7156C16.6182 27.6996 12.9633 27.7058 9.30843 27.7095C8.18537 27.7095 7.83934 28.0506 7.83934 29.1539C7.83811 33.8075 7.83934 38.4598 7.84303 43.1134C7.84303 44.0973 8.18414 44.4261 9.18159 44.4261C13.6197 44.4261 18.0577 44.4261 22.4958 44.4261H22.4945ZM22.449 21.1115C25.8896 21.1127 29.329 21.1115 32.7696 21.114C34.081 21.114 34.8618 21.6841 35.2497 22.9475C35.3383 23.2369 35.4787 23.3465 35.773 23.3268C36.1732 23.301 36.571 23.3157 36.9441 23.4992C37.1103 23.5805 37.215 23.5312 37.2113 23.3342C37.1928 22.5683 37.2914 21.7974 37.1522 21.0364C37.0537 20.497 36.683 20.1768 36.14 20.1325C35.9417 20.1165 35.741 20.1214 35.5415 20.1214C30.335 20.1214 25.1286 20.1239 19.9221 20.1214C18.485 20.1214 17.7068 19.3333 17.6957 17.895C17.6883 16.9234 17.3065 16.4789 16.3534 16.4702C13.9423 16.4481 11.5312 16.4518 9.12002 16.4702C8.26049 16.4764 7.78639 16.9357 7.78639 17.7866C7.78639 20.7962 7.81717 23.8058 7.83441 26.8155C7.83564 27.0494 7.89229 27.175 8.15828 27.0642C8.50554 26.9201 8.87497 26.8943 9.2444 26.9214C9.57196 26.9448 9.6717 26.7982 9.66801 26.4867C9.65692 25.5495 9.66431 24.6124 9.66801 23.6765C9.67416 22.0929 10.6458 21.1164 12.2232 21.1152C15.633 21.1127 19.0416 21.1152 22.4514 21.1152L22.449 21.1115ZM22.5241 21.8824C19.0835 21.8836 15.6429 21.8824 12.2035 21.8848C11.1088 21.8848 10.4512 22.5399 10.4438 23.6273C10.4376 24.5336 10.4647 25.44 10.4364 26.345C10.4229 26.7822 10.5509 26.9263 11.0029 26.9238C14.0433 26.9053 17.0849 26.909 20.1265 26.9201C20.5747 26.9214 20.9245 26.781 21.2336 26.4657C22.0525 25.6333 22.8911 24.8205 23.705 23.9856C24.1496 23.53 24.6569 23.312 25.3034 23.3157C28.2059 23.3318 31.1096 23.3231 34.0121 23.3231C34.5539 23.3231 34.6142 23.2283 34.3544 22.7481C34.0232 22.1336 33.4949 21.8774 32.7991 21.8787C29.3745 21.8885 25.9487 21.8824 22.5241 21.8824Z" fill="#FF9600"/>
<path d="M27.7453 42.3609C26.9782 42.3609 26.211 42.3609 25.4426 42.3609C25.3046 42.3609 25.163 42.3634 25.0313 42.3326C24.8342 42.287 24.6976 42.154 24.7086 41.9422C24.7197 41.7341 24.8552 41.6085 25.0621 41.5814C25.1827 41.5654 25.3071 41.5691 25.4303 41.5679C26.9806 41.5679 28.531 41.5679 30.0813 41.5679C30.1737 41.5679 30.2661 41.5679 30.3572 41.5728C30.6035 41.5826 30.7857 41.6959 30.7894 41.9521C30.7931 42.2094 30.6084 42.3412 30.3695 42.3498C29.9102 42.3671 29.4484 42.3609 28.9891 42.3621C28.5741 42.3634 28.1603 42.3621 27.7453 42.3621V42.3609Z" fill="#FF9600"/>
<path d="M31.2167 39.6382C30.665 39.6382 30.1145 39.6456 29.5629 39.6345C29.3018 39.6296 29.0444 39.5409 29.0469 39.2306C29.0506 38.8981 29.3141 38.8143 29.5986 38.8143C30.6859 38.8119 31.7733 38.8119 32.8618 38.8143C33.1599 38.8143 33.4529 38.8919 33.4468 39.2466C33.4406 39.5815 33.1389 39.6357 32.8705 39.6406C32.3188 39.653 31.7683 39.6443 31.2167 39.6443C31.2167 39.6419 31.2167 39.6394 31.2167 39.6382Z" fill="#FF9600"/>
<path d="M26.1504 38.8194C26.4866 38.8194 26.8227 38.8058 27.1565 38.8231C27.4101 38.8366 27.601 38.9622 27.5985 39.2467C27.5961 39.5164 27.3978 39.6235 27.1688 39.6284C26.4989 39.6408 25.8277 39.6383 25.1566 39.6247C24.9042 39.6198 24.6961 39.4942 24.7096 39.2098C24.7232 38.9315 24.9374 38.8268 25.1886 38.8182C25.5088 38.8071 25.829 38.8157 26.1491 38.8157C26.1491 38.8157 26.1491 38.8182 26.1491 38.8194H26.1504Z" fill="#FF9600"/>
<path d="M18.8706 23.51C19.8988 23.51 20.9271 23.5088 21.9553 23.5113C22.2459 23.5113 22.6006 23.4743 22.5932 23.9041C22.587 24.2895 22.2582 24.2846 21.9775 24.2846C19.8742 24.2871 17.7721 24.2858 15.6689 24.2858C15.6073 24.2858 15.5457 24.2858 15.4854 24.2809C15.2477 24.2624 15.047 24.1688 15.0421 23.9078C15.0371 23.6184 15.2514 23.5162 15.5076 23.5137C16.2907 23.5076 17.0727 23.51 17.8559 23.5088C18.1933 23.5088 18.5307 23.5088 18.8693 23.5088L18.8706 23.51Z" fill="#FF9600"/>
<path d="M13.9162 26.2265C13.3178 26.2265 12.7205 26.2265 12.1221 26.2265C11.8376 26.2265 11.5691 26.1699 11.5815 25.8177C11.5925 25.4988 11.8511 25.4458 12.1159 25.4458C13.3424 25.4458 14.5689 25.4458 15.7954 25.447C16.0614 25.447 16.3138 25.516 16.3163 25.8337C16.3188 26.1526 16.07 26.2228 15.8016 26.2241C15.1735 26.2265 14.5443 26.2241 13.9162 26.2241V26.2265Z" fill="#FF9600"/>
<path d="M12.9754 24.2837C12.6848 24.2837 12.3942 24.2911 12.1035 24.2812C11.8646 24.2738 11.6762 24.1679 11.6701 23.9056C11.6639 23.6409 11.8449 23.5214 12.0875 23.5177C12.6995 23.5091 13.3103 23.5103 13.9224 23.5177C14.1612 23.5202 14.3546 23.6298 14.3607 23.8896C14.3669 24.1507 14.176 24.2677 13.9384 24.2788C13.6182 24.2923 13.2968 24.2824 12.9754 24.2824V24.2849V24.2837Z" fill="#FF9600"/>
<path d="M18.1978 26.2181C17.922 26.2181 17.6461 26.2292 17.3715 26.2145C17.1486 26.2021 16.9848 26.079 16.9787 25.845C16.9725 25.6086 17.1363 25.4682 17.3555 25.4621C17.9515 25.446 18.5488 25.4473 19.146 25.4596C19.3664 25.4645 19.5364 25.5938 19.5376 25.829C19.5388 26.0901 19.3566 26.2083 19.1152 26.2169C18.8098 26.228 18.5032 26.2194 18.1966 26.2194V26.2169L18.1978 26.2181Z" fill="#FF9600"/>
</g>
<defs>
<clipPath id="clip0_107_5926">
<rect width="45" height="45.1921" fill="white" transform="translate(0 0.0292969)"/>
</clipPath>
</defs>
</svg>
