<svg width="45" height="46" viewBox="0 0 45 46" fill="none" xmlns="http://www.w3.org/2000/svg">
<g clip-path="url(#clip0_107_5899)">
<path d="M22.4569 45.6889C16.2685 45.6889 10.0814 45.6938 3.89298 45.6852C2.25972 45.6827 1.02648 44.991 0.320004 43.4735C0.0972321 42.9947 0 42.4827 0 41.9547C0.00492314 33.2789 0.00615393 24.6043 0.0209234 15.9285C0.0246157 13.7537 1.58402 12.1967 3.77236 12.1475C4.53914 12.1303 5.30838 12.1303 6.07516 12.15C6.43455 12.1586 6.52809 12.033 6.47147 11.6884C6.34839 10.9315 6.26347 10.1684 6.15024 9.41024C5.92624 7.89883 6.85794 6.63605 8.38535 6.41574C10.5417 6.10558 12.698 5.79788 14.8568 5.50988C15.2544 5.45695 15.3984 5.30187 15.4119 4.89448C15.439 4.05263 15.5153 3.21077 15.5891 2.37014C15.7171 0.917815 16.9172 -0.0655829 18.3769 0.0365724C20.4877 0.184267 22.6009 0.299961 24.713 0.442732C27.1918 0.610119 29.6693 0.794737 32.1469 0.968277C33.998 1.09751 35.8516 1.2009 37.7002 1.35597C38.9888 1.46428 39.939 2.51661 39.9267 3.80278C39.9082 5.66003 39.7027 7.50621 39.5944 9.35855C39.5575 10.001 39.5132 10.6447 39.4602 11.286C39.4307 11.6429 39.5685 11.7869 39.9316 11.7783C40.4842 11.7647 41.0418 11.7401 41.5883 11.8004C43.6363 12.0244 44.9742 13.5285 44.9791 15.5986C44.9902 20.6042 44.9914 25.6098 44.9951 30.6155C44.9975 34.3164 45.0012 38.0162 45 41.7171C45 44.1356 43.4443 45.6889 41.0196 45.6901C34.8312 45.6926 28.6441 45.6901 22.4557 45.6901L22.4569 45.6889ZM22.4532 44.8372C28.6552 44.8372 34.8559 44.8372 41.0578 44.8372C41.4873 44.8372 41.9132 44.8446 42.328 44.6821C43.5107 44.2193 44.1434 43.2667 44.1569 41.8747C44.1889 38.682 44.1434 35.4906 44.1963 32.2979C44.2505 28.9834 44.2184 25.6665 44.2148 22.3507C44.2148 21.8609 44.1791 21.3661 43.9994 20.9021C43.5464 19.7291 42.536 19.0694 41.1846 19.0694C33.4478 19.0682 25.7111 19.0608 17.9756 19.0781C16.5959 19.0818 15.5153 18.5759 14.6574 17.5113C13.7233 16.3519 12.7694 15.2097 11.8155 14.0675C11.226 13.3623 10.4888 12.9623 9.53859 12.9611C7.71334 12.9574 5.88808 12.9192 4.06159 12.9032C3.56928 12.8995 3.0782 12.9414 2.61419 13.1223C1.43633 13.5838 0.781549 14.6398 0.781549 16.0909C0.785241 24.5944 0.791395 33.0992 0.796319 41.6027C0.796319 42.0039 0.840627 42.4002 0.935397 42.7879C1.19632 43.8661 2.32126 44.8556 3.75882 44.8495C9.99029 44.82 16.223 44.8372 22.4557 44.8372H22.4532ZM26.169 18.2965C28.9924 18.2965 31.8158 18.2879 34.6405 18.3051C35.0836 18.3076 35.2276 18.1722 35.2116 17.7267C35.1316 15.5666 35.0848 13.4054 35.0085 11.2441C34.9716 10.2213 34.2159 9.49886 33.1857 9.49147C32.6651 9.48778 32.1457 9.55547 31.625 9.56409C29.9389 9.59363 28.2552 9.67609 26.5702 9.73886C23.3837 9.85825 20.196 9.93948 17.0082 10.0379C15.9818 10.0699 14.9541 10.0859 13.9288 10.1389C13.2076 10.1758 12.6106 10.481 12.3128 11.1727C11.9755 11.958 11.978 12.8121 12.3965 13.5161C12.8457 14.2706 13.5116 14.8959 14.0827 15.5789C14.1516 15.6614 14.2156 15.7562 14.3448 15.7279C15.2248 15.542 16.1196 15.6503 17.0058 15.6085C19.2113 15.5051 21.4181 15.4386 23.6249 15.3636C23.8957 15.3537 24.196 15.3919 24.1973 15.7426C24.1985 16.0983 23.8969 16.1069 23.6262 16.1193C21.7111 16.2091 19.7947 16.2608 17.8796 16.3186C17.0058 16.3457 16.1331 16.3814 15.2593 16.3999C15.1559 16.4023 15.0279 16.3691 14.9639 16.4774C14.8937 16.5943 15.0057 16.6768 15.0648 16.758C15.7799 17.755 16.7042 18.315 17.9781 18.3027C20.7092 18.2756 23.4416 18.2941 26.1727 18.2953L26.169 18.2965ZM32.5764 8.721C32.8226 8.721 33.0675 8.71485 33.3137 8.721C34.5691 8.76038 35.6731 9.79055 35.7691 11.0386C35.8245 11.7561 35.8442 12.4774 35.8651 13.1986C35.9057 14.6091 35.934 16.0196 35.9734 17.43C35.9783 17.6134 36.0202 17.7944 36.0362 17.9777C36.0559 18.2067 36.179 18.2965 36.4005 18.2941C36.9076 18.2891 37.4134 18.2904 37.9205 18.2916C38.1273 18.2916 38.2233 18.1956 38.2381 17.9864C38.3279 16.6411 38.4239 15.2959 38.5187 13.9506C38.6319 12.3457 38.7525 10.7407 38.8571 9.13454C38.9716 7.39052 39.0935 5.6465 39.1698 3.90124C39.2141 2.88584 38.5901 2.20152 37.5857 2.10675C36.6097 2.01445 35.6288 1.96521 34.6503 1.89752C32.5555 1.75229 30.4607 1.60582 28.3647 1.46182C26.8201 1.35598 25.2742 1.25259 23.7296 1.15413C21.8637 1.03474 19.9978 0.896892 18.1295 0.811968C17.1239 0.766429 16.4211 1.46059 16.3436 2.46737C16.2833 3.24646 16.2291 4.02678 16.1664 4.80587C16.1393 5.13572 16.1725 5.30926 16.607 5.24649C20.095 4.73817 23.588 4.26186 27.0785 3.76462C28.9198 3.50124 30.0743 4.33325 30.3672 6.16835C30.4878 6.92528 30.6084 7.68222 30.6995 8.44284C30.7364 8.753 30.8866 8.83792 31.1561 8.80469C31.6287 8.74685 32.1026 8.71115 32.5789 8.721H32.5764ZM8.66227 12.1364C9.38597 12.1143 10.1035 12.1315 10.7952 12.39C11.3331 12.5906 11.3355 12.5844 11.3429 12.0146C11.3626 10.5339 12.4137 9.42624 13.8587 9.36962C15.3897 9.30931 16.9208 9.24408 18.4532 9.19731C20.8741 9.12224 23.2963 9.06931 25.7173 8.99177C27.0034 8.95116 28.2896 8.87485 29.5758 8.82192C29.8515 8.81085 29.9561 8.71977 29.9081 8.42438C29.7813 7.63791 29.6866 6.84651 29.5709 6.05758C29.4342 5.12341 28.7032 4.46125 27.7616 4.5154C26.9074 4.56463 26.057 4.70371 25.2077 4.82187C22.2329 5.23664 19.2606 5.66126 16.287 6.0785C13.6913 6.44281 11.0931 6.79236 8.49858 7.16775C7.33549 7.33513 6.73978 8.17699 6.90963 9.32531C6.99086 9.87178 7.04133 10.4219 7.13241 10.966C7.35025 12.2804 7.06102 12.1278 8.43088 12.1377C8.50719 12.1377 8.58473 12.1377 8.66104 12.1377L8.66227 12.1364ZM44.1323 19.6245C44.1594 19.5938 44.1865 19.5642 44.2135 19.5335C44.2135 18.1094 44.2714 16.6817 44.1975 15.2626C44.1212 13.7968 43.144 12.8097 41.6867 12.5758C41.0332 12.47 40.371 12.5475 39.7125 12.5327C39.4836 12.5278 39.3839 12.6386 39.3728 12.8663C39.3495 13.3401 39.3125 13.8128 39.2793 14.2866C39.1981 15.4312 39.1242 16.5771 39.0282 17.7205C38.9851 18.2424 39.0135 18.2941 39.5587 18.2977C39.7729 18.299 39.9882 18.3064 40.2024 18.2977C41.6769 18.2276 43.1021 18.3064 44.1323 19.6258V19.6245Z" fill="#FF9600"/>
<path d="M32.0926 33.5078C34.3339 33.5078 36.5739 33.5066 38.8152 33.5078C40.1777 33.509 40.75 34.0814 40.7524 35.4426C40.7549 37.0082 40.7574 38.5737 40.7524 40.1393C40.7488 41.3676 40.1494 41.9855 38.9124 41.9867C34.3536 41.9953 29.7948 41.9879 25.2372 41.9916C24.1935 41.9916 23.4254 41.4119 23.4648 40.1922C23.519 38.5368 23.4771 36.8777 23.4796 35.2198C23.4821 34.1158 24.0679 33.5152 25.1855 33.509C27.3652 33.498 29.5449 33.5053 31.7234 33.5053C31.8465 33.5053 31.9696 33.5053 32.0914 33.5053L32.0926 33.5078ZM32.0816 41.1436C34.3844 41.1436 36.6872 41.1448 38.99 41.1436C39.7026 41.1436 39.8995 40.9516 39.9007 40.2476C39.9057 38.5897 39.9057 36.9319 39.902 35.2728C39.9007 34.5552 39.71 34.357 39.0097 34.3558C34.3881 34.3534 29.7665 34.3534 25.1461 34.3558C24.4827 34.3558 24.2747 34.5724 24.2735 35.2494C24.2698 36.8617 24.2722 38.474 24.2735 40.0851C24.2735 40.9762 24.4347 41.1411 25.311 41.1411C27.5683 41.1411 29.8243 41.1411 32.0816 41.1411V41.1436Z" fill="#FF9600"/>
<path d="M20.0383 12.6904C19.61 12.7113 19.1804 12.731 18.7521 12.7544C18.4875 12.7692 18.229 12.7372 18.1847 12.4258C18.1367 12.0873 18.4112 12.0356 18.6623 11.9974C18.7989 11.9765 18.9367 11.9654 19.0746 11.9618C21.482 11.8928 23.8894 11.8338 26.2968 11.7538C28.3042 11.6861 30.3104 11.5925 32.3178 11.515C32.4384 11.5101 32.564 11.5187 32.6821 11.547C32.8606 11.5888 32.9911 11.6984 32.9886 11.8965C32.9861 12.0898 32.8692 12.2104 32.6821 12.2448C32.4864 12.2805 32.2883 12.315 32.0889 12.3211C29.7283 12.3925 27.3664 12.4528 25.0057 12.5304C23.3503 12.5845 21.6961 12.6571 20.0407 12.7224C20.0407 12.7125 20.0407 12.7027 20.0395 12.6928L20.0383 12.6904Z" fill="#FF9600"/>
<path d="M26.9421 16.0284C26.5741 16.0284 26.2061 16.0309 25.8381 16.0284C25.6153 16.0259 25.4344 15.9386 25.4172 15.6949C25.3999 15.4512 25.5784 15.3478 25.7876 15.2985C25.8615 15.2813 25.9403 15.2788 26.0166 15.2764C28.0695 15.2112 30.1225 15.1459 32.1766 15.0832C32.2997 15.0795 32.4228 15.0782 32.5447 15.0844C32.7822 15.0967 32.9828 15.1841 32.9853 15.4512C32.9877 15.7195 32.7859 15.8155 32.5508 15.8278C31.8776 15.8635 31.2043 15.9078 30.5299 15.9164C29.3348 15.9312 28.1397 15.9201 26.9446 15.9201C26.9446 15.9558 26.9446 15.9927 26.9446 16.0284H26.9421Z" fill="#FF9600"/>
<path d="M15.2901 12.8801C15.0612 12.8801 14.8323 12.8899 14.6046 12.8776C14.388 12.8653 14.2144 12.7718 14.2058 12.5232C14.1984 12.2758 14.3621 12.1613 14.5812 12.1466C15.1437 12.1084 15.7061 12.0764 16.2698 12.0666C16.5172 12.0616 16.74 12.181 16.7437 12.4592C16.7474 12.7287 16.5185 12.7915 16.2932 12.8136C15.9597 12.8456 15.6261 12.8727 15.2926 12.9023C15.2926 12.8949 15.2926 12.8875 15.2914 12.8801H15.2901Z" fill="#FF9600"/>
<path d="M32.4326 35.9683C33.1391 35.9683 33.8456 35.9683 34.5508 35.9683C34.8167 35.9683 35.0677 36.0175 35.0567 36.3547C35.0456 36.6698 34.8081 36.7548 34.5397 36.756C33.1268 36.7597 31.7151 36.7597 30.3021 36.756C30.0141 36.756 29.7581 36.6612 29.7704 36.3227C29.7828 35.9954 30.0523 35.9658 30.312 35.9658C31.0185 35.9658 31.7249 35.9658 32.4302 35.9658L32.4326 35.9683Z" fill="#FF9600"/>
<path d="M28.2045 39.5349C27.5756 39.5349 26.9466 39.5349 26.3177 39.5349C26.0494 39.5349 25.802 39.4808 25.8057 39.1509C25.8094 38.8358 26.0432 38.7472 26.314 38.746C27.5879 38.7435 28.8605 38.7423 30.1344 38.746C30.4027 38.746 30.6464 38.8297 30.6488 39.1448C30.6513 39.4672 30.4101 39.5349 30.1381 39.5337C29.4931 39.5325 28.8494 39.5337 28.2045 39.5337V39.5349Z" fill="#FF9600"/>
<path d="M27.3951 35.9696C27.7631 35.9696 28.1311 35.9684 28.5003 35.9708C28.7415 35.9733 28.9397 36.0681 28.9532 36.3278C28.968 36.6121 28.7662 36.7462 28.5102 36.7499C27.7581 36.7622 27.0061 36.761 26.2541 36.7499C25.9981 36.7462 25.7975 36.6195 25.8049 36.3327C25.8135 36.0299 26.04 35.9696 26.291 35.9684C26.6591 35.9659 27.0271 35.9684 27.3963 35.9684L27.3951 35.9696Z" fill="#FF9600"/>
<path d="M33.209 39.5316C32.8582 39.5316 32.5062 39.5353 32.1554 39.5316C31.9117 39.5279 31.7271 39.4147 31.7173 39.1599C31.7062 38.9039 31.8884 38.7611 32.1259 38.7574C32.8742 38.7451 33.6225 38.7439 34.3709 38.7599C34.6096 38.7648 34.7795 38.9199 34.761 39.1784C34.745 39.4098 34.5825 39.5267 34.3549 39.5304C33.9733 39.5365 33.5905 39.5316 33.209 39.5328V39.5316Z" fill="#FF9600"/>
<path d="M36.9987 36.7558C36.6775 36.7558 36.3563 36.7681 36.0362 36.7521C35.7815 36.7386 35.5772 36.6106 35.5932 36.33C35.6079 36.0764 35.8049 35.973 36.0473 35.9718C36.6898 35.9706 37.3323 35.9693 37.9735 35.9743C38.1975 35.9755 38.3661 36.0752 38.3883 36.3152C38.4129 36.5798 38.2418 36.7226 38.0067 36.741C37.672 36.7669 37.3347 36.7472 36.9987 36.7472C36.9987 36.7497 36.9987 36.7534 36.9987 36.7558Z" fill="#FF9600"/>
</g>
<defs>
<clipPath id="clip0_107_5899">
<rect width="45" height="45.6609" fill="white" transform="translate(0 0.0292969)"/>
</clipPath>
</defs>
</svg>
