<svg width="38" height="42" viewBox="0 0 38 42" fill="none" xmlns="http://www.w3.org/2000/svg">
<g clip-path="url(#clip0_149_6436)">
<path fill-rule="evenodd" clip-rule="evenodd" d="M19.639 12.2826V5.54932H18.068V12.2826H19.639ZM31.9954 12.2318L32.7786 13.5803L23.5882 18.8127L22.8051 17.4641L31.9954 12.2318ZM14.9026 17.4645L5.77383 12.2671L4.9907 13.6157L14.1196 18.8129L14.9026 17.4645ZM13.562 24.5209L12.7788 23.1723L4.84668 27.6883L5.62981 29.0369L13.562 24.5209ZM19.639 36.4628V27.4148H18.068V36.4628H19.639ZM24.9593 23.1902L32.7772 27.6411L31.9941 28.9897L24.1761 24.5387L24.9593 23.1902Z" fill="#E0E0E0"/>
<path fill-rule="evenodd" clip-rule="evenodd" d="M21.9948 3.11111C21.9948 1.3929 20.588 0 18.8527 0L18.6959 0.00380746C17.0334 0.0847164 15.7106 1.44496 15.7106 3.11111C15.7106 3.39957 15.7502 3.67885 15.8244 3.94391L5.63293 9.7699C5.05844 9.0314 4.1564 8.55556 3.14212 8.55556L2.9853 8.55936C1.32281 8.64028 0 10.0005 0 11.6666C0 13.139 1.03295 14.3725 2.42045 14.6954V26.5268C1.03295 26.8497 0 28.0832 0 29.5556C0 31.2738 1.40678 32.6666 3.14212 32.6666L3.29894 32.6629C3.99965 32.6287 4.64001 32.3674 5.14642 31.9517L15.8245 38.0558C15.7503 38.321 15.7106 38.6004 15.7106 38.8889C15.7106 40.6071 17.1174 42 18.8527 42L19.0095 41.9962C20.672 41.9153 21.9948 40.555 21.9948 38.8889C21.9948 38.6004 21.9552 38.321 21.8809 38.0559L32.559 31.9517C33.103 32.3983 33.8015 32.6666 34.5633 32.6666L34.7202 32.6629C36.3826 32.5819 37.7055 31.2218 37.7055 29.5556C37.7055 28.0831 36.6724 26.8496 35.2848 26.5268V14.6954C36.6724 14.3726 37.7055 13.1391 37.7055 11.6666C37.7055 9.94849 36.2987 8.55556 34.5633 8.55556L34.4065 8.55936C33.4563 8.60561 32.6172 9.06973 32.0724 9.76999L21.8809 3.94401C21.9552 3.67891 21.9948 3.3996 21.9948 3.11111ZM21.0948 5.29077C20.5588 5.83122 19.825 6.17873 19.0095 6.21842L18.8527 6.22222C17.9747 6.22222 17.1808 5.86562 16.6106 5.29071L6.25104 11.2128C6.27291 11.3609 6.28424 11.5125 6.28424 11.6666C6.28424 13.0934 5.3142 14.2959 3.99151 14.6628V26.5595C5.3142 26.9263 6.28424 28.1288 6.28424 29.5556C6.28424 29.9536 6.20874 30.3342 6.07115 30.6841L16.6108 36.7091C17.1467 36.1687 17.8805 35.8213 18.6959 35.7816L18.8527 35.7778C19.7307 35.7778 20.5245 36.1343 21.0947 36.7091L31.6343 30.6842C31.4967 30.3342 31.4212 29.9536 31.4212 29.5556C31.4212 28.1288 32.3911 26.9264 33.7138 26.5595V14.6627C32.3911 14.2958 31.4212 13.0934 31.4212 11.6666C31.4212 11.5125 31.4325 11.361 31.4544 11.2129L21.0948 5.29077ZM18.8527 37.3334C17.985 37.3334 17.2817 38.0298 17.2817 38.8889C17.2817 39.748 17.985 40.4444 18.8527 40.4444C19.7204 40.4444 20.4238 39.748 20.4238 38.8889C20.4238 38.0298 19.7204 37.3334 18.8527 37.3334ZM32.9922 29.5556C32.9922 28.6964 33.6957 28 34.5633 28C35.4309 28 36.1344 28.6964 36.1344 29.5556C36.1344 30.4147 35.4309 31.1111 34.5633 31.1111C33.6957 31.1111 32.9922 30.4147 32.9922 29.5556ZM3.14212 28C2.27445 28 1.57106 28.6964 1.57106 29.5556C1.57106 30.4147 2.27445 31.1111 3.14212 31.1111C4.00979 31.1111 4.71318 30.4147 4.71318 29.5556C4.71318 28.6964 4.00979 28 3.14212 28ZM1.57106 11.6666C1.57106 10.8076 2.27445 10.1111 3.14212 10.1111C4.00979 10.1111 4.71318 10.8076 4.71318 11.6666C4.71318 12.5258 4.00979 13.2222 3.14212 13.2222C2.27445 13.2222 1.57106 12.5258 1.57106 11.6666ZM34.5633 10.1111C33.6957 10.1111 32.9922 10.8076 32.9922 11.6666C32.9922 12.5258 33.6957 13.2222 34.5633 13.2222C35.4309 13.2222 36.1344 12.5258 36.1344 11.6666C36.1344 10.8076 35.4309 10.1111 34.5633 10.1111ZM18.8527 1.55556C17.985 1.55556 17.2817 2.25201 17.2817 3.11111C17.2817 3.97023 17.985 4.66666 18.8527 4.66666C19.7204 4.66666 20.4238 3.97023 20.4238 3.11111C20.4238 2.25201 19.7204 1.55556 18.8527 1.55556Z" fill="#E0E0E0"/>
<path fill-rule="evenodd" clip-rule="evenodd" d="M18.8536 11.6665C21.5103 11.6665 22.7215 13.1915 22.7791 15.7359L22.7812 15.9285V17.2089C24.1364 17.5543 25.1378 18.7724 25.1378 20.2221V24.8887C25.1378 26.607 23.731 27.9999 21.9956 27.9999H15.7114C13.976 27.9999 12.5693 26.607 12.5693 24.8887V20.2221C12.5693 18.7724 13.5707 17.5543 14.9259 17.2089V15.9285C14.9259 13.2686 16.1304 11.6665 18.8536 11.6665ZM21.2101 15.9285V17.1109H16.4969V15.9285L16.4989 15.7496C16.538 13.9926 17.1716 13.2221 18.8536 13.2221C20.5915 13.2221 21.2101 14.0448 21.2101 15.9285ZM23.5667 20.2221C23.5667 19.3629 22.8634 18.6665 21.9956 18.6665H15.7114C14.8438 18.6665 14.1403 19.3629 14.1403 20.2221V24.8887C14.1403 25.7479 14.8438 26.4443 15.7114 26.4443H21.9956C22.8634 26.4443 23.5667 25.7479 23.5667 24.8887V20.2221ZM19.6338 21.6869C19.5884 21.3001 19.2564 20.9999 18.8536 20.9999C18.4197 20.9999 18.068 21.348 18.068 21.7777V23.3331L18.0733 23.4239C18.1187 23.8107 18.4507 24.1109 18.8536 24.1109C19.2874 24.1109 19.6391 23.7628 19.6391 23.3331V21.7777L19.6338 21.6869Z" fill="#E0E0E0"/>
</g>
<defs>
<clipPath id="clip0_149_6436">
<rect width="38" height="42" fill="white"/>
</clipPath>
</defs>
</svg>
