<svg width="45" height="46" viewBox="0 0 45 46" fill="none" xmlns="http://www.w3.org/2000/svg">
<g clip-path="url(#clip0_107_5983)">
<path d="M22.399 23.249C18.1624 23.249 13.9257 23.249 9.69026 23.249C8.62832 23.249 8.18533 23.8224 8.44128 24.8486C8.5188 25.1612 8.76491 25.0824 8.96179 25.0837C10.6193 25.0898 12.2768 25.0874 13.9355 25.0886C14.0894 25.0886 14.2432 25.0837 14.3958 25.0947C15.4515 25.1772 16.0791 25.8466 16.0803 26.9024C16.084 31.3384 16.0816 35.7744 16.0914 40.2104C16.0914 40.5562 16.0003 40.8171 15.7493 41.0644C14.4684 42.3232 13.1997 43.5943 11.9372 44.8716C11.7034 45.1079 11.4585 45.2063 11.125 45.2051C8.04013 45.1952 4.954 45.2001 1.86909 45.1977C0.707483 45.1977 0.00239695 44.4975 0.00239695 43.3359C0.00116643 37.902 0.00239695 32.468 0.00731901 27.0353C0.00731901 25.7986 0.698869 25.0997 1.95277 25.091C3.64103 25.0787 5.3293 25.0886 7.01757 25.0874C7.65252 25.0874 7.65252 25.0849 7.65621 24.4475C7.66482 23.0164 8.26901 22.4208 9.71979 22.4196C13.6033 22.4184 17.4868 22.4196 21.3703 22.4196C22.0151 22.4196 22.0151 22.4171 22.0176 21.7896C22.0217 20.9807 21.6172 20.5763 20.8043 20.5763C17.9495 20.5763 15.0947 20.5824 12.2399 20.5738C10.6882 20.5701 9.31741 20.0902 8.20256 18.9705C5.69846 16.4565 6.25219 12.2863 9.34817 10.5463C9.75055 10.3199 9.90806 10.0517 9.95851 9.62222C10.2305 7.28547 11.8904 5.45077 14.1866 4.97702C15.3765 4.73091 16.543 4.85027 17.6296 5.42739C17.931 5.58735 18.059 5.56274 18.2005 5.22558C19.5578 1.97333 22.5602 0.000807213 26.0721 0.0291091C30.0738 0.0623331 33.6583 3.29613 34.1222 7.27193C34.212 8.041 34.2317 8.80269 34.1 9.56315C34.0483 9.86094 34.1209 9.99014 34.4236 10.091C36.8133 10.8884 38.2112 12.8868 38.1681 15.4056C38.1238 17.9479 35.9901 20.249 33.4626 20.5086C32.3281 20.6255 31.1935 20.5652 30.059 20.5726C27.833 20.5874 25.607 20.5886 23.3822 20.5677C22.9109 20.5627 22.7768 20.7153 22.7854 21.1755C22.8076 22.4196 22.7891 22.4208 24.0258 22.4208C27.6484 22.4208 31.2711 22.4208 34.8937 22.4208C35.0623 22.4208 35.2321 22.4159 35.4007 22.427C36.5303 22.502 37.1271 23.1321 37.1492 24.2666C37.1599 24.8146 37.4372 25.0886 37.9811 25.0886C39.6238 25.0886 41.2653 25.0861 42.9081 25.0898C44.3404 25.0935 44.9901 25.7457 44.9913 27.1755C44.995 32.5012 44.9975 37.8281 44.9999 43.1538C44.9999 44.5615 44.3588 45.1965 42.9413 45.1965C39.9327 45.1965 36.9241 45.1915 33.9154 45.2038C33.5475 45.2051 33.2817 45.0919 33.0258 44.8322C31.7977 43.5857 30.5611 42.3478 29.3121 41.1222C29.0278 40.8441 28.9048 40.5586 28.906 40.155C28.9208 35.7805 28.9171 31.4061 28.9195 27.0316C28.9195 25.7654 29.5643 25.1033 30.8441 25.091C32.456 25.0763 34.068 25.0886 35.6788 25.0861C36.31 25.0861 36.3186 25.0738 36.3211 24.4389C36.3248 23.4212 36.1464 23.244 35.1078 23.244C30.8711 23.244 26.6345 23.244 22.399 23.244C22.399 23.244 22.399 23.2453 22.399 23.2465V23.249ZM22.3658 19.7531C22.3658 19.7531 22.3658 19.7506 22.3658 19.7494C25.9109 19.7494 29.4573 19.7703 33.0024 19.742C35.3625 19.7223 37.3018 17.8002 37.4076 15.4524C37.5122 13.1304 36.0762 11.2379 33.8096 10.7125C33.2054 10.5722 33.1341 10.475 33.2731 9.84986C33.486 8.89129 33.4786 7.93518 33.3063 6.97168C32.6049 3.04757 28.8248 0.255524 24.865 0.875705C21.8232 1.35191 19.7633 3.06479 18.7235 5.97127C18.4774 6.65913 18.3396 6.71943 17.7095 6.33674C16.276 5.46553 14.7735 5.36832 13.2698 6.0894C11.5791 6.90031 10.7473 8.3191 10.6624 10.171C10.6414 10.6214 10.4655 10.8404 10.0619 11.0238C8.07951 11.9221 7.03357 14.0742 7.48394 16.1575C7.92446 18.1915 9.81085 19.7961 12.0492 19.7654C15.4872 19.7186 18.9253 19.7531 22.3633 19.7531H22.3658ZM44.2062 35.1776H44.2124C44.2124 32.4766 44.2149 29.7744 44.2112 27.0734C44.2112 26.2293 43.9085 25.9216 43.0865 25.9216C38.9889 25.9192 34.89 25.9192 30.7924 25.9216C29.9876 25.9216 29.7022 26.2059 29.7022 26.9971C29.7022 31.187 29.7108 35.3769 29.7022 39.5681C29.7022 39.9631 29.8141 40.1083 30.2239 40.1058C31.0668 40.1009 31.9134 40.0295 32.7526 40.1464C33.534 40.2547 33.9462 40.7395 33.9524 41.5197C33.9597 42.3023 33.977 43.0861 33.945 43.8675C33.9277 44.2994 34.0766 44.4138 34.495 44.4114C37.3043 44.3954 40.1123 44.404 42.9216 44.4028C43.8912 44.4028 44.2063 44.0841 44.2075 43.0972C44.2087 40.4577 44.2075 37.8171 44.2075 35.1776H44.2062ZM0.788697 35.137H0.792389C0.792389 36.1349 0.792389 37.1317 0.792389 38.1296C0.792389 39.8486 0.787467 41.5677 0.79608 43.2855C0.799772 43.993 1.15785 44.3966 1.80633 44.3979C4.75342 44.4065 7.69928 44.3991 10.6464 44.4065C10.9429 44.4065 11.0561 44.3043 11.0512 44.0041C11.0377 43.2522 11.0463 42.5004 11.0475 41.7486C11.0487 40.6152 11.5225 40.1243 12.6607 40.1009C13.3363 40.0874 14.0106 40.0984 14.6862 40.0972C15.2903 40.096 15.2916 40.0935 15.2916 39.477C15.294 35.3646 15.2965 31.251 15.299 27.1386C15.299 26.1604 15.0602 25.9241 14.0709 25.9229C10.0656 25.9229 6.06023 25.9229 2.0549 25.9229C1.05572 25.9229 0.789928 26.196 0.789928 27.2174C0.789928 29.8568 0.789928 32.4963 0.789928 35.1358L0.788697 35.137ZM14.5077 40.9659C13.7743 40.9659 13.0139 40.9524 12.2559 40.9733C12.0196 40.9795 11.8597 41.1727 11.8547 41.4089C11.84 42.1546 11.8486 42.9003 11.8486 43.6042C12.7321 42.7268 13.6144 41.8519 14.5077 40.9659ZM33.1562 43.6374C33.1562 42.92 33.1611 42.2161 33.1537 41.5111C33.1501 41.137 32.9384 40.9536 32.5693 40.9524C32.0943 40.9499 31.6181 40.9426 31.1431 40.9524C30.9142 40.9573 30.6718 40.8958 30.4897 40.9881C31.3806 41.8741 32.2555 42.744 33.155 43.6374H33.1562Z" fill="#FF9600"/>
<path d="M35.1424 39.0095C34.2675 39.0095 33.3926 39.0107 32.5177 39.0082C32.3651 39.0082 32.2088 39.007 32.0599 38.9787C31.8458 38.9381 31.6895 38.8175 31.6944 38.5763C31.6981 38.3585 31.8421 38.2416 32.0365 38.201C32.1854 38.1703 32.3405 38.1616 32.4931 38.1616C34.2736 38.1592 36.0529 38.1567 37.8335 38.1641C38.1596 38.1653 38.6112 38.1013 38.6161 38.5751C38.6223 39.0931 38.1473 39.0021 37.8113 39.007C36.9217 39.0193 36.0308 39.0107 35.1411 39.0107L35.1424 39.0095Z" fill="#FF9600"/>
<path d="M34.8297 28.6942C34.0175 28.6942 33.2054 28.6979 32.3932 28.6917C32.2431 28.6917 32.0856 28.6733 31.9429 28.6278C31.7841 28.5785 31.698 28.4444 31.6992 28.2734C31.7005 28.1023 31.7915 27.9719 31.9515 27.9276C32.1115 27.8833 32.2825 27.8624 32.4486 27.8624C34.0114 27.8575 35.5754 27.855 37.1381 27.8636C37.463 27.8661 37.9269 27.807 37.9355 28.2635C37.9441 28.7668 37.4679 28.6856 37.127 28.6905C36.3604 28.7004 35.5938 28.693 34.8284 28.693L34.8297 28.6942Z" fill="#FF9600"/>
<path d="M39.0924 35.5285C38.279 35.5285 37.4669 35.5285 36.6535 35.5285C36.3619 35.5285 36.0505 35.51 36.0542 35.1323C36.0579 34.7988 36.3422 34.7397 36.624 34.7397C38.2962 34.7397 39.9673 34.7397 41.6395 34.7397C41.9238 34.7397 42.1982 34.8123 42.1933 35.1483C42.1884 35.4916 41.9029 35.5285 41.6223 35.5273C40.7782 35.5248 39.9353 35.5273 39.0911 35.5273L39.0924 35.5285Z" fill="#FF9600"/>
<path d="M39.2176 41.6392C40.0298 41.6392 40.8407 41.6392 41.6528 41.6392C41.9396 41.6392 42.2078 41.7031 42.1955 42.0452C42.1857 42.3479 41.9334 42.4292 41.6651 42.4304C40.0261 42.4304 38.3883 42.4316 36.7492 42.4304C36.4638 42.4304 36.2066 42.3516 36.2115 42.0083C36.2164 41.6785 36.4736 41.6392 36.7369 41.6392C37.5638 41.6392 38.3907 41.6392 39.2176 41.6392Z" fill="#FF9600"/>
<path d="M39.4135 31.3276C40.1494 31.3276 40.8865 31.3276 41.6223 31.3276C41.9029 31.3276 42.1859 31.3719 42.1908 31.7128C42.1945 32.0524 41.9164 32.1139 41.6334 32.1139C40.1309 32.1139 38.6272 32.1139 37.1248 32.1139C36.8393 32.1139 36.5784 32.0426 36.5846 31.6968C36.5907 31.3682 36.8504 31.3289 37.1137 31.3289C37.8803 31.3289 38.6469 31.3289 39.4148 31.3289L39.4135 31.3276Z" fill="#FF9600"/>
<path d="M34.0581 31.3277C34.6254 31.3277 35.1926 31.3277 35.7611 31.3277C36.0282 31.3277 36.2829 31.3905 36.2829 31.7092C36.2829 32.0156 36.0466 32.1115 35.7722 32.1115C34.5909 32.1115 33.4109 32.1128 32.2296 32.1115C31.9613 32.1115 31.714 32.0389 31.7091 31.7227C31.7041 31.404 31.949 31.3289 32.2185 31.3277C32.8325 31.3265 33.4453 31.3277 34.0593 31.3277H34.0581Z" fill="#FF9600"/>
<path d="M40.5752 28.6845C40.2073 28.6845 39.8394 28.6968 39.4727 28.6808C39.2217 28.6697 39.0088 28.5504 39.0113 28.2698C39.0137 28.0114 39.2217 27.9007 39.4518 27.8871C40.2159 27.8404 40.9825 27.8404 41.7467 27.8871C41.9768 27.9019 42.1848 28.0126 42.186 28.271C42.1884 28.5516 41.9743 28.671 41.7233 28.6808C41.3406 28.6968 40.9579 28.6845 40.5752 28.6845Z" fill="#FF9600"/>
<path d="M33.3629 35.5283C32.979 35.5283 32.5951 35.5283 32.2124 35.5283C31.9441 35.5283 31.698 35.4754 31.7017 35.1444C31.7042 34.8577 31.917 34.7481 32.1718 34.7469C32.9999 34.7395 33.8293 34.7383 34.6574 34.7494C34.9133 34.7531 35.1201 34.886 35.1053 35.1677C35.0918 35.4212 34.8974 35.5258 34.6525 35.5271C34.223 35.5271 33.7936 35.5271 33.3629 35.5271V35.5295V35.5283Z" fill="#FF9600"/>
<path d="M40.937 38.9851C40.6614 38.9851 40.3845 39.0061 40.1113 38.9778C39.896 38.9556 39.7385 38.8092 39.7459 38.5754C39.752 38.3687 39.896 38.2235 40.0929 38.2001C40.6872 38.1312 41.284 38.1189 41.8771 38.2062C42.074 38.2358 42.2069 38.3871 42.1995 38.5975C42.1921 38.8067 42.0506 38.9458 41.8537 38.9704C41.551 39.0073 41.2434 39.0073 40.9382 39.0221C40.9382 39.0098 40.9382 38.9962 40.9382 38.9839L40.937 38.9851Z" fill="#FF9600"/>
<path d="M9.78876 39.0095C8.91386 39.0095 8.03897 39.012 7.16407 39.0095C7.01148 39.0095 6.85521 39.0046 6.70632 38.9738C6.51189 38.9332 6.36915 38.8188 6.363 38.5998C6.35685 38.3807 6.48728 38.254 6.68294 38.2072C6.8306 38.1715 6.98687 38.1617 7.13823 38.1617C8.93478 38.1592 10.7301 38.1605 12.5267 38.1605C12.5722 38.1605 12.6189 38.1592 12.6645 38.1617C12.9623 38.1826 13.3043 38.1961 13.2957 38.5973C13.2859 38.996 12.9401 39.0058 12.6448 39.0083C11.6936 39.0144 10.7412 39.0108 9.78999 39.0108L9.78876 39.0095Z" fill="#FF9600"/>
<path d="M10.1651 28.6952C9.36651 28.6952 8.56914 28.6952 7.77053 28.6952C7.60195 28.6952 7.43091 28.7051 7.27463 28.6238C7.12697 28.5475 7.02853 28.4294 7.03714 28.2608C7.04576 28.0935 7.14297 27.9618 7.30663 27.9261C7.49982 27.8843 7.70039 27.8609 7.89851 27.8609C9.43296 27.856 10.9686 27.8535 12.5031 27.8621C12.8255 27.8646 13.2783 27.7895 13.2832 28.2731C13.2882 28.7592 12.8415 28.6891 12.5142 28.6927C11.7316 28.7001 10.949 28.6952 10.1663 28.6952H10.1651Z" fill="#FF9600"/>
<path d="M5.87684 35.5283C5.0487 35.5283 4.21933 35.5258 3.39119 35.5283C3.11433 35.5283 2.81777 35.5037 2.80424 35.164C2.78947 34.7998 3.08849 34.7383 3.3875 34.7383C5.04501 34.7383 6.70128 34.7383 8.35879 34.7383C8.65657 34.7383 8.95682 34.7961 8.94574 35.1603C8.9359 35.5012 8.64058 35.5295 8.36248 35.5283C7.53434 35.5258 6.70497 35.5283 5.87684 35.5283Z" fill="#FF9600"/>
<path d="M5.81403 41.6392C6.62617 41.6392 7.43709 41.6392 8.24923 41.6392C8.5101 41.6392 8.77343 41.6687 8.78573 41.9973C8.79927 42.3381 8.54824 42.4292 8.25907 42.4304C6.62002 42.4329 4.9822 42.4329 3.34316 42.4304C3.05645 42.4304 2.79188 42.3455 2.8005 42.012C2.80788 41.7032 3.0626 41.6379 3.33208 41.6392C4.15899 41.6416 4.9859 41.6392 5.8128 41.6392H5.81403Z" fill="#FF9600"/>
<path d="M5.62708 31.325C6.37646 31.325 7.12585 31.325 7.87523 31.325C8.15456 31.325 8.42774 31.3656 8.41543 31.7249C8.40559 32.0387 8.16194 32.1113 7.89369 32.1125C6.37893 32.1137 4.86539 32.1137 3.35062 32.1125C3.06514 32.1125 2.79443 32.0387 2.8055 31.7028C2.81658 31.3644 3.0996 31.3225 3.37893 31.3238C4.12831 31.3262 4.87769 31.3238 5.62708 31.3238V31.325Z" fill="#FF9600"/>
<path d="M11.0132 32.115C10.4324 32.115 9.8516 32.1137 9.2708 32.115C8.98409 32.115 8.71707 32.0448 8.71584 31.7126C8.71338 31.3656 8.99762 31.325 9.27572 31.3262C10.4213 31.3262 11.5682 31.3262 12.7138 31.3262C12.9882 31.3262 13.2786 31.3545 13.2909 31.6978C13.3044 32.0719 13.0042 32.115 12.7101 32.115C12.1441 32.115 11.5792 32.115 11.0132 32.115Z" fill="#FF9600"/>
<path d="M4.35609 28.6931C4.02016 28.6931 3.68423 28.6993 3.3483 28.6919C3.08497 28.6857 2.83517 28.6057 2.81303 28.3055C2.78965 27.9917 3.04313 27.8846 3.30031 27.8797C4.03247 27.865 4.76462 27.865 5.49678 27.8797C5.75519 27.8846 6.00868 27.9905 5.98776 28.303C5.96807 28.6033 5.71705 28.6857 5.45495 28.6919C5.08825 28.6993 4.72279 28.6943 4.35609 28.6943V28.6931Z" fill="#FF9600"/>
<path d="M11.616 35.5285C11.2198 35.5285 10.8223 35.526 10.4261 35.5285C10.1578 35.531 9.90681 35.4682 9.8945 35.1581C9.8822 34.8529 10.1185 34.7447 10.3904 34.7434C11.1989 34.7385 12.0085 34.7373 12.817 34.7434C13.0902 34.7459 13.3116 34.8628 13.2993 35.1716C13.287 35.467 13.0594 35.5273 12.8084 35.526C12.4121 35.526 12.0147 35.526 11.6185 35.526L11.616 35.5285Z" fill="#FF9600"/>
<path d="M4.04491 38.1815C4.31808 38.1815 4.59372 38.163 4.86566 38.1876C5.07977 38.2061 5.24712 38.3402 5.25328 38.5691C5.26066 38.8238 5.08592 38.9752 4.85336 38.985C4.30578 39.0059 3.75697 39.0059 3.21062 38.9862C2.97928 38.9776 2.7947 38.8312 2.79839 38.5789C2.80209 38.3279 2.99159 38.1987 3.22292 38.1803C3.49487 38.1581 3.7705 38.1753 4.04368 38.1753C4.04368 38.1778 4.04368 38.179 4.04368 38.1815H4.04491Z" fill="#FF9600"/>
</g>
<defs>
<clipPath id="clip0_107_5983">
<rect width="45" height="45.176" fill="white" transform="translate(0 0.0292969)"/>
</clipPath>
</defs>
</svg>
