<svg width="46" height="42" viewBox="0 0 46 42" fill="none" xmlns="http://www.w3.org/2000/svg">
<g clip-path="url(#clip0_107_5480)">
<path d="M19.7636 0.135742C23.3697 0.135742 26.709 1.74986 29.0032 4.46114L29.2343 4.74233L29.261 4.72636C30.1266 4.20815 31.1159 3.9059 32.1516 3.85913L32.4352 3.85274C35.6026 3.85274 38.2103 6.2253 38.5439 9.27322L38.5631 9.49284L38.7586 9.52123C42.3141 10.0967 45.035 13.2744 45.1469 17.1235L45.1505 17.3701C45.1505 20.8776 42.9668 23.9515 39.8081 24.9663C39.2921 25.132 38.738 24.8522 38.5706 24.3414C38.4032 23.8306 38.6857 23.282 39.2018 23.1162C41.5386 22.3655 43.1858 20.0467 43.1858 17.3701C43.1858 14.1193 40.7813 11.4949 37.8264 11.3771L37.5982 11.3734C37.0123 11.3862 36.5456 10.8916 36.5983 10.3138C36.6096 10.1889 36.6154 10.0629 36.6154 9.93607C36.6154 7.6505 34.7438 5.79767 32.4352 5.79767C31.4013 5.79767 30.4284 6.16939 29.671 6.83249C29.2249 7.22294 28.5334 7.13394 28.2031 6.64359C26.2896 3.80344 23.1654 2.08068 19.7636 2.08068C14.8605 2.08068 10.6567 5.6651 9.68913 10.5903C9.60567 11.0152 9.25079 11.3293 8.82497 11.3722L8.70723 11.377L8.5 11.3732C5.42947 11.3732 2.91184 14.0436 2.91184 17.3701C2.91184 20.0008 4.50334 22.2897 6.7846 23.0791C7.29672 23.2563 7.56677 23.811 7.38777 24.318C7.20876 24.8251 6.6485 25.0924 6.13638 24.9152C3.0558 23.8492 0.947266 20.8166 0.947266 17.3701C0.947266 13.2457 3.94277 9.83495 7.81219 9.46217L7.93529 9.452L7.96869 9.32849C9.39733 4.06482 14.0322 0.275579 19.4612 0.139528L19.7636 0.135742Z" fill="#FF9600"/>
<path fill-rule="evenodd" clip-rule="evenodd" d="M35.5026 15.3276C38.2151 15.3276 40.414 17.5046 40.414 20.19V25.0524C40.414 27.7377 38.2151 29.9147 35.5026 29.9147H24.5227V36.2829C25.3601 36.5759 26.0237 37.2329 26.3197 38.0618H39.4183C39.9608 38.0618 40.4006 38.4973 40.4006 39.0343C40.4006 39.533 40.0213 39.9441 39.5328 40.0002L39.4183 40.0068H26.3197C25.9151 41.1399 24.8236 41.9517 23.5405 41.9517C22.2573 41.9517 21.1656 41.1397 20.7612 40.0064L20.7547 40.0068H6.8415C6.29898 40.0068 5.8592 39.5714 5.8592 39.0343C5.8592 38.5356 6.2384 38.1246 6.72693 38.0684L6.8415 38.0618H20.7547H20.7613C21.0572 37.2329 21.7208 36.5759 22.5582 36.2829V29.9147H10.596C7.8835 29.9147 5.68457 27.7377 5.68457 25.0524V20.19C5.68457 17.5046 7.8835 15.3276 10.596 15.3276H35.5026ZM35.5026 17.2726H10.596C9.02664 17.2726 7.74378 18.4872 7.65415 20.0186L7.64915 20.19V25.0524C7.64915 26.6061 8.87596 27.876 10.4229 27.9648L10.596 27.9697H35.5026C37.072 27.9697 38.3548 26.7553 38.4445 25.2238L38.4494 25.0524V20.19C38.4494 18.6363 37.2227 17.3663 35.6757 17.2775L35.5026 17.2726ZM23.5405 38.0618C24.0829 38.0618 24.5227 38.4973 24.5227 39.0343C24.5227 39.5714 24.0829 40.0068 23.5405 40.0068C22.9979 40.0068 22.5582 39.5714 22.5582 39.0343C22.5582 38.4973 22.9979 38.0618 23.5405 38.0618Z" fill="#FF9600"/>
<path d="M33.7355 21.5298C34.278 21.5298 34.7178 21.9652 34.7178 22.5023C34.7178 23.001 34.3386 23.412 33.85 23.4683L33.7355 23.4748H20.5946C20.0521 23.4748 19.6123 23.0393 19.6123 22.5023C19.6123 22.0036 19.9915 21.5925 20.48 21.5364L20.5946 21.5298H33.7355Z" fill="#FF9600"/>
<path fill-rule="evenodd" clip-rule="evenodd" d="M16.6642 22.5024C16.6642 20.8911 15.3449 19.585 13.7174 19.585C12.0899 19.585 10.7705 20.8911 10.7705 22.5024C10.7705 24.1135 12.0899 25.4198 13.7174 25.4198C15.3449 25.4198 16.6642 24.1135 16.6642 22.5024ZM12.7351 22.5024C12.7351 21.9652 13.1749 21.5299 13.7174 21.5299C14.2599 21.5299 14.6997 21.9652 14.6997 22.5024C14.6997 23.0394 14.2599 23.4748 13.7174 23.4748C13.1749 23.4748 12.7351 23.0394 12.7351 22.5024Z" fill="#FF9600"/>
</g>
<defs>
<clipPath id="clip0_107_5480">
<rect width="44.3505" height="41.8162" fill="white" transform="translate(0.947266 0.135742)"/>
</clipPath>
</defs>
</svg>
