<svg width="43" height="43" viewBox="0 0 43 43" fill="none" xmlns="http://www.w3.org/2000/svg">
<g clip-path="url(#clip0_149_6478)">
<path fill-rule="evenodd" clip-rule="evenodd" d="M32.8887 6.2219C32.8887 5.73098 33.2866 5.33301 33.7776 5.33301H41.7776C42.2685 5.33301 42.6664 5.73098 42.6664 6.2219C42.6664 6.71282 42.2685 7.11079 41.7776 7.11079H33.7776C33.2866 7.11079 32.8887 6.71282 32.8887 6.2219Z" fill="#E0E0E0"/>
<path fill-rule="evenodd" clip-rule="evenodd" d="M32 21.2688C32 20.7779 32.398 20.3799 32.8889 20.3799H41.7778C42.2687 20.3799 42.6667 20.7779 42.6667 21.2688C42.6667 21.7597 42.2687 22.1577 41.7778 22.1577H32.8889C32.398 22.1577 32 21.7597 32 21.2688Z" fill="#E0E0E0"/>
<path fill-rule="evenodd" clip-rule="evenodd" d="M32 36.4446C32 35.9536 32.398 35.5557 32.8889 35.5557H41.7778C42.2687 35.5557 42.6667 35.9536 42.6667 36.4446C42.6667 36.9355 42.2687 37.3334 41.7778 37.3334H32.8889C32.398 37.3334 32 36.9355 32 36.4446Z" fill="#E0E0E0"/>
<path fill-rule="evenodd" clip-rule="evenodd" d="M14.7597 7.11079C12.796 7.11079 11.2041 8.70266 11.2041 10.6663V16.8886C11.2041 19.8341 8.81632 22.2219 5.8708 22.2219H0.888889C0.397969 22.2219 0 21.8239 0 21.333C0 20.8421 0.397969 20.4441 0.888889 20.4441H5.8708C7.83448 20.4441 9.42636 18.8522 9.42636 16.8886V10.6663C9.42636 7.72082 11.8142 5.33301 14.7597 5.33301H17.7778C18.2687 5.33301 18.6667 5.73098 18.6667 6.2219C18.6667 6.71282 18.2687 7.11079 17.7778 7.11079H14.7597Z" fill="#E0E0E0"/>
<path fill-rule="evenodd" clip-rule="evenodd" d="M0 21.3332C0 20.8423 0.397969 20.4443 0.888889 20.4443H17.7778C18.2687 20.4443 18.6667 20.8423 18.6667 21.3332C18.6667 21.8241 18.2687 22.2221 17.7778 22.2221H0.888889C0.397969 22.2221 0 21.8241 0 21.3332Z" fill="#E0E0E0"/>
<path fill-rule="evenodd" clip-rule="evenodd" d="M0 21.3332C0 20.8423 0.397969 20.4443 0.888889 20.4443H5.8708C8.81632 20.4443 11.2041 22.8321 11.2041 25.7777V31.9999C11.2041 33.9636 12.796 35.5554 14.7597 35.5554H17.7778C18.2687 35.5554 18.6667 35.9534 18.6667 36.4443C18.6667 36.9353 18.2687 37.3332 17.7778 37.3332H14.7597C11.8142 37.3332 9.42636 34.9454 9.42636 31.9999V25.7777C9.42636 23.814 7.83448 22.2221 5.8708 22.2221H0.888889C0.397969 22.2221 0 21.8241 0 21.3332Z" fill="#E0E0E0"/>
<path fill-rule="evenodd" clip-rule="evenodd" d="M17.2676 2.66667C17.2676 1.19391 18.4615 0 19.9342 0H30.6009C32.0737 0 33.2676 1.19391 33.2676 2.66667V9.77778C33.2676 11.2505 32.0737 12.4444 30.6009 12.4444H19.9342C18.4615 12.4444 17.2676 11.2505 17.2676 9.77778V2.66667ZM19.9342 1.77778C19.4433 1.77778 19.0454 2.17575 19.0454 2.66667V9.77778C19.0454 10.2687 19.4433 10.6667 19.9342 10.6667H30.6009C31.0918 10.6667 31.4898 10.2687 31.4898 9.77778V2.66667C31.4898 2.17575 31.0918 1.77778 30.6009 1.77778H19.9342Z" fill="#E0E0E0"/>
<path fill-rule="evenodd" clip-rule="evenodd" d="M21.3322 2.66699C21.8232 2.66699 22.2211 3.06496 22.2211 3.55588V8.88916C22.2211 9.38008 21.8232 9.77804 21.3322 9.77804C20.8413 9.77804 20.4434 9.38008 20.4434 8.88916V3.55588C20.4434 3.06496 20.8413 2.66699 21.3322 2.66699Z" fill="#E0E0E0"/>
<path fill-rule="evenodd" clip-rule="evenodd" d="M25.3322 2.66699C25.8232 2.66699 26.2211 3.06496 26.2211 3.55588V8.88916C26.2211 9.38008 25.8232 9.77804 25.3322 9.77804C24.8413 9.77804 24.4434 9.38008 24.4434 8.88916V3.55588C24.4434 3.06496 24.8413 2.66699 25.3322 2.66699Z" fill="#E0E0E0"/>
<path fill-rule="evenodd" clip-rule="evenodd" d="M29.3322 2.66699C29.8232 2.66699 30.2211 3.06496 30.2211 3.55588V8.88916C30.2211 9.38008 29.8232 9.77804 29.3322 9.77804C28.8413 9.77804 28.4434 9.38008 28.4434 8.88916V3.55588C28.4434 3.06496 28.8413 2.66699 29.3322 2.66699Z" fill="#E0E0E0"/>
<path fill-rule="evenodd" clip-rule="evenodd" d="M17.2676 17.778C17.2676 16.3052 18.4615 15.1113 19.9342 15.1113H30.6009C32.0737 15.1113 33.2676 16.3052 33.2676 17.778V24.8891C33.2676 26.3619 32.0737 27.5558 30.6009 27.5558H19.9342C18.4615 27.5558 17.2676 26.3619 17.2676 24.8891V17.778ZM19.9342 16.8891C19.4433 16.8891 19.0454 17.2871 19.0454 17.778V24.8891C19.0454 25.38 19.4433 25.778 19.9342 25.778H30.6009C31.0918 25.778 31.4898 25.38 31.4898 24.8891V17.778C31.4898 17.2871 31.0918 16.8891 30.6009 16.8891H19.9342Z" fill="#E0E0E0"/>
<path fill-rule="evenodd" clip-rule="evenodd" d="M21.3322 17.7109C21.8232 17.7109 22.2211 18.1089 22.2211 18.5998V23.9332C22.2211 24.4241 21.8232 24.822 21.3322 24.822C20.8413 24.822 20.4434 24.4241 20.4434 23.9332V18.5998C20.4434 18.1089 20.8413 17.7109 21.3322 17.7109Z" fill="#E0E0E0"/>
<path fill-rule="evenodd" clip-rule="evenodd" d="M25.3322 17.7109C25.8232 17.7109 26.2211 18.1089 26.2211 18.5998V23.9332C26.2211 24.4241 25.8232 24.822 25.3322 24.822C24.8413 24.822 24.4434 24.4241 24.4434 23.9332V18.5998C24.4434 18.1089 24.8413 17.7109 25.3322 17.7109Z" fill="#E0E0E0"/>
<path fill-rule="evenodd" clip-rule="evenodd" d="M29.3322 17.7109C29.8232 17.7109 30.2211 18.1089 30.2211 18.5998V23.9332C30.2211 24.4241 29.8232 24.822 29.3322 24.822C28.8413 24.822 28.4434 24.4241 28.4434 23.9332V18.5998C28.4434 18.1089 28.8413 17.7109 29.3322 17.7109Z" fill="#E0E0E0"/>
<path fill-rule="evenodd" clip-rule="evenodd" d="M17.2695 32.8893C17.2695 31.4166 18.4634 30.2227 19.9362 30.2227H30.6029C32.0756 30.2227 33.2695 31.4166 33.2695 32.8893V40.0004C33.2695 41.4732 32.0756 42.6671 30.6029 42.6671H19.9362C18.4634 42.6671 17.2695 41.4732 17.2695 40.0004V32.8893ZM19.9362 32.0004C19.4453 32.0004 19.0473 32.3984 19.0473 32.8893V40.0004C19.0473 40.4914 19.4453 40.8893 19.9362 40.8893H30.6029C31.0938 40.8893 31.4918 40.4914 31.4918 40.0004V32.8893C31.4918 32.3984 31.0938 32.0004 30.6029 32.0004H19.9362Z" fill="#E0E0E0"/>
<path fill-rule="evenodd" clip-rule="evenodd" d="M21.3342 32.8896C21.8251 32.8896 22.2231 33.2876 22.2231 33.7785V39.1119C22.2231 39.6028 21.8251 40.0008 21.3342 40.0008C20.8433 40.0008 20.4453 39.6028 20.4453 39.1119V33.7785C20.4453 33.2876 20.8433 32.8896 21.3342 32.8896Z" fill="#E0E0E0"/>
<path fill-rule="evenodd" clip-rule="evenodd" d="M25.3342 32.8896C25.8251 32.8896 26.2231 33.2876 26.2231 33.7785V39.1119C26.2231 39.6028 25.8251 40.0008 25.3342 40.0008C24.8433 40.0008 24.4453 39.6028 24.4453 39.1119V33.7785C24.4453 33.2876 24.8433 32.8896 25.3342 32.8896Z" fill="#E0E0E0"/>
<path fill-rule="evenodd" clip-rule="evenodd" d="M29.3342 32.8896C29.8251 32.8896 30.2231 33.2876 30.2231 33.7785V39.1119C30.2231 39.6028 29.8251 40.0008 29.3342 40.0008C28.8433 40.0008 28.4453 39.6028 28.4453 39.1119V33.7785C28.4453 33.2876 28.8433 32.8896 29.3342 32.8896Z" fill="#E0E0E0"/>
<path fill-rule="evenodd" clip-rule="evenodd" d="M38.483 33.0846C38.8301 32.7374 39.393 32.7374 39.7401 33.0846L42.4067 35.7512C42.7539 36.0984 42.7539 36.6612 42.4068 37.0083L39.7401 39.675C39.393 40.0221 38.8301 40.0221 38.483 39.675C38.1359 39.3279 38.1359 38.765 38.483 38.4179L40.5211 36.3798L38.483 34.3416C38.1359 33.9945 38.1359 33.4317 38.483 33.0846Z" fill="#E0E0E0"/>
<path fill-rule="evenodd" clip-rule="evenodd" d="M38.483 17.9742C38.8301 17.6271 39.393 17.6271 39.7401 17.9742L42.4067 20.6409C42.7539 20.988 42.7539 21.5508 42.4068 21.898L39.7401 24.5646C39.393 24.9118 38.8301 24.9118 38.483 24.5646C38.1359 24.2175 38.1359 23.6547 38.483 23.3075L40.5211 21.2694L38.483 19.2313C38.1359 18.8842 38.1359 18.3213 38.483 17.9742Z" fill="#E0E0E0"/>
<path fill-rule="evenodd" clip-rule="evenodd" d="M38.483 2.86289C38.8301 2.51576 39.393 2.51576 39.7401 2.86289L42.4067 5.52956C42.7539 5.87669 42.7539 6.4395 42.4068 6.78663L39.7401 9.4533C39.393 9.80043 38.8301 9.80043 38.483 9.4533C38.1359 9.10617 38.1359 8.54336 38.483 8.19622L40.5211 6.1581L38.483 4.11997C38.1359 3.77283 38.1359 3.21002 38.483 2.86289Z" fill="#E0E0E0"/>
</g>
<defs>
<clipPath id="clip0_149_6478">
<rect width="43" height="43" fill="white"/>
</clipPath>
</defs>
</svg>
