<svg width="39" height="43" viewBox="0 0 39 43" fill="none" xmlns="http://www.w3.org/2000/svg">
<g clip-path="url(#clip0_149_6514)">
<path fill-rule="evenodd" clip-rule="evenodd" d="M29.3342 38.2227C33.2616 38.2227 36.4453 35.0389 36.4453 31.1115C36.4453 27.1842 33.2616 24.0004 29.3342 24.0004C25.4068 24.0004 22.2231 27.1842 22.2231 31.1115C22.2231 35.0389 25.4068 38.2227 29.3342 38.2227ZM29.3342 40.0004C34.2434 40.0004 38.2231 36.0207 38.2231 31.1115C38.2231 26.2023 34.2434 22.2227 29.3342 22.2227C24.425 22.2227 20.4453 26.2023 20.4453 31.1115C20.4453 36.0207 24.425 40.0004 29.3342 40.0004Z" fill="#E0E0E0"/>
<path fill-rule="evenodd" clip-rule="evenodd" d="M17.7778 0L0 7.64004V19.1001C0 29.7006 7.58519 39.6136 17.7778 42.0202C20.365 41.4093 22.7842 40.3148 24.9541 38.8481C24.3979 38.5327 23.8791 38.1589 23.4059 37.7353C21.6719 38.8301 19.78 39.669 17.7778 40.1888C14.4311 39.32 11.3925 37.5595 8.88423 35.2028C8.88731 35.1727 8.88889 35.1422 8.88889 35.1113V30.5187C8.88889 27.5731 11.2767 25.1853 14.2222 25.1853H21.3333C21.7625 25.1853 22.1798 25.236 22.5797 25.3317C23.0204 24.8173 23.5188 24.3537 24.065 23.9512C23.224 23.6009 22.3012 23.4076 21.3333 23.4076H14.2222C10.2949 23.4076 7.11111 26.5913 7.11111 30.5187V33.3343C3.79832 29.4196 1.77778 24.3519 1.77778 19.1001V8.81103L17.7778 1.93499L33.7778 8.81102V19.1001C33.7778 20.4821 33.6379 21.8514 33.3713 23.1902C33.9407 23.481 34.4746 23.8315 34.9647 24.2333C35.3513 22.5608 35.5556 20.8397 35.5556 19.1001V7.64004L17.7778 0ZM17.6474 8.88889C14.5383 8.88889 12.0178 11.4094 12.0178 14.5185C12.0178 17.6277 14.5383 20.1481 17.6474 20.1481C20.7566 20.1481 23.2771 17.6277 23.2771 14.5185C23.2771 11.4094 20.7566 8.88889 17.6474 8.88889ZM10.24 14.5185C10.24 10.4275 13.5564 7.11111 17.6474 7.11111C21.7384 7.11111 25.0548 10.4275 25.0548 14.5185C25.0548 18.6095 21.7384 21.9259 17.6474 21.9259C13.5564 21.9259 10.24 18.6095 10.24 14.5185Z" fill="#E0E0E0"/>
<path fill-rule="evenodd" clip-rule="evenodd" d="M33.5773 28.1432C33.9244 28.4903 33.9244 29.0531 33.5773 29.4002L28.3555 34.6221L25.4303 31.6969C25.0831 31.3498 25.0831 30.7869 25.4303 30.4398C25.7774 30.0927 26.3402 30.0927 26.6874 30.4398L28.3555 32.1079L32.3202 28.1432C32.6674 27.796 33.2302 27.796 33.5773 28.1432Z" fill="#E0E0E0"/>
</g>
<defs>
<clipPath id="clip0_149_6514">
<rect width="39" height="43" fill="white"/>
</clipPath>
</defs>
</svg>
