<svg width="45" height="46" viewBox="0 0 45 46" fill="none" xmlns="http://www.w3.org/2000/svg">
<g clip-path="url(#clip0_107_5733)">
<path d="M22.3548 45.125C16.8994 45.125 11.4439 45.125 5.9884 45.125C4.66784 45.125 3.91604 44.539 3.66666 43.2443C2.44929 36.9178 1.24296 30.5902 0.0440114 24.26C-0.21396 22.8965 0.687711 21.8007 2.0783 21.7332C2.49842 21.7127 2.70889 21.4838 2.70971 21.0465C2.7134 17.1081 2.71463 13.1697 2.71954 9.23138C2.722 7.54229 3.71457 6.55954 5.41473 6.55585C6.19273 6.55422 6.58174 6.16685 6.58174 5.39376C6.58174 4.62721 6.57805 3.86067 6.58174 3.09536C6.59279 1.33624 7.90108 0.0353268 9.68968 0.0328699C14.5936 0.0254993 19.4975 0.0304131 24.4014 0.0304131C27.9872 0.0304131 31.573 0.0291846 35.1588 0.0304131C37.1833 0.0316415 38.4277 1.27605 38.4313 3.29682C38.4338 4.23166 38.4412 5.1665 38.4277 6.10133C38.4227 6.43792 38.5444 6.57674 38.8834 6.55831C39.204 6.54111 39.5271 6.55094 39.849 6.55831C41.2408 6.58657 42.2837 7.63196 42.2886 9.02501C42.296 11.7374 42.2923 14.4498 42.2935 17.1622C42.2935 17.7616 42.296 17.7616 42.9078 17.7727C44.2738 17.7997 45.1926 18.8685 44.9666 20.2234C44.2824 24.3301 43.5797 28.4343 42.8832 32.5397C42.2923 36.0235 41.6953 39.5074 41.1093 42.9912C40.8514 44.5218 40.1499 45.125 38.5837 45.125C33.1736 45.125 27.7649 45.125 22.3548 45.125ZM22.3204 44.3314C27.5757 44.3314 32.8321 44.3007 38.0874 44.3462C40.1327 44.3634 40.1585 43.7823 40.4018 42.3647C41.1929 37.7507 41.984 33.1379 42.7751 28.5239C43.2505 25.7477 43.7394 22.9739 44.1939 20.1939C44.3708 19.1105 43.8401 18.5331 42.7407 18.5331C33.6847 18.5331 24.6299 18.5392 15.5739 18.5355C15.1046 18.5355 14.7054 18.6633 14.3467 18.9581C13.1379 19.9482 11.9205 20.9261 10.7166 21.9223C10.2486 22.3093 9.7425 22.5157 9.12214 22.5108C6.88516 22.4948 4.64818 22.5022 2.4112 22.5058C1.13609 22.5083 0.622604 23.1336 0.86092 24.3866C0.987449 25.0487 1.11889 25.7084 1.24542 26.3705C2.3031 31.869 3.36324 37.3674 4.41601 42.8671C4.6359 44.017 5.00197 44.3314 6.18741 44.3314C11.5655 44.3314 16.9436 44.3314 22.3217 44.3314H22.3204ZM22.5084 0.7859C18.3108 0.7859 14.1133 0.817839 9.91571 0.768702C8.40719 0.751504 7.30283 1.7797 7.31757 3.35701C7.36916 9.03975 7.34582 14.7237 7.35074 20.4077C7.35074 21.7221 7.35319 21.6889 8.68359 21.7344C9.39362 21.759 9.9501 21.5403 10.482 21.0931C11.5827 20.1669 12.7251 19.2886 13.8283 18.3636C14.3393 17.9348 14.8921 17.7579 15.5554 17.7592C22.6939 17.7702 29.8335 17.7665 36.972 17.7665C37.4363 17.7665 37.6689 17.529 37.6697 17.0541C37.6734 12.4892 37.6427 7.9231 37.6967 3.35824C37.7164 1.77356 36.6059 0.750275 35.1011 0.767474C30.9035 0.815382 26.7059 0.784672 22.5084 0.784672V0.7859ZM6.57068 14.5333H6.57928C6.57928 12.2963 6.5756 10.0593 6.58297 7.82237C6.58297 7.49929 6.53014 7.28309 6.13704 7.30888C5.80168 7.32977 5.46263 7.30397 5.12604 7.31626C4.20103 7.35065 3.48486 8.03489 3.48117 8.9599C3.47011 13.0666 3.48117 17.1732 3.47626 21.2799C3.47626 21.6251 3.61261 21.7344 3.94183 21.727C4.63098 21.711 5.32136 21.6975 6.00929 21.7319C6.46012 21.754 6.58174 21.5894 6.57805 21.1533C6.55963 18.9471 6.56945 16.7408 6.56945 14.5333H6.57068ZM41.5381 13.1575C41.5381 11.8246 41.543 10.4918 41.5368 9.15891C41.5319 8.00786 40.8526 7.32485 39.7175 7.31257C38.8642 7.30356 38.4375 7.73065 38.4375 8.59383C38.4375 11.4438 38.4375 14.2938 38.4399 17.1437C38.4399 17.7678 38.4424 17.769 39.0836 17.7702C39.7273 17.7702 40.371 17.7518 41.0135 17.7776C41.4152 17.7936 41.5503 17.6511 41.5454 17.2494C41.527 15.8858 41.5381 14.5222 41.5393 13.1587L41.5381 13.1575Z" fill="#FF9600"/>
<path d="M30.637 29.3472C30.481 32.6099 29.0609 35.0778 26.1495 36.5986C25.6974 36.8345 25.7429 37.1441 25.765 37.5052C25.7773 37.7104 25.9394 37.73 26.1004 37.7374C26.3903 37.7497 26.6826 37.7472 26.9713 37.7767C27.2072 37.8013 27.3853 37.9339 27.3718 38.1931C27.3595 38.4278 27.1789 38.5236 26.9689 38.569C26.9541 38.5727 26.9369 38.5776 26.9234 38.5752C26.0009 38.3663 25.7269 38.8872 25.4431 39.6685C24.98 40.9424 23.6005 41.7151 22.3413 41.6119C20.8586 41.4903 19.6855 40.5259 19.3501 39.1046C19.2555 38.7042 19.0958 38.5199 18.6745 38.5801C18.4804 38.6083 18.2752 38.5911 18.0787 38.5715C17.849 38.5482 17.6463 38.445 17.6364 38.187C17.6254 37.9008 17.8391 37.7914 18.0873 37.7656C18.3158 37.7423 18.5467 37.7521 18.7752 37.7374C18.9632 37.7251 19.2297 37.7927 19.2383 37.5015C19.2457 37.2202 19.4029 36.8799 19.0307 36.6809C18.6929 36.5003 18.3514 36.3259 18.0308 36.1183C15.2127 34.2879 13.8332 30.8225 14.6096 27.5438C15.397 24.2172 18.2064 21.7137 21.5674 21.3452C26.0647 20.8526 29.9552 23.9298 30.5436 28.4467C30.5829 28.7502 30.6075 29.0548 30.637 29.3447V29.3472ZM22.3377 22.0405C22.0785 22.0724 21.651 22.1092 21.2296 22.178C17.7765 22.7407 14.8344 26.0194 15.2533 30.056C15.5358 32.7782 16.9436 34.7216 19.3636 35.9562C19.5663 36.0593 19.7813 36.1257 20.0171 36.1515C20.4324 36.1969 20.5306 36.0249 20.4446 35.6552C20.3894 35.4169 20.3525 35.1749 20.3132 34.9329C19.9729 32.8814 19.6339 30.8287 19.2936 28.7772C19.2555 28.5512 19.2703 28.3399 19.4963 28.2182C19.7383 28.0868 19.9066 28.2354 20.0503 28.405C20.3169 28.7207 20.5847 29.0364 20.8353 29.3656C21.011 29.5966 21.151 29.6125 21.3328 29.3754C21.5945 29.0352 21.8684 28.7059 22.1448 28.3779C22.3843 28.0942 22.6399 28.0979 22.8782 28.3816C23.1251 28.674 23.3769 28.9639 23.5993 29.2747C23.8228 29.5867 24.0071 29.642 24.2503 29.2931C24.4604 28.9922 24.7036 28.7145 24.9395 28.4332C25.0795 28.2662 25.2355 28.0942 25.4849 28.2023C25.7429 28.3153 25.7601 28.5426 25.7195 28.787C25.3486 31.0203 24.9813 33.2536 24.6041 35.4857C24.4911 36.1552 24.6164 36.2841 25.2761 36.1183C25.3793 36.0925 25.4763 36.0421 25.5734 35.9979C28.1224 34.8432 30.1149 32.0546 29.7611 28.6371C29.3729 24.8794 26.2429 22.038 22.3377 22.0392V22.0405ZM20.3353 30.1125C20.6461 32.008 20.9483 33.8592 21.2517 35.7117C21.2591 35.7571 21.2665 35.8026 21.2751 35.8468C21.3193 36.0925 21.4827 36.1527 21.7112 36.1478C22.2013 36.138 22.6927 36.122 23.1816 36.1527C23.5759 36.1773 23.716 36.0127 23.7712 35.6417C23.926 34.5975 24.1152 33.5583 24.2872 32.5178C24.4174 31.7316 24.5427 30.9454 24.6913 30.0314C24.5476 30.1899 24.4972 30.2427 24.4493 30.2992C24.0194 30.8176 23.8327 30.8188 23.4162 30.3004C23.1767 30.0019 22.931 29.7071 22.6976 29.4037C22.5711 29.2391 22.4666 29.2342 22.3377 29.3988C22.1399 29.6518 21.931 29.8975 21.7296 30.1481C21.1584 30.8594 21.0908 30.8631 20.4901 30.2034C20.4631 30.1739 20.4176 30.1592 20.3353 30.1113V30.1125ZM22.5526 36.9414C22.1853 36.9414 21.818 36.9414 21.4507 36.9414C20.504 36.9414 20.0376 37.4139 20.0515 38.359C20.0687 39.542 20.9704 40.6082 22.0699 40.747C23.4359 40.919 24.5452 40.2053 24.8781 38.9498C25.0181 38.4204 24.926 37.8836 24.9641 37.3517C24.9874 37.02 24.8314 36.9303 24.5267 36.9377C23.8695 36.9524 23.2111 36.9426 22.5526 36.9414Z" fill="#FF9600"/>
<path d="M18.9608 7.76703C16.0199 7.76703 13.0803 7.76949 10.1394 7.76334C9.83473 7.76334 9.39495 7.85671 9.38635 7.39481C9.37775 6.91941 9.82122 7.01646 10.1246 7.01646C16.0518 7.01154 21.9778 7.01277 27.905 7.01646C28.1974 7.01646 28.6175 6.93538 28.6175 7.37147C28.6175 7.82477 28.1875 7.76457 27.8755 7.7658C24.9039 7.76949 21.9336 7.76826 18.962 7.76826L18.9608 7.76703Z" fill="#FF9600"/>
<path d="M27.7233 3.54768C25.3647 3.54768 23.0061 3.55137 20.6475 3.54277C20.3367 3.54277 19.8638 3.66807 19.8687 3.16196C19.8736 2.70252 20.3208 2.79834 20.6254 2.79834C25.3733 2.79343 30.1212 2.79343 34.8691 2.79834C35.1738 2.79834 35.6135 2.70252 35.6258 3.16319C35.6381 3.63982 35.1934 3.54277 34.8912 3.544C32.5019 3.55014 30.1126 3.54768 27.7233 3.54768Z" fill="#FF9600"/>
<path d="M24.6598 11.9217C22.9142 11.9217 21.1686 11.9217 19.423 11.9217C19.2706 11.9217 19.1158 11.9241 18.9648 11.9033C18.7756 11.8775 18.6626 11.7558 18.6564 11.5618C18.6515 11.3861 18.7584 11.2669 18.9181 11.2276C19.079 11.1883 19.2497 11.1711 19.4168 11.1711C22.908 11.1674 26.4005 11.1687 29.8917 11.1687C29.9224 11.1687 29.9531 11.1687 29.9838 11.1687C30.2762 11.1822 30.6435 11.1625 30.6484 11.5556C30.6545 11.977 30.2713 11.9192 29.9899 11.9205C28.2136 11.9254 26.4373 11.9229 24.661 11.9229L24.6598 11.9217Z" fill="#FF9600"/>
<path d="M25.3844 16.1415C24.3906 16.1415 23.3968 16.1428 22.403 16.1403C22.2507 16.1403 22.0947 16.1366 21.9485 16.0998C21.7679 16.0543 21.666 15.9167 21.6782 15.7239C21.6893 15.547 21.8048 15.4426 21.9669 15.4131C22.1156 15.3861 22.2703 15.3848 22.4227 15.3848C24.4103 15.3836 26.3979 15.3848 28.3867 15.3848C28.4936 15.3848 28.6017 15.3848 28.7073 15.3922C28.9432 15.4106 29.1373 15.4978 29.1299 15.773C29.1226 16.0482 28.9186 16.1317 28.6877 16.1342C27.9691 16.1428 27.2504 16.1415 26.5318 16.1428C26.1497 16.1428 25.7677 16.1428 25.3844 16.1428V16.1415Z" fill="#FF9600"/>
<path d="M13.0778 3.54753C12.0693 3.54753 11.0595 3.54753 10.0509 3.5463C9.91459 3.5463 9.77332 3.54385 9.64188 3.51313C9.48095 3.47505 9.37531 3.35835 9.37039 3.18514C9.36425 3.0107 9.4613 2.8854 9.62222 2.84364C9.76718 2.80556 9.92319 2.79696 10.0743 2.79696C12.0779 2.7945 14.0802 2.7945 16.0838 2.79573C16.1759 2.79573 16.268 2.79573 16.359 2.80187C16.6157 2.82275 16.8184 2.92717 16.8012 3.21708C16.7852 3.49594 16.5653 3.54385 16.3356 3.54507C15.2497 3.54507 14.165 3.54507 13.079 3.54507L13.0778 3.54753Z" fill="#FF9600"/>
<path d="M17.0041 16.1425C16.1147 16.1425 15.2265 16.1425 14.3372 16.1425C14.2303 16.1425 14.1222 16.1425 14.0153 16.1389C13.7659 16.1303 13.5313 16.0652 13.5227 15.7728C13.5141 15.4792 13.7401 15.3993 13.9932 15.3871C14.0694 15.3834 14.1467 15.3834 14.2229 15.3834C16.0926 15.3834 17.9623 15.3809 19.8319 15.3858C20.128 15.3858 20.5407 15.317 20.5444 15.7507C20.5481 16.2224 20.1157 16.1352 19.8086 16.1389C18.8738 16.1475 17.9389 16.1425 17.0041 16.1425Z" fill="#FF9600"/>
<path d="M12.611 11.922C11.7216 11.922 10.8335 11.922 9.94409 11.922C9.67507 11.922 9.37041 11.9183 9.37656 11.5547C9.3827 11.2046 9.68981 11.1751 9.95392 11.1751C11.7167 11.1689 13.4783 11.1714 15.2411 11.1714C15.3173 11.1714 15.3959 11.1751 15.4696 11.1935C15.6797 11.2439 15.8553 11.3556 15.8418 11.5915C15.8283 11.836 15.6317 11.9158 15.4143 11.917C14.6478 11.9232 13.8825 11.922 13.1159 11.9232C12.9476 11.9232 12.7793 11.9232 12.6098 11.9232L12.611 11.922Z" fill="#FF9600"/>
<path d="M32.7563 7.76614C32.023 7.76614 31.2896 7.7686 30.555 7.76614C30.2847 7.76614 29.985 7.7428 29.9801 7.39393C29.9739 7.04014 30.2724 7.01557 30.5439 7.01557C32.0574 7.01434 33.5696 7.01434 35.083 7.01557C35.3569 7.01557 35.6468 7.04874 35.6358 7.40498C35.626 7.72438 35.352 7.76491 35.0953 7.76491C34.3164 7.76737 33.5364 7.76491 32.7563 7.76614Z" fill="#FF9600"/>
<path d="M33.0557 16.1404C32.3985 16.1404 31.7413 16.1428 31.0853 16.1404C30.8138 16.1404 30.5215 16.1146 30.5129 15.7645C30.5043 15.3984 30.8077 15.3886 31.073 15.3886C32.4022 15.3849 33.7314 15.3861 35.0605 15.3886C35.3308 15.3886 35.6293 15.4082 35.6342 15.7583C35.6391 16.1096 35.3443 16.1404 35.0716 16.1416C34.3996 16.144 33.7277 16.1416 33.0545 16.1416L33.0557 16.1404Z" fill="#FF9600"/>
<path d="M33.6777 11.9193C33.2047 11.9193 32.7318 11.9205 32.2588 11.9193C32.0279 11.9193 31.8129 11.8652 31.7994 11.5864C31.7871 11.3186 31.9836 11.1933 32.2121 11.1908C33.2182 11.1773 34.2243 11.1773 35.2316 11.1908C35.4613 11.1933 35.6579 11.321 35.6468 11.5864C35.6345 11.864 35.4196 11.9193 35.1886 11.9205C34.685 11.9229 34.1813 11.9205 33.6789 11.9205L33.6777 11.9193Z" fill="#FF9600"/>
<path d="M10.9688 15.3884C11.3521 15.3884 11.7354 15.3822 12.1174 15.3908C12.3521 15.3957 12.556 15.4854 12.5633 15.7532C12.5707 16.021 12.3729 16.1316 12.1371 16.134C11.3558 16.1426 10.5745 16.1426 9.79322 16.134C9.55614 16.1316 9.36082 16.0185 9.36941 15.7507C9.37924 15.4842 9.58316 15.3957 9.81902 15.3908C10.2023 15.3834 10.5856 15.3884 10.9676 15.3884H10.9688Z" fill="#FF9600"/>
</g>
<defs>
<clipPath id="clip0_107_5733">
<rect width="45" height="45.0958" fill="white" transform="translate(0 0.0292969)"/>
</clipPath>
</defs>
</svg>
