<svg width="44" height="43" viewBox="0 0 44 43" fill="none" xmlns="http://www.w3.org/2000/svg">
<path d="M7.38137 42.4195C5.91164 42.0189 4.76357 41.0573 4.10514 39.68C3.58359 38.5873 3.57604 38.4815 3.5752 32.6278C3.5752 29.7177 3.59871 27.2478 3.62811 27.1394C3.65666 27.0302 4.82656 25.7075 6.22658 24.2L8.77299 21.4579L8.77803 15.621C8.78223 9.23394 8.78307 9.23226 9.28277 8.1959C9.78668 7.15029 10.603 6.34152 11.7057 5.79479C12.1332 5.58314 13.0982 5.30012 13.4198 5.29256C13.4543 5.29172 13.4828 5.00953 13.4828 4.66519C13.4828 4.32086 13.5248 3.83879 13.5761 3.59439C13.8986 2.04572 15.1247 0.817031 16.665 0.49705C17.7484 0.271972 17.9659 0.319003 26.9203 2.72012C31.5168 3.95217 35.522 5.03808 35.8227 5.13299C37.9181 5.79478 39.5944 7.5257 40.2873 9.74205L40.4838 10.3719V24.8172V39.2626L40.2881 39.8043C39.7615 41.2647 38.6521 42.1592 37.0631 42.4061C36.7465 42.4548 30.839 42.5069 22.2592 42.5354C8.27664 42.5833 7.96926 42.5808 7.38137 42.4195ZM22.5044 40.4803C25.5489 40.4803 28.0222 40.4627 28.0012 40.4417C27.9802 40.4199 25.6967 39.795 22.9269 39.0526C17.3352 37.5535 17.0278 37.4426 15.9243 36.5129C15.1827 35.8881 14.5536 35.0877 14.1287 34.2277C13.4753 32.9066 13.5282 34.1093 13.503 19.9991L13.4803 7.37033L13.2107 7.42408C12.3658 7.59289 11.3799 8.43693 11.0397 9.28098L10.8373 9.78404L10.7953 16.0568L10.7533 22.3288L10.5333 22.5656C10.4132 22.695 9.2685 23.9312 7.99109 25.3119L5.66893 27.8222L5.6916 33.0402L5.71428 38.2581L5.99059 38.8191C6.41891 39.69 7.2302 40.3098 8.16914 40.4837C8.38918 40.5248 10.4594 40.5408 12.769 40.519C15.0785 40.498 19.4592 40.4803 22.5044 40.4803ZM37.4243 40.1654C37.7661 39.9915 37.9424 39.8311 38.1322 39.5212L38.3842 39.108L38.4069 24.9919C38.422 15.5067 38.401 10.7415 38.3431 10.4677C38.1071 9.35824 37.0203 7.9725 35.9487 7.41484C35.5842 7.22504 33.6643 6.67578 29.0199 5.43113C25.4859 4.48463 21.5747 3.43398 20.3276 3.09721C17.7812 2.40937 17.2445 2.34723 16.6247 2.66805C16.1829 2.89564 15.784 3.35168 15.6715 3.75564C15.6118 3.97148 15.5841 8.59062 15.585 18.1825L15.5858 32.2919L15.7823 32.847C16.172 33.9522 17.1261 35.0348 18.1414 35.5261C18.5992 35.747 21.4294 36.5238 33.0092 39.6086C34.4873 40.0025 35.7345 40.3376 35.7807 40.3535C35.8269 40.3695 36.1133 40.3863 36.4165 40.3896C36.8607 40.3947 37.0573 40.351 37.4243 40.1654ZM5.67229 21.5209C5.0676 21.2185 5.08439 21.3907 5.08439 15.6814C5.08439 10.0847 5.0802 10.1309 5.57738 9.87391C5.9024 9.70594 6.366 9.70594 6.69102 9.87391C7.1882 10.1309 7.184 10.0805 7.184 15.7234C7.18316 20.7373 7.17897 20.8775 7.01352 21.148C6.84891 21.4184 6.41807 21.6678 6.11572 21.6678C6.03342 21.6678 5.83354 21.6015 5.67229 21.5209ZM6.92197 37.467C6.65574 37.1999 6.59611 37.0815 6.59695 36.8161C6.59695 36.6372 6.6633 36.3895 6.74393 36.2643C6.82371 36.14 7.55186 35.5152 8.35979 34.8761C11.0053 32.784 10.9263 32.8378 11.3547 32.8378C11.6746 32.8378 11.7805 32.8823 12.0148 33.1166C12.3801 33.4819 12.4666 33.9111 12.2491 34.2823C12.1046 34.53 9.17863 36.9345 8.28252 37.5409C7.73578 37.9113 7.34525 37.8903 6.92197 37.467ZM6.92197 33.6877C6.65574 33.4206 6.59611 33.3022 6.59695 33.0368C6.59695 32.8579 6.6633 32.6093 6.74393 32.4842C6.86318 32.2986 10.0336 29.7295 10.7928 29.2021C10.9121 29.1198 11.1581 29.0585 11.3681 29.0585C12.0853 29.0585 12.5993 29.9025 12.2491 30.5055C12.103 30.7549 9.18871 33.1477 8.28252 33.7616C7.73578 34.132 7.34525 34.111 6.92197 33.6877ZM6.92197 29.9084C6.65574 29.6413 6.59611 29.5229 6.59695 29.2575C6.59695 29.0786 6.6633 28.83 6.74393 28.7049C6.86234 28.5201 10.0067 25.9729 10.7928 25.4245C10.9129 25.3405 11.1565 25.2792 11.3681 25.2792C12.0853 25.2792 12.5993 26.1232 12.2491 26.7262C12.1038 26.9756 9.18703 29.3709 8.28252 29.9831C7.73578 30.3527 7.34525 30.3317 6.92197 29.9084Z" fill="#FF9600"/>
</svg>
