<svg width="45" height="54" viewBox="0 0 45 54" fill="none" xmlns="http://www.w3.org/2000/svg">
<g clip-path="url(#clip0_107_5756)">
<path d="M20.2282 0.0791616C25.657 0.0791616 31.0858 0.127516 36.5132 0.0557173C38.6847 0.0264118 39.9727 1.69829 39.9551 3.53574C39.9156 7.62971 39.9581 11.7237 39.9332 15.8177C39.9258 17.0294 40.4284 17.828 41.5332 18.3013C42.1032 18.5445 42.6512 18.8435 43.2007 19.1336C44.3876 19.7607 44.9283 20.8025 44.9444 22.0949C44.9781 24.6518 45.0719 27.2116 44.8975 29.7656C44.8242 30.8484 44.2425 31.6514 43.2974 32.1686C42.6571 32.5188 41.9919 32.8266 41.3369 33.1518C40.4094 33.6119 39.9566 34.3548 39.9581 35.3922C39.9639 39.1389 39.9639 42.8857 39.9654 46.6338C39.9654 49.0413 38.7067 50.3278 36.2876 50.3366C32.1379 50.3512 27.9897 50.341 23.8401 50.341C23.6759 50.341 23.5104 50.338 23.3463 50.341C22.9272 50.3483 22.4642 50.2516 22.0978 50.3952C21.6495 50.571 21.859 51.1351 21.7271 51.5161C21.1821 53.084 19.6406 53.9924 17.9277 53.6276C12.8227 52.5418 7.72059 51.4414 2.62144 50.3219C1.00085 49.9659 0.0660025 48.7511 0.00299576 47.0441C-0.00726115 46.7525 -0.00140006 46.4595 6.52128e-05 46.1664C0.00885685 32.132 0.0161832 18.0947 0.020579 4.05591C0.020579 3.5416 0.0484192 3.02876 0.148058 2.5291C0.446973 1.04038 1.92543 -0.0615046 3.45225 0.0352034C3.83468 0.0586478 4.21859 0.0776964 4.60102 0.0776964C9.81007 0.0806269 15.0191 0.0791616 20.2282 0.0791616ZM20.9256 28.5963H20.9417C20.9417 24.539 20.9417 20.4816 20.9417 16.4258C20.9417 13.2095 20.9461 9.9932 20.9388 6.77693C20.9359 5.4699 20.2457 4.58634 19.0281 4.32259C13.9964 3.23389 8.95875 2.16571 3.92846 1.05943C2.01482 0.638896 0.968611 2.04116 0.973006 3.4068C1.0155 17.935 1.00964 32.4632 1.01843 46.9913C1.01843 48.3526 1.64996 49.1336 2.98483 49.4222C7.96089 50.4963 12.937 51.5703 17.9145 52.6341C19.7432 53.0253 20.9271 52.0568 20.9271 50.1974C20.9271 42.997 20.9271 35.7967 20.9271 28.5963H20.9256ZM35.4055 25.2438H35.4274C35.4274 19.0647 35.4245 12.8871 35.4318 6.70806C35.4318 5.98714 35.237 5.37173 34.645 4.93068C34.1658 4.57315 33.5944 4.52627 33.0244 4.5248C30.7576 4.51894 28.4908 4.52187 26.2241 4.52187C24.7251 4.52187 23.2261 4.53066 21.7271 4.51747C21.2949 4.51308 21.2026 4.62151 21.4414 5.00688C21.7271 5.46404 21.8517 5.97689 21.8575 6.5205C21.8649 7.23556 21.8707 7.23849 22.6078 7.23849C24.454 7.23995 26.3003 7.22237 28.1465 7.24581C29.7861 7.26633 31.0228 8.45906 31.0082 9.95364C30.9921 11.5405 29.814 12.6248 28.0967 12.6278C26.2138 12.6307 24.3309 12.6395 22.448 12.6204C21.9909 12.616 21.8341 12.7728 21.8502 13.2241C21.8766 13.9905 21.8912 14.7612 21.8458 15.5261C21.8121 16.1005 22.0378 16.2323 22.5741 16.2294C25.6262 16.2074 28.6799 16.2148 31.732 16.2235C32.1071 16.2235 32.6669 16.0917 32.6551 16.688C32.6449 17.2331 32.1101 17.1144 31.7467 17.1159C28.6579 17.1232 25.5676 17.1291 22.4788 17.1115C22.0011 17.1086 21.8326 17.258 21.8473 17.7416C21.8781 18.7467 21.8854 19.7534 21.8473 20.7571C21.8268 21.3022 21.9836 21.4853 22.5506 21.4809C25.6028 21.456 28.6564 21.4692 31.7086 21.4707C31.9093 21.4707 32.113 21.4678 32.3093 21.4985C32.5306 21.5322 32.6727 21.6773 32.6786 21.9088C32.6844 22.1183 32.554 22.2649 32.3636 22.3059C32.1335 22.3557 31.8947 22.3733 31.6588 22.3748C28.6242 22.3792 25.5896 22.3909 22.555 22.3674C21.9923 22.363 21.8238 22.5433 21.8473 23.0913C21.8869 24.0408 21.8898 24.9932 21.8502 25.9412C21.8268 26.5024 22.0173 26.6592 22.5667 26.6548C25.6379 26.6314 28.7092 26.6416 31.7789 26.649C32.1511 26.649 32.6625 26.5801 32.6713 27.1178C32.6815 27.6966 32.1482 27.5574 31.7936 27.5604C28.7238 27.5897 25.6541 27.6175 22.5829 27.6175C22.0495 27.6175 21.8253 27.7464 21.8517 28.3223C21.8956 29.2894 21.8942 30.2609 21.8546 31.2279C21.8326 31.7716 22.0334 31.9034 22.5477 31.899C25.6189 31.8785 28.6886 31.8858 31.7599 31.8932C32.1408 31.8932 32.6859 31.7789 32.6757 32.3752C32.6654 32.9233 32.1438 32.8178 31.776 32.8192C28.6872 32.8251 25.5969 32.8339 22.5081 32.8134C22.0011 32.8104 21.8385 32.9643 21.8575 33.4683C21.8927 34.3988 21.8678 35.3322 21.8693 36.2641C21.8693 36.8463 22.1521 37.1379 22.7177 37.1389C25.7332 37.1389 28.7502 37.1389 31.7657 37.1389C31.9489 37.1389 32.132 37.1374 32.3137 37.1579C32.5379 37.1843 32.6844 37.3161 32.7035 37.5477C32.7225 37.7762 32.6068 37.9521 32.3943 38.0092C32.1863 38.0649 31.9635 38.0766 31.7467 38.0766C28.6755 38.081 25.6042 38.0913 22.5345 38.0693C21.9997 38.0649 21.84 38.2363 21.859 38.758C21.8956 39.7075 21.9 40.6599 21.859 41.6094C21.8341 42.1603 21.9997 42.3318 22.5623 42.3274C25.5779 42.301 28.5949 42.3157 31.6104 42.3157C31.7936 42.3157 31.9767 42.3098 32.1584 42.3259C32.4603 42.3523 32.702 42.4783 32.7064 42.8197C32.7108 43.1377 32.4778 43.2608 32.2038 43.2945C31.987 43.3223 31.7657 43.3208 31.5474 43.3223C28.5319 43.3238 25.5149 43.3311 22.4993 43.315C22.0319 43.312 21.8238 43.4439 21.8649 43.9377C21.8986 44.3553 21.8707 44.7773 21.8722 45.1979C21.8722 45.9276 21.8737 45.9305 22.5887 45.9305C26.1171 45.9305 29.644 45.932 33.1724 45.9305C34.7021 45.9305 35.3996 45.2198 35.4011 43.6725C35.4011 37.5301 35.4011 31.3891 35.4011 25.2467L35.4055 25.2438ZM8.37117 0.980305C8.3741 1.01254 8.37557 1.04478 8.3785 1.07701C11.2695 1.69975 14.1575 2.34008 17.0529 2.93791C18.4772 3.23243 19.8677 3.66029 21.3623 3.63978C25.254 3.58703 29.1473 3.61633 33.0405 3.62512C35.2047 3.62952 36.3271 4.75924 36.3286 6.90147C36.3359 19.1834 36.3242 31.4653 36.3725 43.7472C36.3799 45.4938 35.1168 46.9371 33.2412 46.8946C29.6616 46.8126 26.0775 46.8785 22.4949 46.8624C22.0202 46.8595 21.8268 46.9869 21.8693 47.4793C21.9059 47.9145 21.8971 48.357 21.8722 48.7936C21.8488 49.1951 21.9967 49.3402 22.4056 49.3387C27.2117 49.3285 32.0192 49.3299 36.8253 49.3314C37.3616 49.3314 37.8261 49.1482 38.2261 48.7966C38.8181 48.2764 39.0247 47.598 39.0247 46.8331C39.0247 42.9765 39.0247 39.1199 39.0291 35.2648C39.0291 33.9724 39.6342 33.0317 40.7508 32.4207C41.3266 32.1042 41.9259 31.8287 42.5179 31.543C43.4996 31.0712 44.0154 30.3385 44.0022 29.2059C43.9744 26.8482 43.9788 24.4906 44.0081 22.133C44.0213 21.0545 43.5509 20.3204 42.6219 19.8428C42.0695 19.5585 41.5098 19.2904 40.953 19.0134C39.643 18.3614 39.0291 17.3108 39.0364 15.8396C39.0555 11.7823 39.0437 7.72496 39.0423 3.66762C39.0423 1.80525 38.2276 0.983235 36.3843 0.98177C27.2278 0.98177 18.0713 0.98177 8.91479 0.98177C8.73456 0.98177 8.55286 0.98177 8.37263 0.98177L8.37117 0.980305ZM25.3478 11.7266C26.3164 11.7266 27.2849 11.7266 28.2535 11.7266C28.5304 11.7266 28.7985 11.6988 29.0535 11.5786C29.8506 11.2035 30.2125 10.4606 30.0426 9.53017C29.8975 8.73306 29.1649 8.15868 28.1743 8.14842C26.2372 8.12644 24.3016 8.14696 22.3645 8.13523C21.9836 8.1323 21.8473 8.28176 21.8531 8.65541C21.8693 9.49501 21.8751 10.3361 21.8517 11.1757C21.8385 11.624 22.0363 11.7398 22.4437 11.7325C23.4122 11.7149 24.3807 11.7266 25.3478 11.7266Z" fill="#FF9600"/>
</g>
<defs>
<clipPath id="clip0_107_5756">
<rect width="45" height="53.6803" fill="white" transform="translate(0 0.0292969)"/>
</clipPath>
</defs>
</svg>
