<svg width="43" height="44" viewBox="0 0 43 44" fill="none" xmlns="http://www.w3.org/2000/svg">
<g clip-path="url(#clip0_149_6182)">
<mask id="mask0_149_6182" style="mask-type:luminance" maskUnits="userSpaceOnUse" x="0" y="0" width="43" height="44">
<path d="M43 0.615234H0V43.6152H43V0.615234Z" fill="white"/>
</mask>
<g mask="url(#mask0_149_6182)">
<path d="M19.1011 25.2582V5.07122C19.1011 2.3539 14.2965 0.932129 9.55053 0.932129C4.80466 0.932129 0 2.3539 0 5.07122V25.2582C0 27.9754 4.80457 29.3971 9.55053 29.3971C14.2964 29.3971 19.1011 27.9754 19.1011 25.2582ZM3.79047 3.69245C5.31419 3.12639 7.35972 2.81473 9.55044 2.81473C11.7408 2.81473 13.7864 3.12639 15.3102 3.69245C16.8196 4.25313 17.2183 4.83942 17.2183 5.07122C17.2183 5.30301 16.8195 5.8893 15.3102 6.44998C13.7864 7.01604 11.7408 7.3277 9.55044 7.3277C7.35972 7.3277 5.31412 7.01604 3.79047 6.44998C2.28135 5.88939 1.88259 5.30301 1.88259 5.07122C1.88259 4.83942 2.28135 4.25304 3.79047 3.69245ZM1.88259 7.63988C3.71606 8.67726 6.64416 9.2103 9.55044 9.2103C12.4567 9.2103 15.3849 8.67726 17.2183 7.63988V10.2367C17.2183 10.4684 16.8196 11.0548 15.3103 11.6154C13.7865 12.1815 11.7409 12.4932 9.55053 12.4932C7.35981 12.4932 5.31419 12.1815 3.79056 11.6154C2.28135 11.0549 1.88259 10.4685 1.88259 10.2367V7.63988ZM1.88259 12.8051C3.71606 13.8424 6.64409 14.3758 9.55044 14.3758C12.4569 14.3758 15.3849 13.8424 17.2183 12.805V15.4022C17.2183 15.6339 16.8195 16.2203 15.3102 16.781C13.7864 17.347 11.7408 17.6587 9.55044 17.6587C7.35972 17.6587 5.31412 17.347 3.79047 16.781C2.28135 16.2206 1.88259 15.6341 1.88259 15.4023V12.8051ZM1.88259 17.9705C3.71606 19.008 6.64409 19.5413 9.55044 19.5413C12.4569 19.5413 15.3849 19.008 17.2183 17.9705V20.5678C17.2183 20.7996 16.8195 21.3859 15.3102 21.9465C13.7864 22.5125 11.7408 22.8242 9.55044 22.8242C7.35972 22.8242 5.31412 22.5126 3.79047 21.9465C2.28135 21.3859 1.88259 20.7996 1.88259 20.5678V17.9705ZM1.88259 25.2582V23.1362C3.71606 24.1735 6.64409 24.7069 9.55044 24.7069C12.4569 24.7069 15.3849 24.1735 17.2183 23.1362V25.2582C17.2183 25.4899 16.8195 26.0763 15.3102 26.6369C13.7864 27.2029 11.7408 27.5146 9.55044 27.5146C7.35972 27.5146 5.31412 27.2029 3.79047 26.6369C2.28135 26.0763 1.88259 25.4899 1.88259 25.2582Z" fill="#FF9600"/>
<path d="M41.1305 32.6019C39.9715 31.4646 38.4437 30.8318 36.8225 30.8156C35.5627 28.3413 33.0394 26.7769 30.2205 26.7769C26.3933 26.7769 23.2343 29.6923 22.848 33.4191C22.3497 33.291 21.833 33.2338 21.3109 33.2509C18.4287 33.3456 16.1238 35.6786 16.0637 38.5623C16.0623 38.6271 16.0622 38.692 16.0631 38.7559C16.0988 41.2601 18.1945 43.2975 20.7345 43.2975H36.6628C38.3672 43.2975 40.0287 42.5998 41.2212 41.3832C42.4012 40.1794 43.0327 38.5979 42.9994 36.9302C42.9666 35.2894 42.3028 33.7524 41.1305 32.6019ZM39.8765 40.0651C39.0235 40.9353 37.8822 41.4146 36.6628 41.4146H20.7345C19.2177 41.4146 17.9666 40.2099 17.9455 38.7285C17.9447 38.6862 17.9449 38.6436 17.9458 38.601C17.9845 36.7493 19.5218 35.1932 21.3726 35.1323C21.4122 35.131 21.4516 35.1303 21.491 35.1303C22.1295 35.1303 22.7527 35.3004 23.3 35.625C23.6053 35.806 23.9866 35.8 24.286 35.6092C24.5856 35.4186 24.7522 35.0757 24.7171 34.7224C24.6997 34.548 24.6909 34.3687 24.6909 34.1892C24.6909 31.1401 27.1716 28.6595 30.2207 28.6595C32.4936 28.6595 34.5092 30.0232 35.3551 32.1334C35.511 32.5222 35.9051 32.7612 36.322 32.7198C38.8696 32.467 41.0671 34.4699 41.1171 36.9677C41.1402 38.1253 40.6996 39.2254 39.8765 40.0651Z" fill="#FF9600"/>
<path d="M13.8192 38.7358C11.4093 37.0762 9.58458 34.6379 8.68116 31.8701C8.51991 31.376 7.98861 31.1061 7.4942 31.2674C7.00004 31.4286 6.73011 31.9601 6.89145 32.4542C7.92227 35.6124 10.0034 38.3937 12.7515 40.2863C12.9145 40.3984 13.1005 40.4524 13.2846 40.4524C13.5838 40.4524 13.8781 40.3099 14.0607 40.0448C14.3556 39.6167 14.2474 39.0307 13.8192 38.7358Z" fill="#FF9600"/>
<path d="M21.8912 14.3622C27.0912 14.5538 31.7418 17.7862 33.7394 22.597C33.8897 22.9591 34.2399 23.1775 34.609 23.1775C34.7292 23.1775 34.8516 23.1544 34.9697 23.1053C35.4497 22.9059 35.6774 22.3552 35.4778 21.8752C33.1993 16.387 27.8935 12.6994 21.9602 12.4808C21.4439 12.4597 21.0042 12.8672 20.985 13.3868C20.966 13.9064 21.3717 14.3431 21.8912 14.3622Z" fill="#FF9600"/>
<path d="M35.3325 24.3631C34.8201 24.4501 34.4752 24.9362 34.5623 25.4488C34.5696 25.4922 34.5768 25.5355 34.5838 25.5791C34.6585 26.0417 35.0582 26.3706 35.512 26.3706C35.5617 26.3706 35.6122 26.3667 35.6629 26.3584C36.1762 26.2758 36.5252 25.7925 36.4423 25.2793C36.4344 25.2306 36.4263 25.1819 36.4181 25.1333C36.3312 24.6207 35.8448 24.276 35.3325 24.3631Z" fill="#FF9600"/>
</g>
</g>
<defs>
<clipPath id="clip0_149_6182">
<rect width="43" height="43" fill="white" transform="translate(0 0.615234)"/>
</clipPath>
</defs>
</svg>
