<svg width="73" height="72" viewBox="0 0 73 72" fill="none" xmlns="http://www.w3.org/2000/svg">
<g clip-path="url(#clip0_149_1763)">
<path d="M31.2214 0.384766C37.0961 0.384766 42.5362 3.12378 46.2737 7.72461L46.6503 8.20175L46.6938 8.17467C48.1039 7.29529 49.7157 6.78241 51.4029 6.70304L51.8648 6.6922C57.025 6.6922 61.2732 10.7182 61.8167 15.8903L61.848 16.263L62.1664 16.3111C67.9588 17.2877 72.3915 22.6799 72.5736 29.2115L72.5795 29.63C72.5795 35.582 69.0221 40.7981 63.8762 42.5201C63.0355 42.8013 62.1329 42.3266 61.8602 41.4596C61.5874 40.5929 62.0477 39.6621 62.8884 39.3807C66.6954 38.1069 69.3789 34.172 69.3789 29.63C69.3789 24.1137 65.4616 19.6603 60.6477 19.4604L60.276 19.4542C59.3216 19.4758 58.5612 18.6365 58.647 17.6561C58.6655 17.444 58.6749 17.2303 58.6749 17.0151C58.6749 13.1367 55.6259 9.99259 51.8648 9.99259C50.1805 9.99259 48.5956 10.6234 47.3616 11.7486C46.635 12.4111 45.5083 12.2601 44.9702 11.428C41.8529 6.60854 36.7633 3.68515 31.2214 3.68515C23.2337 3.68515 16.3852 9.76761 14.8089 18.1253C14.6729 18.8462 14.0948 19.3793 13.4011 19.452L13.2093 19.4602L12.8717 19.4538C7.86942 19.4538 3.76791 23.9852 3.76791 29.63C3.76791 34.0942 6.36064 37.9782 10.0771 39.3178C10.9114 39.6184 11.3513 40.5597 11.0597 41.4201C10.7681 42.2805 9.85535 42.7341 9.02105 42.4334C4.00244 40.6245 0.567383 35.4784 0.567383 29.63C0.567383 22.6313 5.44741 16.8435 11.7511 16.2109L11.9517 16.1937L12.0061 15.9841C14.3335 7.05208 21.8843 0.622056 30.7287 0.39119L31.2214 0.384766Z" fill="#EFA63E"/>
<path fill-rule="evenodd" clip-rule="evenodd" d="M56.8622 26.165C61.2811 26.165 64.8635 29.8591 64.8635 34.4161V42.6672C64.8635 47.2239 61.2811 50.918 56.8622 50.918H38.9747V61.7243C40.3389 62.2216 41.4199 63.3365 41.9021 64.7431H63.2412C64.1251 64.7431 64.8416 65.4819 64.8416 66.3932C64.8416 67.2396 64.2237 67.9371 63.4279 68.0324L63.2412 68.0435H41.9021C41.2431 69.9663 39.4648 71.3438 37.3745 71.3438C35.284 71.3438 33.5056 69.966 32.8467 68.0428L32.8362 68.0435H10.1699C9.28611 68.0435 8.56964 67.3047 8.56964 66.3932C8.56964 65.547 9.18741 64.8495 9.98329 64.7543L10.1699 64.7431H32.8362H32.8469C33.3289 63.3365 34.4101 62.2216 35.7743 61.7243V50.918H16.2865C11.8675 50.918 8.28516 47.2239 8.28516 42.6672V34.4161C8.28516 29.8591 11.8675 26.165 16.2865 26.165H56.8622ZM56.8622 29.4655H16.2865C13.7298 29.4655 11.6399 31.5265 11.4938 34.1252L11.4857 34.4161V42.6672C11.4857 45.3036 13.4843 47.4586 16.0044 47.6092L16.2865 47.6176H56.8622C59.4189 47.6176 61.5087 45.5568 61.6548 42.9579L61.6629 42.6672V34.4161C61.6629 31.7796 59.6644 29.6244 57.1442 29.4738L56.8622 29.4655ZM37.3745 64.7431C38.2582 64.7431 38.9747 65.4819 38.9747 66.3932C38.9747 67.3047 38.2582 68.0435 37.3745 68.0435C36.4906 68.0435 35.7743 67.3047 35.7743 66.3932C35.7743 65.4819 36.4906 64.7431 37.3745 64.7431Z" fill="#EFA63E"/>
<path d="M53.9829 36.6885C54.8667 36.6885 55.5832 37.4273 55.5832 38.3388C55.5832 39.185 54.9654 39.8825 54.1694 39.9779L53.9829 39.9889H32.5748C31.6911 39.9889 30.9746 39.2501 30.9746 38.3388C30.9746 37.4924 31.5924 36.7949 32.3882 36.6997L32.5748 36.6885H53.9829Z" fill="#EFA63E"/>
<path fill-rule="evenodd" clip-rule="evenodd" d="M26.1719 38.3393C26.1719 35.6051 24.0225 33.3887 21.3711 33.3887C18.7198 33.3887 16.5703 35.6051 16.5703 38.3393C16.5703 41.0733 18.7198 43.2899 21.3711 43.2899C24.0225 43.2899 26.1719 41.0733 26.1719 38.3393ZM19.7709 38.3393C19.7709 37.4278 20.4874 36.6891 21.3711 36.6891C22.255 36.6891 22.9715 37.4278 22.9715 38.3393C22.9715 39.2506 22.255 39.9894 21.3711 39.9894C20.4874 39.9894 19.7709 39.2506 19.7709 38.3393Z" fill="#EFA63E"/>
</g>
<defs>
<clipPath id="clip0_149_1763">
<rect width="72.2521" height="70.9585" fill="white" transform="translate(0.567383 0.384766)"/>
</clipPath>
</defs>
</svg>
