<svg width="50" height="51" viewBox="0 0 50 51" fill="none" xmlns="http://www.w3.org/2000/svg">
<rect opacity="0.2" x="0.310547" y="0.966797" width="49.2952" height="49.2952" rx="10.5633" fill="#F97289"/>
<path d="M34.8177 25.6761C34.8177 20.1979 30.4037 15.7568 24.9587 15.7568C19.5137 15.7568 15.0996 20.1979 15.0996 25.6761C15.0996 30.6271 18.7049 34.7308 23.4182 35.4749V28.5434H20.9149V25.6761H23.4182V23.4908C23.4182 21.0048 24.8901 19.6316 27.1421 19.6316C28.2204 19.6316 29.349 19.8253 29.349 19.8253V22.2664H28.1059C26.8812 22.2664 26.4991 23.0311 26.4991 23.8163V25.6761H29.2335L28.7964 28.5434H26.4991V35.4749C31.2124 34.7308 34.8177 30.6271 34.8177 25.6761Z" fill="#F97289"/>
</svg>
