<svg width="51" height="51" viewBox="0 0 51 51" fill="none" xmlns="http://www.w3.org/2000/svg">
<rect opacity="0.2" x="0.789062" y="0.966797" width="49.2952" height="49.2952" rx="10.5633" fill="#3BBB96"/>
<path d="M29.596 17.2959H21.2775C18.9803 17.2959 17.1182 19.1581 17.1182 21.4552V29.7738C17.1182 32.0709 18.9803 33.933 21.2775 33.933H29.596C31.8931 33.933 33.7553 32.0709 33.7553 29.7738V21.4552C33.7553 19.1581 31.8931 17.2959 29.596 17.2959Z" stroke="#3BBB96" stroke-width="2.07964" stroke-linecap="round" stroke-linejoin="round"/>
<path d="M25.4374 28.5613C27.0645 28.5613 28.3835 27.2422 28.3835 25.6151C28.3835 23.988 27.0645 22.6689 25.4374 22.6689C23.8103 22.6689 22.4912 23.988 22.4912 25.6151C22.4912 27.2422 23.8103 28.5613 25.4374 28.5613Z" stroke="#3BBB96" stroke-width="2.07964" stroke-linecap="round" stroke-linejoin="round"/>
<path d="M29.9435 22.4953C30.7094 22.4953 31.3303 21.8744 31.3303 21.1085C31.3303 20.3426 30.7094 19.7217 29.9435 19.7217C29.1775 19.7217 28.5566 20.3426 28.5566 21.1085C28.5566 21.8744 29.1775 22.4953 29.9435 22.4953Z" fill="#3BBB96"/>
</svg>
