<svg width="51" height="51" viewBox="0 0 51 51" fill="none" xmlns="http://www.w3.org/2000/svg">
<rect opacity="0.2" x="0.745117" y="0.966797" width="49.2952" height="49.2952" rx="10.5633" fill="#59B5F8"/>
<path d="M32.5386 16.46H17.5361C16.8174 16.46 16.2363 17.0273 16.2363 17.7288V32.7931C16.2363 33.4946 16.8174 34.0654 17.5361 34.0654H32.5386C33.2572 34.0654 33.8418 33.4946 33.8418 32.7966V17.7288C33.8418 17.0273 33.2572 16.46 32.5386 16.46ZM21.4595 31.4624H18.8462V23.0586H21.4595V31.4624ZM20.1529 21.9135C19.3138 21.9135 18.6364 21.2361 18.6364 20.4006C18.6364 19.565 19.3138 18.8876 20.1529 18.8876C20.9884 18.8876 21.6658 19.565 21.6658 20.4006C21.6658 21.2327 20.9884 21.9135 20.1529 21.9135ZM31.2388 31.4624H28.6289V27.3774C28.6289 26.4043 28.6117 25.1492 27.2707 25.1492C25.9124 25.1492 25.7061 26.2117 25.7061 27.3086V31.4624H23.0997V23.0586H25.603V24.207H25.6374C25.9847 23.5468 26.8374 22.8488 28.1062 22.8488C30.7505 22.8488 31.2388 24.5887 31.2388 26.8513V31.4624Z" fill="#59B5F8"/>
</svg>
