<svg width="31" height="30" viewBox="0 0 31 30" fill="none" xmlns="http://www.w3.org/2000/svg">
<path d="M11.1195 14.4205C12.0783 16.3806 13.6671 17.9622 15.6316 18.9121C15.7753 18.9802 15.9343 19.0097 16.0929 18.9977C16.2515 18.9857 16.4042 18.9326 16.5361 18.8436L19.4286 16.9148C19.5565 16.8295 19.7037 16.7775 19.8568 16.7634C20.0099 16.7494 20.1641 16.7737 20.3055 16.8343L25.7168 19.1534C25.9006 19.2315 26.0541 19.3672 26.1541 19.5401C26.2541 19.713 26.2952 19.9137 26.2712 20.112C26.1002 21.4504 25.4471 22.6805 24.4344 23.5721C23.4217 24.4637 22.1188 24.9555 20.7695 24.9556C16.6022 24.9556 12.6056 23.3001 9.65883 20.3534C6.7121 17.4067 5.05664 13.4101 5.05664 9.24274C5.05671 7.89349 5.54858 6.59052 6.44016 5.57781C7.33173 4.5651 8.56187 3.91209 9.90024 3.74105C10.0985 3.71705 10.2992 3.75815 10.4721 3.85813C10.645 3.95812 10.7807 4.11159 10.8588 4.29542L13.18 9.71148C13.24 9.85157 13.2645 10.0043 13.2512 10.1562C13.2379 10.308 13.1873 10.4542 13.1038 10.5817L11.1817 13.5186C11.0942 13.6507 11.0425 13.8033 11.0316 13.9614C11.0207 14.1194 11.051 14.2776 11.1195 14.4205V14.4205Z" stroke="white" stroke-opacity="0.65" stroke-width="1.84857" stroke-linecap="round" stroke-linejoin="round"/>
</svg>
