<svg width="73" height="73" viewBox="0 0 73 73" fill="none" xmlns="http://www.w3.org/2000/svg">
<g clip-path="url(#clip0_149_1795)">
<mask id="mask0_149_1795" style="mask-type:luminance" maskUnits="userSpaceOnUse" x="0" y="0" width="73" height="73">
<path d="M72.6818 0.118164H0.423828V72.3761H72.6818V0.118164Z" fill="white"/>
</mask>
<g mask="url(#mask0_149_1795)">
<path d="M32.5217 41.5284V7.6058C32.5217 3.03956 24.4479 0.650391 16.4727 0.650391C8.49766 0.650391 0.423828 3.03956 0.423828 7.6058V41.5284C0.423828 46.0945 8.49751 48.4835 16.4727 48.4835C24.4478 48.4835 32.5217 46.0945 32.5217 41.5284ZM6.7934 5.28888C9.35389 4.33766 12.7912 3.81394 16.4726 3.81394C20.1532 3.81394 23.5907 4.33766 26.1513 5.28888C28.6877 6.23106 29.3578 7.21627 29.3578 7.6058C29.3578 7.9953 28.6876 8.9805 26.1513 9.92269C23.5907 10.8739 20.1534 11.3976 16.4726 11.3976C12.7912 11.3976 9.35377 10.8739 6.7934 9.92269C4.25744 8.98066 3.58737 7.9953 3.58737 7.6058C3.58737 7.21627 4.25744 6.23091 6.7934 5.28888ZM3.58737 11.9222C6.66836 13.6654 11.5888 14.5612 16.4726 14.5612C21.3563 14.5612 26.2769 13.6654 29.3578 11.9222V16.2859C29.3578 16.6753 28.6877 17.6606 26.1515 18.6028C23.5908 19.554 20.1535 20.0778 16.4727 20.0778C12.7914 20.0778 9.35389 19.554 6.79355 18.6028C4.25744 17.6609 3.58737 16.6756 3.58737 16.2859V11.9222ZM3.58737 20.6019C6.66836 22.345 11.5887 23.2413 16.4726 23.2413C21.3566 23.2413 26.2769 22.345 29.3578 20.6018V24.9662C29.3578 25.3555 28.6876 26.3409 26.1513 27.2831C23.5907 28.2343 20.1534 28.758 16.4726 28.758C12.7912 28.758 9.35377 28.2343 6.7934 27.2831C4.25744 26.3414 3.58737 25.3558 3.58737 24.9663V20.6019ZM3.58737 29.282C6.66836 31.0254 11.5887 31.9217 16.4726 31.9217C21.3566 31.9217 26.2769 31.0254 29.3578 29.282V33.6465C29.3578 34.0361 28.6876 35.0212 26.1513 35.9633C23.5907 36.9144 20.1534 37.4383 16.4726 37.4383C12.7912 37.4383 9.35377 36.9147 6.7934 35.9633C4.25744 35.0212 3.58737 34.0361 3.58737 33.6465V29.282ZM3.58737 41.5284V37.9624C6.66836 39.7056 11.5887 40.6019 16.4726 40.6019C21.3566 40.6019 26.2769 39.7056 29.3578 37.9624V41.5284C29.3578 41.9176 28.6876 42.9031 26.1513 43.8451C23.5907 44.7962 20.1534 45.3201 16.4726 45.3201C12.7912 45.3201 9.35377 44.7962 6.7934 43.8451C4.25744 42.9031 3.58737 41.9176 3.58737 41.5284Z" fill="#EFA63E"/>
<path d="M69.5398 53.8686C67.5921 51.9574 65.0249 50.894 62.3004 50.8669C60.1836 46.7091 55.9433 44.0801 51.2064 44.0801C44.7752 44.0801 39.4666 48.9792 38.8175 55.2418C37.9802 55.0266 37.1119 54.9305 36.2346 54.9591C31.3912 55.1184 27.5181 59.0387 27.417 63.8845C27.4148 63.9935 27.4145 64.1025 27.416 64.2099C27.476 68.4181 30.9977 71.8416 35.266 71.8416H62.0322C64.8963 71.8416 67.6882 70.6692 69.6921 68.6249C71.675 66.602 72.7363 63.9444 72.6803 61.142C72.6252 58.3847 71.5097 55.8018 69.5398 53.8686ZM67.4326 66.4099C65.9991 67.8722 64.0813 68.6776 62.0322 68.6776H35.266C32.7171 68.6776 30.6147 66.6532 30.5792 64.1639C30.578 64.0928 30.5783 64.0212 30.5798 63.9495C30.6448 60.8379 33.2281 58.2231 36.3382 58.1207C36.4047 58.1186 36.4709 58.1174 36.5372 58.1174C37.6102 58.1174 38.6573 58.4031 39.5771 58.9487C40.0902 59.2527 40.7308 59.2428 41.2339 58.9222C41.7373 58.6018 42.0173 58.0256 41.9583 57.4318C41.9291 57.1389 41.9144 56.8375 41.9144 56.5358C41.9144 51.4122 46.083 47.2438 51.2067 47.2438C55.0262 47.2438 58.4133 49.5353 59.8346 53.0813C60.0966 53.7346 60.7589 54.1363 61.4595 54.0667C65.7405 53.6419 69.4332 57.0076 69.5172 61.2049C69.556 63.1502 68.8157 64.9988 67.4326 66.4099Z" fill="#EFA63E"/>
<path d="M23.6459 64.1763C19.5962 61.3875 16.5299 57.2901 15.0118 52.6391C14.7408 51.8088 13.848 51.3553 13.0172 51.6263C12.1868 51.8973 11.7332 52.7903 12.0043 53.6206C13.7365 58.9277 17.2337 63.6016 21.8517 66.7818C22.1256 66.9703 22.4381 67.0609 22.7475 67.0609C23.2503 67.0609 23.7448 66.8216 24.0516 66.376C24.5471 65.6567 24.3653 64.6719 23.6459 64.1763Z" fill="#EFA63E"/>
<path d="M37.2095 23.2185C45.9476 23.5406 53.7626 28.9723 57.1192 37.0565C57.3718 37.665 57.9604 38.032 58.5807 38.032C58.7827 38.032 58.9883 37.9932 59.1867 37.9107C59.9933 37.5756 60.376 36.6501 60.0406 35.8435C56.2118 26.621 47.2958 20.4243 37.3254 20.057C36.4577 20.0215 35.7188 20.7063 35.6866 21.5795C35.6547 22.4526 36.3363 23.1865 37.2095 23.2185Z" fill="#EFA63E"/>
<path d="M59.7977 40.0246C58.9364 40.1709 58.3567 40.988 58.5031 41.8496C58.5154 41.9225 58.5275 41.9953 58.5392 42.0685C58.6648 42.8461 59.3367 43.399 60.0995 43.399C60.1829 43.399 60.2679 43.3924 60.3531 43.3786C61.2159 43.2397 61.8026 42.4272 61.6631 41.5647C61.6499 41.4828 61.6363 41.4009 61.6225 41.3192C61.4764 40.4576 60.6588 39.8782 59.7977 40.0246Z" fill="#EFA63E"/>
</g>
</g>
<defs>
<clipPath id="clip0_149_1795">
<rect width="72.258" height="72.258" fill="white" transform="translate(0.423828 0.118164)"/>
</clipPath>
</defs>
</svg>
