<svg width="74" height="73" viewBox="0 0 74 73" fill="none" xmlns="http://www.w3.org/2000/svg">
<g clip-path="url(#clip0_149_1714)">
<path fill-rule="evenodd" clip-rule="evenodd" d="M56.1025 10.5738C56.1025 9.74883 56.7712 9.08008 57.5963 9.08008H71.0396C71.8645 9.08008 72.5332 9.74883 72.5332 10.5738C72.5332 11.3987 71.8645 12.0675 71.0396 12.0675H57.5963C56.7712 12.0675 56.1025 11.3987 56.1025 10.5738Z" fill="#EFA63E"/>
<path fill-rule="evenodd" clip-rule="evenodd" d="M54.6094 35.859C54.6094 35.034 55.2782 34.3652 56.1031 34.3652H71.0402C71.8651 34.3652 72.5339 35.034 72.5339 35.859C72.5339 36.6839 71.8651 37.3527 71.0402 37.3527H56.1031C55.2782 37.3527 54.6094 36.6839 54.6094 35.859Z" fill="#EFA63E"/>
<path fill-rule="evenodd" clip-rule="evenodd" d="M54.6094 61.3599C54.6094 60.5349 55.2782 59.8662 56.1031 59.8662H71.0402C71.8651 59.8662 72.5339 60.5349 72.5339 61.3599C72.5339 62.1849 71.8651 62.8535 71.0402 62.8535H56.1031C55.2782 62.8535 54.6094 62.1849 54.6094 61.3599Z" fill="#EFA63E"/>
<path fill-rule="evenodd" clip-rule="evenodd" d="M25.6384 12.0675C22.3386 12.0675 19.6635 14.7425 19.6635 18.0422V28.4983C19.6635 33.448 15.651 37.4605 10.7013 37.4605H2.32964C1.50469 37.4605 0.835938 36.7917 0.835938 35.9667C0.835938 35.1418 1.50469 34.473 2.32964 34.473H10.7013C14.0011 34.473 16.6762 31.798 16.6762 28.4983V18.0422C16.6762 13.0926 20.6887 9.08008 25.6384 9.08008H30.7101C31.535 9.08008 32.2038 9.74883 32.2038 10.5738C32.2038 11.3987 31.535 12.0675 30.7101 12.0675H25.6384Z" fill="#EFA63E"/>
<path fill-rule="evenodd" clip-rule="evenodd" d="M0.835938 35.9664C0.835938 35.1415 1.50469 34.4727 2.32964 34.4727H30.7101C31.535 34.4727 32.2038 35.1415 32.2038 35.9664C32.2038 36.7913 31.535 37.4601 30.7101 37.4601H2.32964C1.50469 37.4601 0.835938 36.7913 0.835938 35.9664Z" fill="#EFA63E"/>
<path fill-rule="evenodd" clip-rule="evenodd" d="M0.835938 35.9664C0.835938 35.1415 1.50469 34.4727 2.32964 34.4727H10.7013C15.651 34.4727 19.6635 38.4852 19.6635 43.435V53.8909C19.6635 57.1907 22.3386 59.8656 25.6384 59.8656H30.7101C31.535 59.8656 32.2038 60.5344 32.2038 61.3593C32.2038 62.1844 31.535 62.8531 30.7101 62.8531H25.6384C20.6887 62.8531 16.6762 58.8406 16.6762 53.8909V43.435C16.6762 40.1352 14.0011 37.4601 10.7013 37.4601H2.32964C1.50469 37.4601 0.835938 36.7913 0.835938 35.9664Z" fill="#EFA63E"/>
<path fill-rule="evenodd" clip-rule="evenodd" d="M29.8525 4.59928C29.8525 2.12443 31.8588 0.118164 34.3335 0.118164H52.2581C54.733 0.118164 56.7392 2.12443 56.7392 4.59928V16.5489C56.7392 19.0237 54.733 21.03 52.2581 21.03H34.3335C31.8588 21.03 29.8525 19.0237 29.8525 16.5489V4.59928ZM34.3335 3.10558C33.5086 3.10558 32.84 3.77433 32.84 4.59928V16.5489C32.84 17.3739 33.5086 18.0427 34.3335 18.0427H52.2581C53.083 18.0427 53.7518 17.3739 53.7518 16.5489V4.59928C53.7518 3.77433 53.083 3.10558 52.2581 3.10558H34.3335Z" fill="#EFA63E"/>
<path fill-rule="evenodd" clip-rule="evenodd" d="M36.683 4.59961C37.5081 4.59961 38.1767 5.26837 38.1767 6.09332V15.0555C38.1767 15.8804 37.5081 16.5491 36.683 16.5491C35.8581 16.5491 35.1895 15.8804 35.1895 15.0555V6.09332C35.1895 5.26837 35.8581 4.59961 36.683 4.59961Z" fill="#EFA63E"/>
<path fill-rule="evenodd" clip-rule="evenodd" d="M43.4047 4.59961C44.2298 4.59961 44.8984 5.26837 44.8984 6.09332V15.0555C44.8984 15.8804 44.2298 16.5491 43.4047 16.5491C42.5798 16.5491 41.9111 15.8804 41.9111 15.0555V6.09332C41.9111 5.26837 42.5798 4.59961 43.4047 4.59961Z" fill="#EFA63E"/>
<path fill-rule="evenodd" clip-rule="evenodd" d="M50.1264 4.59961C50.9515 4.59961 51.6201 5.26837 51.6201 6.09332V15.0555C51.6201 15.8804 50.9515 16.5491 50.1264 16.5491C49.3015 16.5491 48.6328 15.8804 48.6328 15.0555V6.09332C48.6328 5.26837 49.3015 4.59961 50.1264 4.59961Z" fill="#EFA63E"/>
<path fill-rule="evenodd" clip-rule="evenodd" d="M29.8525 29.9929C29.8525 27.518 31.8588 25.5117 34.3335 25.5117H52.2581C54.733 25.5117 56.7392 27.518 56.7392 29.9929V41.9425C56.7392 44.4174 54.733 46.4237 52.2581 46.4237H34.3335C31.8588 46.4237 29.8525 44.4174 29.8525 41.9425V29.9929ZM34.3335 28.4992C33.5086 28.4992 32.84 29.168 32.84 29.9929V41.9425C32.84 42.7674 33.5086 43.4362 34.3335 43.4362H52.2581C53.083 43.4362 53.7518 42.7674 53.7518 41.9425V29.9929C53.7518 29.168 53.083 28.4992 52.2581 28.4992H34.3335Z" fill="#EFA63E"/>
<path fill-rule="evenodd" clip-rule="evenodd" d="M36.683 29.8799C37.5081 29.8799 38.1767 30.5487 38.1767 31.3736V40.3359C38.1767 41.1609 37.5081 41.8295 36.683 41.8295C35.8581 41.8295 35.1895 41.1609 35.1895 40.3359V31.3736C35.1895 30.5487 35.8581 29.8799 36.683 29.8799Z" fill="#EFA63E"/>
<path fill-rule="evenodd" clip-rule="evenodd" d="M43.4047 29.8799C44.2298 29.8799 44.8984 30.5487 44.8984 31.3736V40.3359C44.8984 41.1609 44.2298 41.8295 43.4047 41.8295C42.5798 41.8295 41.9111 41.1609 41.9111 40.3359V31.3736C41.9111 30.5487 42.5798 29.8799 43.4047 29.8799Z" fill="#EFA63E"/>
<path fill-rule="evenodd" clip-rule="evenodd" d="M50.1264 29.8799C50.9515 29.8799 51.6201 30.5487 51.6201 31.3736V40.3359C51.6201 41.1609 50.9515 41.8295 50.1264 41.8295C49.3015 41.8295 48.6328 41.1609 48.6328 40.3359V31.3736C48.6328 30.5487 49.3015 29.8799 50.1264 29.8799Z" fill="#EFA63E"/>
<path fill-rule="evenodd" clip-rule="evenodd" d="M29.8555 55.3853C29.8555 52.9105 31.8617 50.9043 34.3366 50.9043H52.2611C54.7359 50.9043 56.7422 52.9105 56.7422 55.3853V67.3349C56.7422 69.8098 54.7359 71.8161 52.2611 71.8161H34.3366C31.8617 71.8161 29.8555 69.8098 29.8555 67.3349V55.3853ZM34.3366 53.8916C33.5117 53.8916 32.8429 54.5604 32.8429 55.3853V67.3349C32.8429 68.16 33.5117 68.8286 34.3366 68.8286H52.2611C53.0861 68.8286 53.7549 68.16 53.7549 67.3349V55.3853C53.7549 54.5604 53.0861 53.8916 52.2611 53.8916H34.3366Z" fill="#EFA63E"/>
<path fill-rule="evenodd" clip-rule="evenodd" d="M36.6861 55.3867C37.511 55.3867 38.1798 56.0555 38.1798 56.8804V65.8426C38.1798 66.6675 37.511 67.3363 36.6861 67.3363C35.8612 67.3363 35.1924 66.6675 35.1924 65.8426V56.8804C35.1924 56.0555 35.8612 55.3867 36.6861 55.3867Z" fill="#EFA63E"/>
<path fill-rule="evenodd" clip-rule="evenodd" d="M43.4078 55.3867C44.2327 55.3867 44.9015 56.0555 44.9015 56.8804V65.8426C44.9015 66.6675 44.2327 67.3363 43.4078 67.3363C42.5829 67.3363 41.9141 66.6675 41.9141 65.8426V56.8804C41.9141 56.0555 42.5829 55.3867 43.4078 55.3867Z" fill="#EFA63E"/>
<path fill-rule="evenodd" clip-rule="evenodd" d="M50.1295 55.3867C50.9544 55.3867 51.6232 56.0555 51.6232 56.8804V65.8426C51.6232 66.6675 50.9544 67.3363 50.1295 67.3363C49.3045 67.3363 48.6357 66.6675 48.6357 65.8426V56.8804C48.6357 56.0555 49.3045 55.3867 50.1295 55.3867Z" fill="#EFA63E"/>
<path fill-rule="evenodd" clip-rule="evenodd" d="M65.5039 55.7139C66.0871 55.1305 67.033 55.1305 67.6163 55.7139L72.0973 60.195C72.6808 60.7784 72.6808 61.7241 72.0975 62.3074L67.6163 66.7886C67.033 67.3718 66.0871 67.3718 65.5039 66.7886C64.9206 66.2053 64.9206 65.2594 65.5039 64.6761L68.9287 61.2513L65.5039 57.8262C64.9206 57.243 64.9206 56.2972 65.5039 55.7139Z" fill="#EFA63E"/>
<path fill-rule="evenodd" clip-rule="evenodd" d="M65.5039 30.3222C66.0871 29.7389 67.033 29.7389 67.6163 30.3222L72.0973 34.8034C72.6808 35.3867 72.6808 36.3324 72.0975 36.9158L67.6163 41.3968C67.033 41.9803 66.0871 41.9803 65.5039 41.3968C64.9206 40.8136 64.9206 39.8678 65.5039 39.2844L68.9287 35.8595L65.5039 32.4347C64.9206 31.8514 64.9206 30.9055 65.5039 30.3222Z" fill="#EFA63E"/>
<path fill-rule="evenodd" clip-rule="evenodd" d="M65.5039 4.9287C66.0871 4.34538 67.033 4.34538 67.6163 4.9287L72.0973 9.40982C72.6808 9.99315 72.6808 10.9389 72.0975 11.5222L67.6163 16.0033C67.033 16.5867 66.0871 16.5867 65.5039 16.0033C64.9206 15.42 64.9206 14.4743 65.5039 13.8909L68.9287 10.466L65.5039 7.04112C64.9206 6.45778 64.9206 5.51203 65.5039 4.9287Z" fill="#EFA63E"/>
</g>
<defs>
<clipPath id="clip0_149_1714">
<rect width="72.258" height="72.258" fill="white" transform="translate(0.835938 0.118164)"/>
</clipPath>
</defs>
</svg>
