<svg width="60" height="60" viewBox="0 0 60 60" fill="none" xmlns="http://www.w3.org/2000/svg">
<g clip-path="url(#clip0_149_1445)">
<g clip-path="url(#clip1_149_1445)">
<g clip-path="url(#clip2_149_1445)">
<path d="M59.8242 29.7412C59.8242 13.4062 46.5821 0.164062 30.2471 0.164062C13.9121 0.164062 0.669922 13.4062 0.669922 29.7412C0.669922 46.0762 13.9121 59.3184 30.2471 59.3184C46.5821 59.3184 59.8242 46.0762 59.8242 29.7412Z" fill="#E8F8F3"/>
<path opacity="0.5" d="M36.1754 43.0778C32.7872 45.014 27.2937 45.014 23.9054 43.0778C20.5172 41.1416 20.5172 38.0026 23.9054 36.0664C27.2937 34.1302 32.7872 34.1302 36.1754 36.0664C39.5637 38.0026 39.5637 41.1416 36.1754 43.0778Z" fill="#151515"/>
<path d="M30.0383 41.649C37.4102 41.649 43.3863 35.6729 43.3863 28.301C43.3863 20.9292 37.4102 14.9531 30.0383 14.9531C22.6665 14.9531 16.6904 20.9292 16.6904 28.301C16.6904 35.6729 22.6665 41.649 30.0383 41.649Z" fill="#3BBB96" stroke="#151515" stroke-width="0.369714" stroke-linejoin="round"/>
<path d="M30.0394 41.6484C37.4113 41.6484 43.3874 35.6723 43.3874 28.3005C43.3874 27.9084 43.3705 27.5202 43.3373 27.1367C42.7476 32.7922 37.0192 37.2303 30.0394 37.2303C23.0596 37.2303 17.3311 32.7922 16.7414 27.1367C16.7084 27.5202 16.6914 27.9084 16.6914 28.3005C16.6914 35.6723 22.6676 41.6484 30.0394 41.6484Z" fill="#151515"/>
<path d="M25.0898 15.9007C26.6203 15.3942 28.2903 15.1157 30.039 15.1157C31.7875 15.1157 33.4576 15.3942 34.988 15.9007C33.4576 15.2893 31.7875 14.9531 30.039 14.9531C28.2903 14.9531 26.6203 15.2893 25.0898 15.9007Z" fill="#151515"/>
<path d="M30.0394 41.6484C37.4113 41.6484 43.3874 35.6723 43.3874 28.3005C43.3874 27.9084 43.3705 27.5202 43.3373 27.1367C42.7476 32.7922 37.0192 37.2303 30.0394 37.2303C23.0596 37.2303 17.3311 32.7922 16.7414 27.1367C16.7084 27.5202 16.6914 27.9084 16.6914 28.3005C16.6914 35.6723 22.6676 41.6484 30.0394 41.6484Z" stroke="#151515" stroke-width="0.369714"/>
<path d="M25.0898 15.9007C26.6203 15.3942 28.2903 15.1157 30.039 15.1157C31.7875 15.1157 33.4576 15.3942 34.988 15.9007C33.4576 15.2893 31.7875 14.9531 30.039 14.9531C28.2903 14.9531 26.6203 15.2893 25.0898 15.9007Z" stroke="#151515" stroke-width="0.369714"/>
</g>
</g>
</g>
<defs>
<clipPath id="clip0_149_1445">
<rect x="0.669922" y="0.164062" width="59.1543" height="59.1543" rx="29.5771" fill="white"/>
</clipPath>
<clipPath id="clip1_149_1445">
<rect width="59.1543" height="59.1543" fill="white" transform="translate(0.669922 0.164062)"/>
</clipPath>
<clipPath id="clip2_149_1445">
<rect width="59.1543" height="59.1543" fill="white" transform="translate(0.669922 0.164062)"/>
</clipPath>
</defs>
</svg>
