<svg width="62" height="69" viewBox="0 0 62 69" fill="none" xmlns="http://www.w3.org/2000/svg">
<g clip-path="url(#clip0_149_1869)">
<path fill-rule="evenodd" clip-rule="evenodd" d="M46.2233 61.0883C52.3946 61.0883 57.3972 56.0768 57.3972 49.8948C57.3972 43.713 52.3946 38.7015 46.2233 38.7015C40.052 38.7015 35.0494 43.713 35.0494 49.8948C35.0494 56.0768 40.052 61.0883 46.2233 61.0883ZM46.2233 63.8865C53.9373 63.8865 60.1907 57.6222 60.1907 49.8948C60.1907 42.1675 53.9373 35.9033 46.2233 35.9033C38.5093 35.9033 32.2559 42.1675 32.2559 49.8948C32.2559 57.6222 38.5093 63.8865 46.2233 63.8865Z" fill="#EFA63E"/>
<path fill-rule="evenodd" clip-rule="evenodd" d="M28.0648 0.923828L0.129883 12.9497V30.9886C0.129883 47.6744 12.0488 63.2781 28.0648 67.0662C32.1301 66.1046 35.9315 64.3818 39.3411 62.0731C38.4672 61.5767 37.6519 60.9883 36.9084 60.3215C34.1837 62.0448 31.2109 63.3653 28.0648 64.1835C22.806 62.816 18.0313 60.0448 14.09 56.3352C14.0948 56.2878 14.0973 56.2398 14.0973 56.1912V48.9622C14.0973 44.3256 17.8494 40.5671 22.4777 40.5671H33.6516C34.3261 40.5671 34.9818 40.6469 35.6102 40.7975C36.3026 39.9878 37.0858 39.2581 37.9441 38.6245C36.6226 38.0731 35.1725 37.7688 33.6516 37.7688H22.4777C16.3066 37.7688 11.3038 42.7802 11.3038 48.9622V53.3941C6.09832 47.2321 2.92337 39.2552 2.92337 30.9886V14.7929L28.0648 3.96962L53.2061 14.7929V30.9886C53.2061 33.1639 52.9863 35.3193 52.5674 37.4266C53.4621 37.8844 54.301 38.4361 55.0711 39.0685C55.6786 36.4359 55.9996 33.7268 55.9996 30.9886V12.9497L28.0648 0.923828ZM27.8599 14.9155C22.9744 14.9155 19.0139 18.8829 19.0139 23.7768C19.0139 28.6709 22.9744 32.6382 27.8599 32.6382C32.7455 32.6382 36.706 28.6709 36.706 23.7768C36.706 18.8829 32.7455 14.9155 27.8599 14.9155ZM16.2204 23.7768C16.2204 17.3374 21.4315 12.1172 27.8599 12.1172C34.2882 12.1172 39.4994 17.3374 39.4994 23.7768C39.4994 30.2163 34.2882 35.4366 27.8599 35.4366C21.4315 35.4366 16.2204 30.2163 16.2204 23.7768Z" fill="#EFA63E"/>
<path fill-rule="evenodd" clip-rule="evenodd" d="M52.8915 45.2234C53.4369 45.7697 53.4369 46.6556 52.8915 47.202L44.6863 55.4216L40.0898 50.8171C39.5443 50.2707 39.5443 49.3847 40.0898 48.8384C40.6353 48.292 41.5196 48.292 42.0652 48.8384L44.6863 51.464L50.9162 45.2234C51.4618 44.6768 52.3461 44.6768 52.8915 45.2234Z" fill="#EFA63E"/>
</g>
<defs>
<clipPath id="clip0_149_1869">
<rect width="61.2821" height="67.6847" fill="white" transform="translate(0.129883 0.923828)"/>
</clipPath>
</defs>
</svg>
