<svg width="50" height="51" viewBox="0 0 50 51" fill="none" xmlns="http://www.w3.org/2000/svg">
<rect opacity="0.2" x="0.266602" y="0.966797" width="49.2952" height="49.2952" rx="10.5633" fill="#EFA63E"/>
<path d="M35.1699 21.4117C35.1699 21.4117 34.9645 19.962 34.3321 19.3254C33.5313 18.4876 32.636 18.4835 32.2253 18.4343C29.2848 18.2207 24.87 18.2207 24.87 18.2207H24.8618C24.8618 18.2207 20.447 18.2207 17.5066 18.4343C17.0959 18.4835 16.2006 18.4876 15.3998 19.3254C14.7673 19.962 14.5661 21.4117 14.5661 21.4117C14.5661 21.4117 14.3525 23.116 14.3525 24.8162V26.4097C14.3525 28.1099 14.562 29.8142 14.562 29.8142C14.562 29.8142 14.7673 31.2639 15.3957 31.9004C16.1965 32.7382 17.2478 32.7095 17.716 32.7998C19.3998 32.96 24.8659 33.0093 24.8659 33.0093C24.8659 33.0093 29.2848 33.0011 32.2253 32.7916C32.636 32.7423 33.5313 32.7382 34.3321 31.9004C34.9645 31.2639 35.1699 29.8142 35.1699 29.8142C35.1699 29.8142 35.3793 28.114 35.3793 26.4097V24.8162C35.3793 23.116 35.1699 21.4117 35.1699 21.4117ZM22.6934 28.344V22.4343L28.3731 25.3994L22.6934 28.344Z" fill="#EFA63E"/>
</svg>
